<svg id="_Layer_" data-name="&lt;Layer&gt;" xmlns="http://www.w3.org/2000/svg" xmlns:xlink="http://www.w3.org/1999/xlink" viewBox="0 0 4572.73 2663.05"><defs><style>.cls-1{fill:none;}.cls-2{fill:#0e0133;}.cls-3{fill:#3b1882;}.cls-4{clip-path:url(#clip-path);}.cls-5{fill:#9664ff;}.cls-11,.cls-6,.cls-7{fill:#4b00eb;}.cls-7{opacity:0.75;}.cls-10,.cls-8{fill:#aa6c83;}.cls-8{opacity:0.9;}.cls-9{fill:#ffcd55;}.cls-10,.cls-11{opacity:0.5;}.cls-12{fill:#34a186;}.cls-13{fill:#5ea996;}.cls-14{fill:#25e899;}.cls-14,.cls-15,.cls-16,.cls-17,.cls-18,.cls-19{stroke:#231f20;stroke-miterlimit:10;stroke-width:0.25px;}.cls-15{fill:#15003e;}.cls-16{fill:#ffce08;}.cls-17{fill:#eff4ee;}.cls-18{fill:#0fce7c;}.cls-19{fill:#fff;}</style><clipPath id="clip-path" transform="translate(886.34 919.55)"><rect class="cls-1" width="3170" height="1585"/></clipPath></defs><rect class="cls-2" x="886.34" y="919.55" width="3170" height="1585"/><path class="cls-3" d="M1981.15,1585H0V0H584.1c-2.69,95.1,48.16,205.42,179.39,282.64,221.21,130.19,214,285.68,110.61,397.77s-139.17,336.27,96.3,459.24,381.76-18.1,685,57.85C1893.54,1257.13,1984.26,1401.46,1981.15,1585Z" transform="translate(886.34 919.55)"/><path class="cls-3" d="M2460.35,0c68.68,150.5,43.5,246.09-45.78,364.05s-16,323.37,206,301S2966.26,571.5,2980,776.91s169.4,176.94,190,166.77V0Z" transform="translate(886.34 919.55)"/><g class="cls-4"><path class="cls-5" d="M356.8,1705.68h0a6.32,6.32,0,0,1,0-8.93l76.08-76a6.34,6.34,0,0,1,8.94,0h0a6.31,6.31,0,0,1,0,8.93l-76.09,76A6.34,6.34,0,0,1,356.8,1705.68Z" transform="translate(886.34 919.55)"/><path class="cls-5" d="M282.06,1735.65h0a6.31,6.31,0,0,1,0-8.93l194.38-194v-.09l2-1.93,2.52,2.64a6.29,6.29,0,0,0,4.52,2l3.61,0v2.61L291,1735.65A6.32,6.32,0,0,1,282.06,1735.65Z" transform="translate(886.34 919.55)"/><path class="cls-5" d="M231.32,1741.65h0a6.31,6.31,0,0,1,0-8.93L490.2,1474.24a6.32,6.32,0,0,1,8.94,0h0a6.3,6.3,0,0,1,0,8.93L240.26,1741.65A6.32,6.32,0,0,1,231.32,1741.65Z" transform="translate(886.34 919.55)"/><path class="cls-5" d="M188.68,1739.54h0a6.32,6.32,0,0,1,0-8.94l308.23-307.75a6.34,6.34,0,0,1,8.94,0h0a6.31,6.31,0,0,1,0,8.93L197.62,1739.54A6.34,6.34,0,0,1,188.68,1739.54Z" transform="translate(886.34 919.55)"/><path class="cls-5" d="M150.82,1732.65h0a6.31,6.31,0,0,1,0-8.93L497.67,1377.4a6.34,6.34,0,0,1,8.94,0h0a6.31,6.31,0,0,1,0,8.93L159.76,1732.65A6.33,6.33,0,0,1,150.82,1732.65Z" transform="translate(886.34 919.55)"/><path class="cls-5" d="M116.34,1722.42h0a6.31,6.31,0,0,1,0-8.93l378-377.37a6.34,6.34,0,0,1,8.94,0h0a6.32,6.32,0,0,1,0,8.94l-378,377.36A6.34,6.34,0,0,1,116.34,1722.42Z" transform="translate(886.34 919.55)"/><path class="cls-5" d="M84.55,1709.5h0a6.31,6.31,0,0,1,0-8.93L487.77,1298a6.34,6.34,0,0,1,8.94,0h0a6.31,6.31,0,0,1,0,8.93L93.49,1709.5A6.32,6.32,0,0,1,84.55,1709.5Z" transform="translate(886.34 919.55)"/><path class="cls-5" d="M55,1694.31h0a6.32,6.32,0,0,1,0-8.94l423.75-423.09a6.34,6.34,0,0,1,8.94,0h0a6.31,6.31,0,0,1,0,8.93L64,1694.31A6.34,6.34,0,0,1,55,1694.31Z" transform="translate(886.34 919.55)"/><path class="cls-5" d="M27.61,1677h0a6.31,6.31,0,0,1,0-8.93l440.14-439.46a6.33,6.33,0,0,1,8.94,0h0a6.31,6.31,0,0,1,0,8.93L36.55,1677A6.32,6.32,0,0,1,27.61,1677Z" transform="translate(886.34 919.55)"/><path class="cls-5" d="M2.12,1657.83h0a6.31,6.31,0,0,1,0-8.93l452.82-452.12a6.32,6.32,0,0,1,8.94,0h0a6.31,6.31,0,0,1,0,8.93L11.06,1657.83A6.32,6.32,0,0,1,2.12,1657.83Z" transform="translate(886.34 919.55)"/><path class="cls-5" d="M-21.45,1636.7h0a6.31,6.31,0,0,1,0-8.93l462-461.31a6.32,6.32,0,0,1,8.94,0h0a6.32,6.32,0,0,1,0,8.93l-462,461.31A6.32,6.32,0,0,1-21.45,1636.7Z" transform="translate(886.34 919.55)"/><path class="cls-5" d="M-43.56,1614.12h0a6.31,6.31,0,0,1,0-8.93l468.44-467.72a6.33,6.33,0,0,1,8.95,0h0a6.31,6.31,0,0,1,0,8.93L-34.62,1614.12A6.32,6.32,0,0,1-43.56,1614.12Z" transform="translate(886.34 919.55)"/><path class="cls-5" d="M-66,1591.92h0a6.31,6.31,0,0,1,0-8.93l474-473.28a6.32,6.32,0,0,1,8.94,0h0a6.31,6.31,0,0,1,0,8.93l-474,473.28A6.34,6.34,0,0,1-66,1591.92Z" transform="translate(886.34 919.55)"/><path class="cls-5" d="M-89.36,1570.47h0a6.31,6.31,0,0,1,0-8.93l479.17-478.43a6.34,6.34,0,0,1,8.94,0h0a6.31,6.31,0,0,1,0,8.93L-80.42,1570.47A6.32,6.32,0,0,1-89.36,1570.47Z" transform="translate(886.34 919.55)"/><path class="cls-5" d="M-113.65,1550.07h0a6.31,6.31,0,0,1,0-8.93l484.26-483.51a6.32,6.32,0,0,1,8.94,0h0a6.31,6.31,0,0,1,0,8.93l-484.26,483.51A6.32,6.32,0,0,1-113.65,1550.07Z" transform="translate(886.34 919.55)"/><path class="cls-5" d="M-139.34,1531.05h0a6.31,6.31,0,0,1,0-8.93l489.67-488.91a6.34,6.34,0,0,1,8.94,0h0a6.31,6.31,0,0,1,0,8.93L-130.4,1531.05A6.32,6.32,0,0,1-139.34,1531.05Z" transform="translate(886.34 919.55)"/><path class="cls-5" d="M-166.76,1513.78h0a6.31,6.31,0,0,1,0-8.93L329,1009.9a6.33,6.33,0,0,1,8.94,0h0a6.31,6.31,0,0,1,0,8.93l-495.71,494.94A6.32,6.32,0,0,1-166.76,1513.78Z" transform="translate(886.34 919.55)"/><path class="cls-5" d="M-196.43,1498.75h0a6.32,6.32,0,0,1,0-8.94L306.42,987.73a6.35,6.35,0,0,1,8.95,0h0a6.32,6.32,0,0,1,0,8.93l-502.86,502.09A6.34,6.34,0,0,1-196.43,1498.75Z" transform="translate(886.34 919.55)"/><path class="cls-5" d="M-228.89,1486.49h0a6.31,6.31,0,0,1,0-8.93L282.57,966.92a6.32,6.32,0,0,1,8.94,0h0a6.31,6.31,0,0,1,0,8.93l-511.46,510.64A6.32,6.32,0,0,1-228.89,1486.49Z" transform="translate(886.34 919.55)"/><path class="cls-5" d="M-264.69,1477.59h0a6.32,6.32,0,0,1,0-8.94L257.24,947.53a6.32,6.32,0,0,1,8.94,0h0a6.31,6.31,0,0,1,0,8.93l-521.93,521.13A6.34,6.34,0,0,1-264.69,1477.59Z" transform="translate(886.34 919.55)"/><path class="cls-5" d="M-304.36,1472.53h0a6.31,6.31,0,0,1,0-8.93L230.73,929.34a6.32,6.32,0,0,1,8.94,0h0a6.31,6.31,0,0,1,0,8.93l-535.09,534.26A6.32,6.32,0,0,1-304.36,1472.53Z" transform="translate(886.34 919.55)"/><path class="cls-5" d="M-348.42,1471.87h0a6.31,6.31,0,0,1,0-8.93L203.12,912.25a6.32,6.32,0,0,1,8.94,0h0a6.31,6.31,0,0,1,0,8.93l-551.54,550.69A6.34,6.34,0,0,1-348.42,1471.87Z" transform="translate(886.34 919.55)"/><path class="cls-5" d="M-397.14,1475.82h0a6.31,6.31,0,0,1,0-8.93L174.52,896.11a6.32,6.32,0,0,1,8.94,0h0a6.31,6.31,0,0,1,0,8.93L-388.2,1475.82A6.32,6.32,0,0,1-397.14,1475.82Z" transform="translate(886.34 919.55)"/><path class="cls-5" d="M-450.63,1484.53h0a6.31,6.31,0,0,1,0-8.93L144.94,881a6.33,6.33,0,0,1,8.95,0h0a6.31,6.31,0,0,1,0,8.93l-595.58,594.65A6.32,6.32,0,0,1-450.63,1484.53Z" transform="translate(886.34 919.55)"/><path class="cls-5" d="M-507.94,1497.1h0a6.31,6.31,0,0,1,0-8.93L114.39,866.8a6.34,6.34,0,0,1,8.94,0h0a6.31,6.31,0,0,1,0,8.93L-499,1497.1A6.32,6.32,0,0,1-507.94,1497.1Z" transform="translate(886.34 919.55)"/><path class="cls-5" d="M-560.77,1505.19h0a6.31,6.31,0,0,1,0-8.93L82.82,853.66a6.34,6.34,0,0,1,8.94,0h0a6.31,6.31,0,0,1,0,8.93l-643.59,642.6A6.32,6.32,0,0,1-560.77,1505.19Z" transform="translate(886.34 919.55)"/><path class="cls-5" d="M-607.58,1507.27h0a6.31,6.31,0,0,1,0-8.93L50.21,841.57a6.32,6.32,0,0,1,8.94,0h0a6.31,6.31,0,0,1,0,8.93l-657.79,656.78A6.33,6.33,0,0,1-607.58,1507.27Z" transform="translate(886.34 919.55)"/><path class="cls-5" d="M-649.59,1504.56h0a6.31,6.31,0,0,1,0-8.93L16.52,830.54a6.33,6.33,0,0,1,8.94,0h0a6.31,6.31,0,0,1,0,8.93l-666.11,665.08A6.34,6.34,0,0,1-649.59,1504.56Z" transform="translate(886.34 919.55)"/><path class="cls-5" d="M-687.51,1497.77h0a6.31,6.31,0,0,1,0-8.93L-18.43,820.78a6.33,6.33,0,0,1,8.94,0h0a6.31,6.31,0,0,1,0,8.93l-669.08,668.05A6.34,6.34,0,0,1-687.51,1497.77Z" transform="translate(886.34 919.55)"/><path class="cls-5" d="M-721.87,1487.41h0a6.31,6.31,0,0,1,0-8.93L-54.65,812.29a6.32,6.32,0,0,1,8.94,0h0a6.31,6.31,0,0,1,0,8.93l-667.22,666.19A6.32,6.32,0,0,1-721.87,1487.41Z" transform="translate(886.34 919.55)"/><path class="cls-5" d="M-753,1473.86h0a6.32,6.32,0,0,1,0-8.93L-92.26,805.18a6.34,6.34,0,0,1,8.94,0h0a6.3,6.3,0,0,1,0,8.92l-660.76,659.75A6.33,6.33,0,0,1-753,1473.86Z" transform="translate(886.34 919.55)"/><path class="cls-5" d="M-781.11,1457.24h0a6.3,6.3,0,0,1,0-8.92l649.63-648.63a6.32,6.32,0,0,1,8.94,0h0a6.31,6.31,0,0,1,0,8.93l-649.63,648.63A6.33,6.33,0,0,1-781.11,1457.24Z" transform="translate(886.34 919.55)"/><path class="cls-5" d="M-806.39,1437.76h0a6.31,6.31,0,0,1,0-8.93L-172.57,796a6.34,6.34,0,0,1,8.94,0h0a6.3,6.3,0,0,1,0,8.92l-633.82,632.84A6.32,6.32,0,0,1-806.39,1437.76Z" transform="translate(886.34 919.55)"/><path class="cls-5" d="M-828.69,1415.37h0a6.32,6.32,0,0,1,0-8.94l613-612.08a6.32,6.32,0,0,1,8.94,0h0a6.32,6.32,0,0,1,0,8.93l-613,612.09A6.34,6.34,0,0,1-828.69,1415.37Z" transform="translate(886.34 919.55)"/><path class="cls-5" d="M-848,1390h0a6.31,6.31,0,0,1,0-8.93l586.93-586a6.33,6.33,0,0,1,8.94,0h0a6.31,6.31,0,0,1,0,8.93l-586.93,586A6.33,6.33,0,0,1-848,1390Z" transform="translate(886.34 919.55)"/><path class="cls-5" d="M-864,1361.33h0a6.31,6.31,0,0,1,0-8.93l554.61-553.75a6.32,6.32,0,0,1,8.94,0h0a6.31,6.31,0,0,1,0,8.93l-554.61,553.75A6.34,6.34,0,0,1-864,1361.33Z" transform="translate(886.34 919.55)"/><path class="cls-5" d="M-876.14,1328.77h0a6.32,6.32,0,0,1,0-8.93l514.9-514.12a6.32,6.32,0,0,1,8.94,0h0a6.3,6.3,0,0,1,0,8.93l-514.9,514.12A6.35,6.35,0,0,1-876.14,1328.77Z" transform="translate(886.34 919.55)"/><path class="cls-5" d="M-883.32,1291.28h0a6.32,6.32,0,0,1,0-8.93l465.75-465a6.32,6.32,0,0,1,8.94,0h0a6.31,6.31,0,0,1,0,8.93l-465.76,465A6.34,6.34,0,0,1-883.32,1291.28Z" transform="translate(886.34 919.55)"/><path class="cls-5" d="M-884.49,1247.79h0a6.32,6.32,0,0,1,0-8.93l404.54-403.93a6.34,6.34,0,0,1,8.94,0h0a6.31,6.31,0,0,1,0,8.93l-404.55,403.92A6.34,6.34,0,0,1-884.49,1247.79Z" transform="translate(886.34 919.55)"/><path class="cls-5" d="M-876.86,1195.52h0a6.31,6.31,0,0,1,0-8.93l325.78-325.25a6.32,6.32,0,0,1,8.94,0h0a6.31,6.31,0,0,1,0,8.93l-325.78,325.25A6.34,6.34,0,0,1-876.86,1195.52Z" transform="translate(886.34 919.55)"/><path class="cls-5" d="M-851.52,1125.56h0a6.3,6.3,0,0,1,0-8.93L-637.3,902.74a6.34,6.34,0,0,1,8.94,0h0a6.34,6.34,0,0,1,0,8.94l-214.22,213.88A6.32,6.32,0,0,1-851.52,1125.56Z" transform="translate(886.34 919.55)"/><path class="cls-5" d="M-815.29,1044.71h0a6.31,6.31,0,0,1,0-8.93L-707,927.7a6.33,6.33,0,0,1,8.94,0h0a6.31,6.31,0,0,1,0,8.93l-108.28,108.08A6.33,6.33,0,0,1-815.29,1044.71Z" transform="translate(886.34 919.55)"/><circle class="cls-5" cx="1796.39" cy="1984.74" r="158.5"/><circle class="cls-6" cx="253.6" cy="1157.3" r="118.87"/><path class="cls-7" d="M-390.76,246.33c-86.11,174.18,56,340.46-57.53,655.46-92.32,256.14,83,435.37,192.47,474.13s198.88,16.77,329.76-56.21,290.2-57.19,351.13-43.88,321.3,37.4,440.06-161.53C1020.5,854.06,836.78,447.15,470,476.43,270.48,492.36,182.33,290.6,121.42,208.31c-73.27-99-173.36-166.26-292.9-138.69C-261.49,90.38-343.23,150.19-390.76,246.33Z" transform="translate(886.34 919.55)"/><path class="cls-8" d="M497.23,1038.66c118.73-43.41,210.69-25.87,297,19.48S920.84,1181,943.86,1233.7c36.77,84.2,41.11,247.92-75.48,294.38C737.12,1580.37,676,1457.46,643,1426.82c-49-45.44-108.66-61.46-198.87-42.07s-126.88-73.21-118.68-129.43C337.08,1175.66,378.5,1082.07,497.23,1038.66Z" transform="translate(886.34 919.55)"/><path class="cls-9" d="M-703.27,1035.15c109.65,113,249.56,134.06,352.84,116.35C-212.06,1127.77-75,1021.81-32.31,861.24c37.12-139.46-31-255.27-208.57-208-114.67,30.51-192-43.89-230.37-114.33-82-150.52-262.4-74.57-312.66,126.53S-747.89,989.16-703.27,1035.15Z" transform="translate(886.34 919.55)"/><path class="cls-9" d="M159.76,147.41A106.2,106.2,0,1,1,53.57,253.6,106.31,106.31,0,0,1,159.76,147.41Zm0-12.68A118.88,118.88,0,1,0,278.64,253.6,118.87,118.87,0,0,0,159.76,134.73Z" transform="translate(886.34 919.55)"/><path class="cls-6" d="M1124.09,1391a66.57,66.57,0,1,1-66.57,66.57,66.65,66.65,0,0,1,66.57-66.57Zm0-12.68a79.25,79.25,0,1,0,79.25,79.25,79.25,79.25,0,0,0-79.25-79.25Z" transform="translate(886.34 919.55)"/><path class="cls-9" d="M-553.49,290.06a27,27,0,0,1,27,26.94,27,27,0,0,1-27,26.95A27,27,0,0,1-580.43,317a27,27,0,0,1,26.94-26.94Zm0-12.68A39.62,39.62,0,0,0-593.11,317a39.62,39.62,0,0,0,39.62,39.63A39.63,39.63,0,0,0-513.86,317a39.62,39.62,0,0,0-39.63-39.62Z" transform="translate(886.34 919.55)"/><path class="cls-10" d="M644.65,259.86c-8.63,94,21.72,157,71.11,210.58s113.18,67.82,155.75,74.34c68,10.41,187.3-17.8,198.53-110.81,12.65-104.72-88-125.26-116.53-143.22-42.28-26.64-65.33-66.64-68.61-135.45S807.56,77.77,768.45,94.45C713,118.08,653.27,165.88,644.65,259.86Z" transform="translate(886.34 919.55)"/><path class="cls-5" d="M767.22,215.37,641.79,90a6.26,6.26,0,0,1,0-8.86h0a6.26,6.26,0,0,1,8.86,0L776.08,206.51a6.28,6.28,0,0,1,0,8.86h0A6.26,6.26,0,0,1,767.22,215.37Z" transform="translate(886.34 919.55)"/><path class="cls-5" d="M750.42,153.82l-47.08-47.08a6.26,6.26,0,0,1,0-8.86h0a6.26,6.26,0,0,1,8.86,0L759.29,145a6.28,6.28,0,0,1,0,8.86h0A6.27,6.27,0,0,1,750.42,153.82Z" transform="translate(886.34 919.55)"/><path class="cls-5" d="M767.22,260.13,597,90a6.26,6.26,0,0,1,0-8.86h0a6.26,6.26,0,0,1,8.86,0L776.08,251.27a6.28,6.28,0,0,1,0,8.86h0A6.28,6.28,0,0,1,767.22,260.13Z" transform="translate(886.34 919.55)"/><path class="cls-5" d="M757.88,295.54,561.62,99.28a6.26,6.26,0,0,1,0-8.86h0a6.28,6.28,0,0,1,8.86,0L766.74,286.68a6.26,6.26,0,0,1,0,8.86h0A6.26,6.26,0,0,1,757.88,295.54Z" transform="translate(886.34 919.55)"/><path class="cls-5" d="M742.56,325,532.19,114.6a6.26,6.26,0,0,1,0-8.86h0a6.26,6.26,0,0,1,8.86,0L751.42,316.12a6.26,6.26,0,0,1,0,8.86h0A6.28,6.28,0,0,1,742.56,325Z" transform="translate(886.34 919.55)"/><path class="cls-5" d="M722.43,349.63l-214.9-214.9a6.28,6.28,0,0,1,0-8.86h0a6.26,6.26,0,0,1,8.86,0l214.9,214.9a6.26,6.26,0,0,1,0,8.86h0A6.26,6.26,0,0,1,722.43,349.63Z" transform="translate(886.34 919.55)"/><path class="cls-5" d="M697.78,369.76,487.4,159.39a6.29,6.29,0,0,1,0-8.87h0a6.28,6.28,0,0,1,8.86,0L706.64,360.9a6.26,6.26,0,0,1,0,8.86h0A6.26,6.26,0,0,1,697.78,369.76Z" transform="translate(886.34 919.55)"/><path class="cls-5" d="M668.34,385.08,472.09,188.82a6.26,6.26,0,0,1,0-8.86h0a6.26,6.26,0,0,1,8.86,0L677.21,376.22a6.28,6.28,0,0,1,0,8.86h0A6.27,6.27,0,0,1,668.34,385.08Z" transform="translate(886.34 919.55)"/><path class="cls-5" d="M632.93,394.42,462.75,224.24a6.27,6.27,0,0,1,0-8.87h0a6.28,6.28,0,0,1,8.86,0L641.79,385.55a6.27,6.27,0,0,1,0,8.87h0A6.28,6.28,0,0,1,632.93,394.42Z" transform="translate(886.34 919.55)"/><path class="cls-5" d="M588.17,394.42,462.75,269a6.26,6.26,0,0,1,0-8.86h0a6.26,6.26,0,0,1,8.86,0L597,385.55a6.29,6.29,0,0,1,0,8.87h0A6.29,6.29,0,0,1,588.17,394.42Z" transform="translate(886.34 919.55)"/><path class="cls-5" d="M526.63,377.62l-47.09-47.08a6.26,6.26,0,0,1,0-8.86h0a6.26,6.26,0,0,1,8.86,0l47.09,47.08a6.28,6.28,0,0,1,0,8.86h0A6.26,6.26,0,0,1,526.63,377.62Z" transform="translate(886.34 919.55)"/><path class="cls-5" d="M2972.05,722.73h0a6.31,6.31,0,0,1,0-8.93l76.09-76a6.34,6.34,0,0,1,8.94,0h0a6.32,6.32,0,0,1,0,8.94l-76.08,76A6.33,6.33,0,0,1,2972.05,722.73Z" transform="translate(886.34 919.55)"/><path class="cls-5" d="M2897.31,752.7h0a6.31,6.31,0,0,1,0-8.93l194.38-194v-.09l2-1.93,2.52,2.64a6.29,6.29,0,0,0,4.52,2l3.61,0V555L2906.25,752.7A6.32,6.32,0,0,1,2897.31,752.7Z" transform="translate(886.34 919.55)"/><path class="cls-5" d="M2846.57,758.7h0a6.31,6.31,0,0,1,0-8.93l258.88-258.48a6.32,6.32,0,0,1,8.94,0h0a6.29,6.29,0,0,1,0,8.93L2855.51,758.7A6.32,6.32,0,0,1,2846.57,758.7Z" transform="translate(886.34 919.55)"/><path class="cls-5" d="M2803.93,756.59h0a6.31,6.31,0,0,1,0-8.93L3112.16,439.9a6.34,6.34,0,0,1,8.94,0h0a6.32,6.32,0,0,1,0,8.94L2812.87,756.59A6.34,6.34,0,0,1,2803.93,756.59Z" transform="translate(886.34 919.55)"/><path class="cls-5" d="M2766.07,749.7h0a6.31,6.31,0,0,1,0-8.93l346.85-346.32a6.33,6.33,0,0,1,8.94,0h0a6.31,6.31,0,0,1,0,8.93L2775,749.7A6.32,6.32,0,0,1,2766.07,749.7Z" transform="translate(886.34 919.55)"/><path class="cls-5" d="M2731.59,739.47h0a6.31,6.31,0,0,1,0-8.93l377.95-377.36a6.32,6.32,0,0,1,8.94,0h0a6.3,6.3,0,0,1,0,8.93L2740.53,739.47A6.32,6.32,0,0,1,2731.59,739.47Z" transform="translate(886.34 919.55)"/><path class="cls-5" d="M2699.8,726.55h0a6.31,6.31,0,0,1,0-8.93L3103,315a6.32,6.32,0,0,1,8.94,0h0a6.31,6.31,0,0,1,0,8.93L2708.74,726.55A6.32,6.32,0,0,1,2699.8,726.55Z" transform="translate(886.34 919.55)"/><path class="cls-5" d="M2670.29,711.36h0a6.31,6.31,0,0,1,0-8.93L3094,279.33a6.34,6.34,0,0,1,8.94,0h0a6.3,6.3,0,0,1,0,8.94L2679.23,711.36A6.32,6.32,0,0,1,2670.29,711.36Z" transform="translate(886.34 919.55)"/><path class="cls-5" d="M2642.86,694.08h0a6.31,6.31,0,0,1,0-8.93L3083,245.7a6.32,6.32,0,0,1,8.94,0h0a6.31,6.31,0,0,1,0,8.93L2651.8,694.09A6.33,6.33,0,0,1,2642.86,694.08Z" transform="translate(886.34 919.55)"/><path class="cls-5" d="M2617.37,674.88h0a6.31,6.31,0,0,1,0-8.93l452.82-452.12a6.34,6.34,0,0,1,8.94,0h0a6.31,6.31,0,0,1,0,8.93L2626.31,674.88A6.32,6.32,0,0,1,2617.37,674.88Z" transform="translate(886.34 919.55)"/><path class="cls-5" d="M2593.8,653.75h0a6.32,6.32,0,0,1,0-8.93l462-461.31a6.34,6.34,0,0,1,8.94,0h0a6.31,6.31,0,0,1,0,8.93l-462,461.31A6.32,6.32,0,0,1,2593.8,653.75Z" transform="translate(886.34 919.55)"/><path class="cls-5" d="M2571.69,631.17h0a6.31,6.31,0,0,1,0-8.93l468.44-467.72a6.35,6.35,0,0,1,8.95,0h0a6.31,6.31,0,0,1,0,8.93L2580.63,631.17A6.32,6.32,0,0,1,2571.69,631.17Z" transform="translate(886.34 919.55)"/><path class="cls-5" d="M2549.2,609h0a6.31,6.31,0,0,1,0-8.93l474-473.28a6.32,6.32,0,0,1,8.94,0h0a6.3,6.3,0,0,1,0,8.93L2558.14,609A6.34,6.34,0,0,1,2549.2,609Z" transform="translate(886.34 919.55)"/><path class="cls-5" d="M2525.89,587.52h0a6.31,6.31,0,0,1,0-8.93l479.16-478.43a6.35,6.35,0,0,1,8.95,0h0a6.34,6.34,0,0,1,0,8.94L2534.83,587.52A6.32,6.32,0,0,1,2525.89,587.52Z" transform="translate(886.34 919.55)"/><path class="cls-5" d="M2501.6,567.12h0a6.31,6.31,0,0,1,0-8.93L2985.86,74.68a6.32,6.32,0,0,1,8.94,0h0a6.31,6.31,0,0,1,0,8.93L2510.54,567.12A6.32,6.32,0,0,1,2501.6,567.12Z" transform="translate(886.34 919.55)"/><path class="cls-5" d="M2475.91,548.11h0a6.31,6.31,0,0,1,0-8.93L2965.58,50.27a6.32,6.32,0,0,1,8.94,0h0a6.31,6.31,0,0,1,0,8.93L2484.85,548.11A6.34,6.34,0,0,1,2475.91,548.11Z" transform="translate(886.34 919.55)"/><path class="cls-5" d="M2448.49,530.83h0a6.31,6.31,0,0,1,0-8.93L2944.2,27a6.32,6.32,0,0,1,8.94,0h0a6.31,6.31,0,0,1,0,8.93L2457.43,530.83A6.32,6.32,0,0,1,2448.49,530.83Z" transform="translate(886.34 919.55)"/><path class="cls-5" d="M2418.82,515.8h0a6.31,6.31,0,0,1,0-8.93L2921.67,4.78a6.35,6.35,0,0,1,8.95,0h0a6.32,6.32,0,0,1,0,8.94L2427.76,515.8A6.34,6.34,0,0,1,2418.82,515.8Z" transform="translate(886.34 919.55)"/><path class="cls-5" d="M2386.36,503.54h0a6.32,6.32,0,0,1,0-8.93L2897.83-16a6.34,6.34,0,0,1,8.94,0h0a6.33,6.33,0,0,1,0,8.94L2395.3,503.54A6.32,6.32,0,0,1,2386.36,503.54Z" transform="translate(886.34 919.55)"/><path class="cls-5" d="M2350.55,494.64h0a6.33,6.33,0,0,1,0-8.93L2872.49-35.42a6.34,6.34,0,0,1,8.94,0h0a6.31,6.31,0,0,1,0,8.93L2359.5,494.64A6.35,6.35,0,0,1,2350.55,494.64Z" transform="translate(886.34 919.55)"/><path class="cls-5" d="M2310.89,489.59h0a6.32,6.32,0,0,1,0-8.94L2846-53.61a6.32,6.32,0,0,1,8.94,0h0a6.31,6.31,0,0,1,0,8.93L2319.83,489.59A6.34,6.34,0,0,1,2310.89,489.59Z" transform="translate(886.34 919.55)"/><path class="cls-5" d="M2266.83,488.92h0a6.31,6.31,0,0,1,0-8.93L2818.37-70.7a6.34,6.34,0,0,1,8.94,0h0a6.31,6.31,0,0,1,0,8.93L2275.77,488.92A6.32,6.32,0,0,1,2266.83,488.92Z" transform="translate(886.34 919.55)"/><path class="cls-5" d="M2218.11,492.87h0a6.31,6.31,0,0,1,0-8.93L2789.77-86.84a6.34,6.34,0,0,1,8.94,0h0a6.31,6.31,0,0,1,0,8.93L2227.05,492.87A6.32,6.32,0,0,1,2218.11,492.87Z" transform="translate(886.34 919.55)"/><path class="cls-5" d="M2164.62,501.58h0a6.33,6.33,0,0,1,0-8.93L2760.19-102a6.34,6.34,0,0,1,8.94,0h0a6.33,6.33,0,0,1,0,8.93L2173.56,501.59A6.33,6.33,0,0,1,2164.62,501.58Z" transform="translate(886.34 919.55)"/><path class="cls-5" d="M2107.31,514.16h0a6.31,6.31,0,0,1,0-8.93l622.33-621.38a6.33,6.33,0,0,1,8.94,0h0a6.31,6.31,0,0,1,0,8.93L2116.25,514.16A6.34,6.34,0,0,1,2107.31,514.16Z" transform="translate(886.34 919.55)"/><path class="cls-5" d="M2054.48,522.24h0a6.31,6.31,0,0,1,0-8.93l643.59-642.6a6.33,6.33,0,0,1,8.94,0h0a6.31,6.31,0,0,1,0,8.93L2063.42,522.24A6.32,6.32,0,0,1,2054.48,522.24Z" transform="translate(886.34 919.55)"/><path class="cls-5" d="M2007.67,524.33h0a6.31,6.31,0,0,1,0-8.93l657.79-656.78a6.32,6.32,0,0,1,8.94,0h0a6.31,6.31,0,0,1,0,8.93L2016.61,524.33A6.34,6.34,0,0,1,2007.67,524.33Z" transform="translate(886.34 919.55)"/><path class="cls-5" d="M1965.66,521.61h0a6.31,6.31,0,0,1,0-8.93L2631.77-152.4a6.32,6.32,0,0,1,8.94,0h0a6.31,6.31,0,0,1,0,8.93L1974.6,521.61A6.32,6.32,0,0,1,1965.66,521.61Z" transform="translate(886.34 919.55)"/><path class="cls-5" d="M1927.73,514.82h0a6.32,6.32,0,0,1,0-8.93l669.08-668a6.32,6.32,0,0,1,8.94,0h0a6.31,6.31,0,0,1,0,8.93L1936.67,514.82A6.32,6.32,0,0,1,1927.73,514.82Z" transform="translate(886.34 919.55)"/><path class="cls-5" d="M1893.38,504.46h0a6.31,6.31,0,0,1,0-8.93L2560.6-170.66a6.33,6.33,0,0,1,8.94,0h0a6.31,6.31,0,0,1,0,8.93L1902.32,504.46A6.32,6.32,0,0,1,1893.38,504.46Z" transform="translate(886.34 919.55)"/><path class="cls-5" d="M1862.23,490.91h0a6.31,6.31,0,0,1,0-8.93L2523-177.77a6.33,6.33,0,0,1,8.94,0h0a6.31,6.31,0,0,1,0,8.93L1871.17,490.91A6.32,6.32,0,0,1,1862.23,490.91Z" transform="translate(886.34 919.55)"/><path class="cls-5" d="M1834.14,474.3h0a6.31,6.31,0,0,1,0-8.93l649.63-648.63a6.32,6.32,0,0,1,8.94,0h0a6.31,6.31,0,0,1,0,8.93L1843.08,474.3A6.34,6.34,0,0,1,1834.14,474.3Z" transform="translate(886.34 919.55)"/><path class="cls-5" d="M1808.86,454.81h0a6.31,6.31,0,0,1,0-8.93L2442.68-187a6.34,6.34,0,0,1,8.94,0h0a6.31,6.31,0,0,1,0,8.93L1817.8,454.81A6.32,6.32,0,0,1,1808.86,454.81Z" transform="translate(886.34 919.55)"/><path class="cls-5" d="M1786.56,432.42h0a6.31,6.31,0,0,1,0-8.93l613-612.09a6.34,6.34,0,0,1,8.94,0h0a6.32,6.32,0,0,1,0,8.93l-613,612.09A6.34,6.34,0,0,1,1786.56,432.42Z" transform="translate(886.34 919.55)"/><path class="cls-5" d="M1767.23,407.06h0a6.32,6.32,0,0,1,0-8.93l586.93-586a6.32,6.32,0,0,1,8.94,0h0a6.31,6.31,0,0,1,0,8.93l-586.94,586A6.34,6.34,0,0,1,1767.23,407.06Z" transform="translate(886.34 919.55)"/><path class="cls-5" d="M1751.23,378.38h0a6.31,6.31,0,0,1,0-8.93L2305.84-184.3a6.32,6.32,0,0,1,8.94,0h0a6.31,6.31,0,0,1,0,8.93L1760.17,378.38A6.32,6.32,0,0,1,1751.23,378.38Z" transform="translate(886.34 919.55)"/><path class="cls-5" d="M1739.12,345.82h0a6.31,6.31,0,0,1,0-8.93L2254-177.23a6.34,6.34,0,0,1,8.94,0h0a6.3,6.3,0,0,1,0,8.93l-514.9,514.12A6.32,6.32,0,0,1,1739.12,345.82Z" transform="translate(886.34 919.55)"/><path class="cls-5" d="M1731.93,308.33h0a6.32,6.32,0,0,1,0-8.93l465.76-465a6.34,6.34,0,0,1,8.94,0h0a6.32,6.32,0,0,1,0,8.94l-465.75,465A6.35,6.35,0,0,1,1731.93,308.33Z" transform="translate(886.34 919.55)"/><path class="cls-5" d="M1730.76,264.84h0a6.32,6.32,0,0,1,0-8.93L2135.31-148a6.32,6.32,0,0,1,8.94,0h0a6.31,6.31,0,0,1,0,8.93L1739.7,264.84A6.32,6.32,0,0,1,1730.76,264.84Z" transform="translate(886.34 919.55)"/><path class="cls-5" d="M1738.39,212.57h0a6.31,6.31,0,0,1,0-8.93l325.78-325.25a6.32,6.32,0,0,1,8.94,0h0a6.32,6.32,0,0,1,0,8.93L1747.33,212.57A6.32,6.32,0,0,1,1738.39,212.57Z" transform="translate(886.34 919.55)"/><path class="cls-5" d="M1763.72,142.61h0a6.32,6.32,0,0,1,0-8.93L1977.94-80.2a6.33,6.33,0,0,1,9,0h0a6.32,6.32,0,0,1,0,8.93L1772.66,142.61A6.32,6.32,0,0,1,1763.72,142.61Z" transform="translate(886.34 919.55)"/><path class="cls-5" d="M1800,61.77h0a6.31,6.31,0,0,1,0-8.93L1908.24-55.24a6.32,6.32,0,0,1,8.94,0h0a6.31,6.31,0,0,1,0,8.93L1808.9,61.77A6.34,6.34,0,0,1,1800,61.77Z" transform="translate(886.34 919.55)"/><circle class="cls-5" cx="4411.64" cy="1001.79" r="158.5"/><circle class="cls-11" cx="3866.82" cy="1847.04" r="118.87"/><path class="cls-7" d="M2224.49-736.62c-86.11,174.18,56,340.46-57.53,655.46C2074.64,175,2250,354.21,2359.43,393s198.87,16.76,329.76-56.22,290.2-57.18,351.13-43.88,321.3,37.41,440.06-161.52c155.37-260.25-28.35-667.15-395.09-637.88-199.56,15.94-287.71-185.82-348.62-268.11-73.27-99-173.36-166.27-292.9-138.7C2353.76-892.57,2272-832.76,2224.49-736.62Z" transform="translate(886.34 919.55)"/><path class="cls-12" d="M3112.48,55.71c118.73-43.41,210.69-25.86,297,19.48S3536.09,198,3559.11,250.75c36.77,84.21,41.11,247.92-75.48,294.38-131.26,52.3-192.35-70.61-225.37-101.26-49-45.44-108.66-61.46-198.88-42.06s-126.87-73.21-118.67-129.44C2952.33,192.71,2993.76,99.12,3112.48,55.71Z" transform="translate(886.34 919.55)"/><path class="cls-13" d="M1912,52.2c109.66,113.05,249.55,134.06,352.84,116.35,138.37-23.72,275.38-129.69,318.12-290.26,37.12-139.46-31-255.27-208.57-208C2259.7-299.22,2182.37-373.62,2144-444c-82-150.53-262.41-74.58-312.67,126.53S1867.36,6.21,1912,52.2Z" transform="translate(886.34 919.55)"/><path class="cls-9" d="M2743.31-835.54a106.32,106.32,0,0,1,106.2,106.19,106.32,106.32,0,0,1-106.2,106.2,106.32,106.32,0,0,1-106.19-106.2,106.31,106.31,0,0,1,106.19-106.19Zm0-12.68a118.87,118.87,0,0,0-118.87,118.87,118.87,118.87,0,0,0,118.87,118.88,118.87,118.87,0,0,0,118.88-118.88,118.87,118.87,0,0,0-118.88-118.87Z" transform="translate(886.34 919.55)"/><path class="cls-3" d="M3170,1157.12a66.57,66.57,0,1,1-66.57,66.57,66.64,66.64,0,0,1,66.57-66.57Zm0-12.68a79.25,79.25,0,1,0,79.25,79.25,79.25,79.25,0,0,0-79.25-79.25Z" transform="translate(886.34 919.55)"/><path class="cls-6" d="M3059.73,979.79a26.95,26.95,0,1,1-26.94,27,27,27,0,0,1,26.94-27Zm0-12.68a39.63,39.63,0,1,0,39.63,39.63,39.63,39.63,0,0,0-39.63-39.63Z" transform="translate(886.34 919.55)"/><path class="cls-9" d="M3259.9-723.09c-8.63,94,21.72,157,71.11,210.58s113.18,67.82,155.75,74.34c68,10.42,187.3-17.79,198.54-110.81,12.64-104.71-88-125.26-116.54-143.22-42.28-26.64-65.33-66.64-68.61-135.45s-77.34-77.53-116.45-60.85C3328.29-864.87,3268.52-817.07,3259.9-723.09Z" transform="translate(886.34 919.55)"/><path class="cls-5" d="M3382.47-767.57,3257-893a6.26,6.26,0,0,1,0-8.86h0a6.26,6.26,0,0,1,8.86,0l125.43,125.43a6.26,6.26,0,0,1,0,8.86h0A6.28,6.28,0,0,1,3382.47-767.57Z" transform="translate(886.34 919.55)"/><path class="cls-5" d="M3365.68-829.12l-47.09-47.09a6.26,6.26,0,0,1,0-8.86h0a6.26,6.26,0,0,1,8.86,0L3374.54-838a6.28,6.28,0,0,1,0,8.86h0A6.28,6.28,0,0,1,3365.68-829.12Z" transform="translate(886.34 919.55)"/><path class="cls-5" d="M3382.47-722.82,3212.29-893a6.26,6.26,0,0,1,0-8.86h0a6.26,6.26,0,0,1,8.86,0l170.18,170.18a6.26,6.26,0,0,1,0,8.86h0A6.26,6.26,0,0,1,3382.47-722.82Z" transform="translate(886.34 919.55)"/><path class="cls-5" d="M3373.13-687.41,3176.87-883.66a6.26,6.26,0,0,1,0-8.86h0a6.26,6.26,0,0,1,8.86,0L3382-696.27a6.26,6.26,0,0,1,0,8.86h0A6.26,6.26,0,0,1,3373.13-687.41Z" transform="translate(886.34 919.55)"/><path class="cls-5" d="M3357.81-658,3147.44-868.35a6.26,6.26,0,0,1,0-8.86h0a6.28,6.28,0,0,1,8.86,0l210.37,210.38a6.26,6.26,0,0,1,0,8.86h0A6.26,6.26,0,0,1,3357.81-658Z" transform="translate(886.34 919.55)"/><path class="cls-5" d="M3337.68-633.32l-214.9-214.9a6.28,6.28,0,0,1,0-8.86h0a6.28,6.28,0,0,1,8.86,0l214.91,214.9a6.28,6.28,0,0,1,0,8.86h0A6.27,6.27,0,0,1,3337.68-633.32Z" transform="translate(886.34 919.55)"/><path class="cls-5" d="M3313-613.19,3102.65-823.56a6.28,6.28,0,0,1,0-8.86h0a6.27,6.27,0,0,1,8.87,0L3321.89-622a6.26,6.26,0,0,1,0,8.86h0A6.26,6.26,0,0,1,3313-613.19Z" transform="translate(886.34 919.55)"/><path class="cls-5" d="M3283.59-597.87,3087.34-794.13a6.26,6.26,0,0,1,0-8.86h0a6.26,6.26,0,0,1,8.86,0l196.25,196.26a6.26,6.26,0,0,1,0,8.86h0A6.26,6.26,0,0,1,3283.59-597.87Z" transform="translate(886.34 919.55)"/><path class="cls-5" d="M3248.18-588.53,3078-758.71a6.26,6.26,0,0,1,0-8.86h0a6.26,6.26,0,0,1,8.86,0L3257-597.39a6.26,6.26,0,0,1,0,8.86h0A6.26,6.26,0,0,1,3248.18-588.53Z" transform="translate(886.34 919.55)"/><path class="cls-5" d="M3203.42-588.53,3078-714a6.26,6.26,0,0,1,0-8.86h0a6.26,6.26,0,0,1,8.86,0l125.43,125.43a6.28,6.28,0,0,1,0,8.86h0A6.27,6.27,0,0,1,3203.42-588.53Z" transform="translate(886.34 919.55)"/><path class="cls-5" d="M3141.88-605.32l-47.09-47.09a6.26,6.26,0,0,1,0-8.86h0a6.26,6.26,0,0,1,8.86,0l47.09,47.09a6.28,6.28,0,0,1,0,8.86h0A6.28,6.28,0,0,1,3141.88-605.32Z" transform="translate(886.34 919.55)"/></g><line class="cls-14" x1="1393.83" y1="1718.93" x2="1481.74" y2="1718.93"/><rect class="cls-15" x="1393.83" y="1717.03" width="87.91" height="3.81"/><polygon class="cls-15" points="1393.83 1718.93 1394.78 1731.82 1403.49 1743.59 1411.12 1744.31 1439.05 1747.03 1467.69 1744.98 1477.3 1738.33 1481.73 1725.65 1479.83 1718.93 1393.83 1718.93"/><path class="cls-15" d="M575.08,828.33H527.81a22.25,22.25,0,0,1-22.23-22.23V777.46a1.91,1.91,0,0,1,1.91-1.91H595.4a1.91,1.91,0,0,1,1.91,1.91V806.1A22.26,22.26,0,0,1,575.08,828.33Zm-65.68-49V806.1a18.43,18.43,0,0,0,18.41,18.42h47.27a18.43,18.43,0,0,0,18.41-18.42V779.37Z" transform="translate(886.34 919.55)"/><path class="cls-14" d="M566,800.51a15,15,0,1,0-15,15,15,15,0,0,0,15-15" transform="translate(886.34 919.55)"/><path class="cls-15" d="M551,817.45a16.94,16.94,0,1,1,16.94-16.94A17,17,0,0,1,551,817.45Zm0-30.06a13.13,13.13,0,1,0,13.12,13.12A13.14,13.14,0,0,0,551,787.39Z" transform="translate(886.34 919.55)"/><path class="cls-16" d="M529.9,798.87a6.49,6.49,0,1,0-6.49,6.49,6.49,6.49,0,0,0,6.49-6.49" transform="translate(886.34 919.55)"/><path class="cls-15" d="M523.41,807.26a8.4,8.4,0,1,1,8.4-8.39A8.4,8.4,0,0,1,523.41,807.26Zm0-13a4.58,4.58,0,1,0,4.58,4.58A4.58,4.58,0,0,0,523.41,794.29Z" transform="translate(886.34 919.55)"/><path class="cls-16" d="M584.88,798.87a6.49,6.49,0,1,0-6.49,6.49,6.48,6.48,0,0,0,6.49-6.49" transform="translate(886.34 919.55)"/><path class="cls-15" d="M578.39,807.26a8.4,8.4,0,1,1,8.4-8.39A8.4,8.4,0,0,1,578.39,807.26Zm0-13a4.58,4.58,0,1,0,4.58,4.58A4.59,4.59,0,0,0,578.39,794.29Z" transform="translate(886.34 919.55)"/><path class="cls-15" d="M476.92,808.35a4.89,4.89,0,0,1-3.48-1.46l-18.27-18.27-16.68-29,.23-18.12,43.18,43.19v18.7A5,5,0,0,1,476.92,808.35Zm-18.7-22.07,17.92,17.91a1.05,1.05,0,0,0,.78.34,1.14,1.14,0,0,0,1.16-1.14V786.27L442.42,750.6l-.1,8Z" transform="translate(886.34 919.55)"/><polygon class="cls-15" points="1352.79 1716.76 1352.79 1690.22 1329.77 1668.46 1328.99 1682.94 1352.79 1716.76"/><path class="cls-17" d="M430.76,757.84l26.9-7.13,2.76,10.39a11.44,11.44,0,0,1-8.12,14l-4.8,1.27a11.43,11.43,0,0,1-14-8.13Z" transform="translate(886.34 919.55)"/><path class="cls-15" d="M428.43,756.49,459,748.38l3.24,12.24a13.35,13.35,0,0,1-9.48,16.31L448,778.2a13.36,13.36,0,0,1-16.32-9.48Zm27.88-3.44L433.1,759.2l2.26,8.55A9.54,9.54,0,0,0,447,774.51l4.8-1.27a9.53,9.53,0,0,0,6.76-11.65Z" transform="translate(886.34 919.55)"/><rect class="cls-15" x="1385.47" y="1815.47" width="13.36" height="29.77"/><path class="cls-17" d="M491.53,922H478.12V843.13a8.22,8.22,0,0,1,8.23-8.23h8.2a8.22,8.22,0,0,1,8.22,8.23v67.61A11.24,11.24,0,0,1,491.53,922" transform="translate(886.34 919.55)"/><path class="cls-15" d="M491.53,923.89H476.22V843.13A10.14,10.14,0,0,1,486.35,833h8.2a10.14,10.14,0,0,1,10.13,10.13v67.61A13.17,13.17,0,0,1,491.53,923.89ZM480,920.07h11.5a9.34,9.34,0,0,0,9.34-9.33V843.13a6.33,6.33,0,0,0-6.32-6.32h-8.2a6.32,6.32,0,0,0-6.32,6.32Z" transform="translate(886.34 919.55)"/><path class="cls-17" d="M394.67,631.74l31.53-8.36a13.68,13.68,0,0,1,16.74,9.72l26.59,100.31a13.69,13.69,0,0,1-9.72,16.74l-31.54,8.36a13.7,13.7,0,0,1-16.74-9.73L384.94,648.47a13.69,13.69,0,0,1,9.73-16.73" transform="translate(886.34 919.55)"/><path class="cls-15" d="M394.18,629.89l31.53-8.36a15.62,15.62,0,0,1,19.07,11.08l26.59,100.31A15.61,15.61,0,0,1,460.3,752l-31.54,8.36a15.62,15.62,0,0,1-19.07-11.08L383.1,649A15.62,15.62,0,0,1,394.18,629.89ZM459.32,748.3a11.78,11.78,0,0,0,8.36-14.4L441.09,633.59a11.79,11.79,0,0,0-14.4-8.37l-31.54,8.36a11.79,11.79,0,0,0-8.36,14.4l26.59,100.31a11.78,11.78,0,0,0,14.4,8.37Z" transform="translate(886.34 919.55)"/><path class="cls-15" d="M394.18,629.89l31.53-8.36a15.62,15.62,0,0,1,19.07,11.08l7.43,28a15.6,15.6,0,0,1-11.08,19.07l-31.53,8.36A15.6,15.6,0,0,1,390.53,677l-7.43-28A15.62,15.62,0,0,1,394.18,629.89Zm46,46.12a11.79,11.79,0,0,0,8.36-14.4l-7.43-28a11.79,11.79,0,0,0-14.4-8.37l-31.54,8.36a11.79,11.79,0,0,0-8.36,14.4l7.43,28a11.79,11.79,0,0,0,14.4,8.37Z" transform="translate(886.34 919.55)"/><path class="cls-15" d="M461.53,703.23a1.9,1.9,0,0,1,2.14,2.8l-7.94,13.67a11.58,11.58,0,0,1-7.06,5.39l-22.85,6A11.5,11.5,0,0,1,417,730L403.32,722a1.91,1.91,0,1,1,1.91-3.3l13.71,7.94a7.71,7.71,0,0,0,5.9.78l22.85-6.05a7.75,7.75,0,0,0,4.74-3.62l7.94-13.66A1.87,1.87,0,0,1,461.53,703.23Z" transform="translate(886.34 919.55)"/><path class="cls-15" d="M456.82,685.47a1.91,1.91,0,0,1,2.14,2.81L451,701.94a11.51,11.51,0,0,1-7.06,5.39l-22.85,6.06a11.55,11.55,0,0,1-8.79-1.18l-13.71-7.93a1.91,1.91,0,1,1,1.91-3.31l13.72,7.94a7.73,7.73,0,0,0,5.89.79L443,703.64a7.72,7.72,0,0,0,4.74-3.62l7.94-13.66A1.93,1.93,0,0,1,456.82,685.47Z" transform="translate(886.34 919.55)"/><path class="cls-17" d="M435.05,694l4.81,18.14a4.76,4.76,0,0,1-3.38,5.82l-3.91,1a4.75,4.75,0,0,1-5.81-3.37L422,697.44" transform="translate(886.34 919.55)"/><path class="cls-15" d="M421.46,695.6a1.9,1.9,0,0,1,2.33,1.35l4.81,18.15a2.86,2.86,0,0,0,3.49,2l3.9-1a2.85,2.85,0,0,0,2-3.49l-4.81-18.14a1.91,1.91,0,1,1,3.69-1l4.81,18.14a6.67,6.67,0,0,1-4.73,8.15l-3.9,1a6.68,6.68,0,0,1-8.16-4.73l-4.81-18.15A1.91,1.91,0,0,1,421.46,695.6Z" transform="translate(886.34 919.55)"/><path class="cls-16" d="M422,697.44a6.78,6.78,0,1,0,4.81-8.29,6.77,6.77,0,0,0-4.81,8.29" transform="translate(886.34 919.55)"/><path class="cls-15" d="M426.27,687.31a8.68,8.68,0,1,1-6.17,10.62A8.69,8.69,0,0,1,426.27,687.31Zm3.48,13.1a4.87,4.87,0,1,0-6-3.46A4.87,4.87,0,0,0,429.75,700.41Z" transform="translate(886.34 919.55)"/><path class="cls-17" d="M437.61,613l4.82,18.15a4.77,4.77,0,0,1-3.38,5.82l-3.91,1a4.77,4.77,0,0,1-5.82-3.38l-4.81-18.15" transform="translate(886.34 919.55)"/><path class="cls-15" d="M424,614.65a1.91,1.91,0,0,1,2.33,1.36l4.81,18.14a2.85,2.85,0,0,0,3.48,2l3.9-1a2.84,2.84,0,0,0,2-3.48l-4.81-18.15a1.91,1.91,0,0,1,3.69-1l4.81,18.15a6.67,6.67,0,0,1-4.74,8.15l-3.9,1a6.67,6.67,0,0,1-8.15-4.73L422.67,617A1.91,1.91,0,0,1,424,614.65Z" transform="translate(886.34 919.55)"/><path class="cls-14" d="M424.51,616.49a6.78,6.78,0,1,0,4.82-8.28,6.78,6.78,0,0,0-4.82,8.28" transform="translate(886.34 919.55)"/><path class="cls-15" d="M428.84,606.37A8.68,8.68,0,1,1,422.67,617,8.69,8.69,0,0,1,428.84,606.37Zm3.47,13.09a4.87,4.87,0,1,0-5.95-3.45A4.86,4.86,0,0,0,432.31,619.46Z" transform="translate(886.34 919.55)"/><path class="cls-15" d="M405.19,659.06A13.14,13.14,0,1,0,414.53,643a13.14,13.14,0,0,0-9.34,16.07" transform="translate(886.34 919.55)"/><path class="cls-16" d="M414,641.15a15,15,0,1,1-10.69,18.4A15.06,15.06,0,0,1,414,641.15Zm6.73,25.41a11.24,11.24,0,1,0-13.74-8A11.25,11.25,0,0,0,420.77,666.56Z" transform="translate(886.34 919.55)"/><path class="cls-17" d="M392.72,624.92l4.81,18.15a4.76,4.76,0,0,1-3.38,5.82l-3.9,1a4.76,4.76,0,0,1-5.82-3.38l-4.81-18.14" transform="translate(886.34 919.55)"/><path class="cls-15" d="M379.13,626.55a1.91,1.91,0,0,1,2.33,1.36l4.81,18.14a2.87,2.87,0,0,0,3.49,2l3.9-1a2.85,2.85,0,0,0,2-3.48l-4.81-18.15a1.9,1.9,0,1,1,3.68-1l4.82,18.15a6.68,6.68,0,0,1-4.74,8.15l-3.9,1a6.68,6.68,0,0,1-8.15-4.74l-4.81-18.14A1.9,1.9,0,0,1,379.13,626.55Z" transform="translate(886.34 919.55)"/><path class="cls-14" d="M379.62,628.4a6.78,6.78,0,1,0,4.81-8.29,6.78,6.78,0,0,0-4.81,8.29" transform="translate(886.34 919.55)"/><path class="cls-15" d="M383.94,618.27a8.68,8.68,0,1,1-6.16,10.62A8.69,8.69,0,0,1,383.94,618.27Zm3.48,13.09a4.86,4.86,0,1,0-6-3.45A4.88,4.88,0,0,0,387.42,631.36Z" transform="translate(886.34 919.55)"/><path class="cls-17" d="M408.21,592.75,413,610.89a4.75,4.75,0,0,1-3.37,5.82l-3.91,1a4.76,4.76,0,0,1-5.82-3.38l-4.81-18.14" transform="translate(886.34 919.55)"/><path class="cls-15" d="M394.62,594.38a1.9,1.9,0,0,1,2.34,1.35l4.81,18.15a2.86,2.86,0,0,0,3.48,2l3.91-1a2.86,2.86,0,0,0,2-3.49l-4.81-18.15a1.91,1.91,0,0,1,3.69-1l4.81,18.14a6.67,6.67,0,0,1-4.73,8.15l-3.91,1a6.67,6.67,0,0,1-8.15-4.74l-4.81-18.14A1.91,1.91,0,0,1,394.62,594.38Z" transform="translate(886.34 919.55)"/><path class="cls-16" d="M395.11,596.22a6.78,6.78,0,1,0,4.82-8.29,6.77,6.77,0,0,0-4.82,8.29" transform="translate(886.34 919.55)"/><path class="cls-15" d="M399.44,586.09a8.68,8.68,0,1,1-6.17,10.62A8.69,8.69,0,0,1,399.44,586.09Zm3.47,13.1a4.87,4.87,0,1,0-6-3.46A4.87,4.87,0,0,0,402.91,599.19Z" transform="translate(886.34 919.55)"/><path class="cls-15" d="M407.21,615.38a1.91,1.91,0,0,1,2.33,1.36L417,645a1.91,1.91,0,1,1-3.69,1l-7.48-28.23A1.91,1.91,0,0,1,407.21,615.38Z" transform="translate(886.34 919.55)"/><path class="cls-15" d="M436.6,635.66a1.92,1.92,0,0,1,2.34,1.35l1.58,6a8.39,8.39,0,0,1-6,10.26l-16.18,4.29a1.91,1.91,0,0,1-1-3.69l16.19-4.29a4.58,4.58,0,0,0,3.25-5.59l-1.59-6A1.91,1.91,0,0,1,436.6,635.66Z" transform="translate(886.34 919.55)"/><path class="cls-15" d="M391.84,647.53a1.9,1.9,0,0,1,2.33,1.35l1.58,6a4.58,4.58,0,0,0,5.6,3.25l16.18-4.29a1.91,1.91,0,0,1,1,3.69l-16.19,4.29a8.41,8.41,0,0,1-10.26-6l-1.58-6A1.91,1.91,0,0,1,391.84,647.53Z" transform="translate(886.34 919.55)"/><path class="cls-15" d="M521.36,879H500.87V856.74h20.49Zm-16.68-3.82h12.87V860.55H504.68Z" transform="translate(886.34 919.55)"/><rect class="cls-15" x="1397.45" y="1778.19" width="8.34" height="18.44"/><path class="cls-15" d="M521.36,879H509.21V856.74h12.15ZM513,875.18h4.53V860.55H513Z" transform="translate(886.34 919.55)"/><path class="cls-15" d="M521.36,897.83H500.87V882.18h20.49ZM504.68,894h12.87v-8H504.68Z" transform="translate(886.34 919.55)"/><rect class="cls-15" x="1397.45" y="1803.63" width="8.34" height="11.83"/><path class="cls-15" d="M490.45,856.31a7.63,7.63,0,1,1,7.63-7.63A7.64,7.64,0,0,1,490.45,856.31Zm0-11.44a3.82,3.82,0,1,0,3.81,3.81A3.82,3.82,0,0,0,490.45,844.87Z" transform="translate(886.34 919.55)"/><rect class="cls-15" x="1364.46" y="1820.59" width="24.65" height="3.82"/><rect class="cls-15" x="1364.46" y="1827.56" width="24.65" height="3.82"/><rect class="cls-15" x="1374.88" y="1773.95" width="3.82" height="48.54"/><rect class="cls-15" x="431.03" y="754.53" width="27.92" height="5.72" transform="translate(707.15 1058.83) rotate(-14.84)"/><path class="cls-15" d="M444.43,769.14a3.42,3.42,0,1,0,2.43-4.17,3.43,3.43,0,0,0-2.43,4.17" transform="translate(886.34 919.55)"/><line class="cls-17" x1="1333.56" y1="1685.88" x2="1331.72" y2="1678.94"/><path class="cls-15" d="M444.89,757.55a1.91,1.91,0,0,1,2.34,1.35l1.84,6.94a1.91,1.91,0,0,1-3.69,1l-1.84-6.94A1.9,1.9,0,0,1,444.89,757.55Z" transform="translate(886.34 919.55)"/><line class="cls-17" x1="1330.21" y1="1672.53" x2="1323.12" y2="1645.81"/><path class="cls-15" d="M436.3,724.42a1.91,1.91,0,0,1,2.33,1.35l7.08,26.72a1.91,1.91,0,0,1-3.69,1l-7.08-26.72A1.91,1.91,0,0,1,436.3,724.42Z" transform="translate(886.34 919.55)"/><path class="cls-15" d="M491,805.87H478.08V788.48H491Zm-9.06-3.82h5.24V792.3H481.9Z" transform="translate(886.34 919.55)"/><rect class="cls-15" x="1370.86" y="1709.94" width="4.53" height="13.57"/><path class="cls-15" d="M514.51,852.07h-6.79a1.91,1.91,0,0,1,0-3.81h6.79a1.91,1.91,0,0,1,0,3.81Z" transform="translate(886.34 919.55)"/><path class="cls-15" d="M514.51,845.42h-6.79a1.91,1.91,0,0,1,0-3.81h6.79a1.91,1.91,0,0,1,0,3.81Z" transform="translate(886.34 919.55)"/><path class="cls-15" d="M514.51,838.77h-6.79a1.91,1.91,0,0,1,0-3.81h6.79a1.91,1.91,0,0,1,0,3.81Z" transform="translate(886.34 919.55)"/><path class="cls-15" d="M519.45,832.12H502.77a1.91,1.91,0,0,1,0-3.81h16.68a1.91,1.91,0,1,1,0,3.81Z" transform="translate(886.34 919.55)"/><path class="cls-15" d="M528.27,975.23H482.8a6,6,0,0,1-5.95-6v-5.9a6,6,0,0,1,5.95-6h45.47a6,6,0,0,1,6,6v5.9A6,6,0,0,1,528.27,975.23Zm-45.47-14a2.14,2.14,0,0,0-2.13,2.14v5.9a2.14,2.14,0,0,0,2.13,2.14h45.47a2.14,2.14,0,0,0,2.14-2.14v-5.9a2.14,2.14,0,0,0-2.14-2.14Z" transform="translate(886.34 919.55)"/><polyline class="cls-17" points="1398.09 1854.03 1398.09 1836.43 1386.53 1847.99 1386.53 1854.03"/><path class="cls-15" d="M513.66,934.48h-3.82v-13l-7.74,7.74v5.25h-3.81v-6a1.9,1.9,0,0,1,.56-1.35l11.55-11.55a1.91,1.91,0,0,1,3.26,1.35Z" transform="translate(886.34 919.55)"/><path class="cls-15" d="M520.09,951.28H490.23a1.91,1.91,0,1,1,0-3.81h29.86a1.91,1.91,0,1,1,0,3.81Z" transform="translate(886.34 919.55)"/><path class="cls-15" d="M513.28,944.66H497.16a4.55,4.55,0,0,1-4.54-4.55V937a4.55,4.55,0,0,1,4.54-4.54h16.12a4.55,4.55,0,0,1,4.55,4.54v3.15A4.55,4.55,0,0,1,513.28,944.66Zm-16.12-8.43a.73.73,0,0,0-.73.73v3.15a.73.73,0,0,0,.73.73h16.12a.73.73,0,0,0,.73-.73V937a.73.73,0,0,0-.73-.73Z" transform="translate(886.34 919.55)"/><path class="cls-15" d="M513.66,961.24H497.23v-20.4h16.43ZM501,957.43h8.8V944.66H501Z" transform="translate(886.34 919.55)"/><path class="cls-15" d="M511.75,954.46H499.13a1.91,1.91,0,0,1,0-3.82h12.62a1.91,1.91,0,0,1,0,3.82Z" transform="translate(886.34 919.55)"/><rect class="cls-15" x="1372.12" y="1892.87" width="13.35" height="5.29"/><path class="cls-15" d="M499.13,980.52H485.78a1.91,1.91,0,0,1-1.91-1.91v-5.28a1.91,1.91,0,0,1,1.91-1.91h13.35a1.9,1.9,0,0,1,1.91,1.91v5.28A1.9,1.9,0,0,1,499.13,980.52Zm-11.44-3.82h9.54v-1.47h-9.54Z" transform="translate(886.34 919.55)"/><rect class="cls-15" x="1400.99" y="1892.87" width="13.35" height="5.29"/><path class="cls-15" d="M528,980.52H514.65a1.9,1.9,0,0,1-1.9-1.91v-5.28a1.9,1.9,0,0,1,1.9-1.91H528a1.91,1.91,0,0,1,1.91,1.91v5.28A1.91,1.91,0,0,1,528,980.52Zm-11.45-3.82h9.54v-1.47h-9.54Z" transform="translate(886.34 919.55)"/><path class="cls-17" d="M507.28,910.21a1.81,1.81,0,1,0,0-3.62" transform="translate(886.34 919.55)"/><path class="cls-15" d="M521.87,976.82a1.91,1.91,0,0,1-1.91-1.9v-6.68H495.81a2.56,2.56,0,0,0-2.56,2.55v2.54a1.91,1.91,0,0,1-3.81,0v-2.54a6.37,6.37,0,0,1,6.37-6.37h28v10.5A1.91,1.91,0,0,1,521.87,976.82Z" transform="translate(886.34 919.55)"/><path class="cls-15" d="M521.36,923.89a1.92,1.92,0,0,1-1.91-1.91V834.9a1.91,1.91,0,0,1,3.82,0V922A1.91,1.91,0,0,1,521.36,923.89Z" transform="translate(886.34 919.55)"/><path class="cls-15" d="M529.92,914.18a1.9,1.9,0,0,1-1.91-1.9V843a1.91,1.91,0,1,1,3.81,0v69.32A1.9,1.9,0,0,1,529.92,914.18Z" transform="translate(886.34 919.55)"/><path class="cls-15" d="M627.42,808.35h0a5,5,0,0,1-5-5v-18.7l43.18-43.19.22,18.12-16.67,29L630.9,806.89A4.91,4.91,0,0,1,627.42,808.35Zm-1.17-22.08v17.12a1.14,1.14,0,0,0,1.17,1.14,1.05,1.05,0,0,0,.78-.34l17.92-17.91L662,758.62l-.1-8Z" transform="translate(886.34 919.55)"/><polygon class="cls-15" points="1524.22 1716.76 1524.22 1690.22 1547.24 1668.46 1548.02 1682.94 1524.22 1716.76"/><path class="cls-17" d="M666,775l-20.57-18.74-7.24,7.95a11.43,11.43,0,0,0,.75,16.15l3.67,3.34a11.42,11.42,0,0,0,16.15-.75Z" transform="translate(886.34 919.55)"/><path class="cls-15" d="M645.25,753.51l23.4,21.32-8.53,9.35a13.35,13.35,0,0,1-18.85.88l-3.66-3.34a13.36,13.36,0,0,1-.88-18.85Zm18,21.57L645.5,758.91l-6,6.53a9.54,9.54,0,0,0,.62,13.46l3.67,3.34a9.53,9.53,0,0,0,13.46-.63Z" transform="translate(886.34 919.55)"/><rect class="cls-15" x="1478.19" y="1815.47" width="13.36" height="29.77"/><path class="cls-17" d="M612.8,922h13.41V843.13A8.22,8.22,0,0,0,618,834.9h-8.21a8.22,8.22,0,0,0-8.22,8.23v67.61A11.24,11.24,0,0,0,612.8,922" transform="translate(886.34 919.55)"/><path class="cls-15" d="M628.12,923.89H612.8a13.17,13.17,0,0,1-13.15-13.15V843.13A10.14,10.14,0,0,1,609.78,833H618a10.14,10.14,0,0,1,10.13,10.13Zm-18.34-87.08a6.32,6.32,0,0,0-6.31,6.32v67.61a9.34,9.34,0,0,0,9.33,9.33h11.51V843.13a6.33,6.33,0,0,0-6.32-6.32Z" transform="translate(886.34 919.55)"/><path class="cls-17" d="M756.19,679.75l-24.12-22a13.68,13.68,0,0,0-19.33.9l-69.9,76.7a13.69,13.69,0,0,0,.9,19.34l24.12,22a13.68,13.68,0,0,0,19.33-.9l69.89-76.71a13.69,13.69,0,0,0-.89-19.33" transform="translate(886.34 919.55)"/><path class="cls-15" d="M733.36,656.37l24.11,22a15.6,15.6,0,0,1,1,22L688.6,777.08a15.62,15.62,0,0,1-22,1l-24.11-22a15.61,15.61,0,0,1-1-22l69.9-76.71A15.61,15.61,0,0,1,733.36,656.37ZM669.14,775.28a11.8,11.8,0,0,0,16.64-.77l69.89-76.71a11.79,11.79,0,0,0-.77-16.64l-24.11-22a11.79,11.79,0,0,0-16.64.77l-69.9,76.71a11.81,11.81,0,0,0,.77,16.64Z" transform="translate(886.34 919.55)"/><path class="cls-15" d="M733.36,656.37l24.11,22a15.6,15.6,0,0,1,1,22L739,721.8a15.62,15.62,0,0,1-22,1l-24.12-22a15.62,15.62,0,0,1-1-22l19.53-21.43A15.61,15.61,0,0,1,733.36,656.37ZM719.51,720a11.79,11.79,0,0,0,16.64-.77l19.52-21.43a11.79,11.79,0,0,0-.77-16.64l-24.11-22a11.79,11.79,0,0,0-16.64.77l-19.53,21.43a11.8,11.8,0,0,0,.77,16.64Z" transform="translate(886.34 919.55)"/><path class="cls-15" d="M663.87,712.3a1.9,1.9,0,0,1,.62,1.33l.74,15.78a7.7,7.7,0,0,0,2.53,5.4l17.47,15.92a7.76,7.76,0,0,0,5.6,2l15.83-.72a1.91,1.91,0,0,1,.17,3.82l-15.83.7a11.55,11.55,0,0,1-8.34-3l-17.47-15.92a11.56,11.56,0,0,1-3.78-8l-.73-15.79a1.91,1.91,0,0,1,3.19-1.5Z" transform="translate(886.34 919.55)"/><path class="cls-15" d="M676.24,698.73a1.86,1.86,0,0,1,.62,1.32l.74,15.78a7.7,7.7,0,0,0,2.53,5.4l17.47,15.92a7.78,7.78,0,0,0,5.6,2l15.83-.72a1.91,1.91,0,0,1,.17,3.82l-15.83.71a11.56,11.56,0,0,1-8.34-3l-17.47-15.92a11.51,11.51,0,0,1-3.77-8l-.74-15.79a1.9,1.9,0,0,1,3.19-1.49Z" transform="translate(886.34 919.55)"/><path class="cls-17" d="M691.64,716.31,679,730.19a4.77,4.77,0,0,0,.31,6.72l3,2.72a4.76,4.76,0,0,0,6.72-.31l12.65-13.88" transform="translate(886.34 919.55)"/><path class="cls-15" d="M692.92,714.9a1.91,1.91,0,0,1,.13,2.7L680.4,731.47a2.86,2.86,0,0,0,.19,4l3,2.72a2.85,2.85,0,0,0,4-.19l12.64-13.88a1.91,1.91,0,0,1,2.82,2.57L690.42,740.6A6.68,6.68,0,0,1,681,741l-3-2.72a6.68,6.68,0,0,1-.44-9.42L690.23,715A1.9,1.9,0,0,1,692.92,714.9Z" transform="translate(886.34 919.55)"/><path class="cls-16" d="M701.66,725.44a6.78,6.78,0,1,1-.45-9.57,6.78,6.78,0,0,1,.45,9.57" transform="translate(886.34 919.55)"/><path class="cls-15" d="M702.49,714.46a8.68,8.68,0,1,1-12.26.57A8.68,8.68,0,0,1,702.49,714.46Zm-9.12,10a4.86,4.86,0,1,0-.32-6.87A4.86,4.86,0,0,0,693.37,724.47Z" transform="translate(886.34 919.55)"/><path class="cls-15" d="M734.24,699.13a13.14,13.14,0,1,1-.87-18.56,13.14,13.14,0,0,1,.87,18.56" transform="translate(886.34 919.55)"/><path class="cls-16" d="M734.66,679.16a15,15,0,1,1-21.26,1A15.07,15.07,0,0,1,734.66,679.16ZM717,698.58a11.23,11.23,0,1,0-.74-15.87A11.24,11.24,0,0,0,717,698.58Z" transform="translate(886.34 919.55)"/><path class="cls-17" d="M750.09,664.61l-22.78,25a4.77,4.77,0,0,0,.31,6.73l3,2.72a4.75,4.75,0,0,0,6.72-.32l22.78-25" transform="translate(886.34 919.55)"/><path class="cls-15" d="M751.37,663.2a1.91,1.91,0,0,1,.13,2.7l-22.78,25a2.86,2.86,0,0,0,.19,4l3,2.72a2.86,2.86,0,0,0,4-.19l22.78-25a1.91,1.91,0,0,1,2.82,2.57l-22.78,25a6.69,6.69,0,0,1-9.42.44l-3-2.72a6.68,6.68,0,0,1-.44-9.42l22.78-25A1.91,1.91,0,0,1,751.37,663.2Z" transform="translate(886.34 919.55)"/><path class="cls-16" d="M760.11,673.74a6.78,6.78,0,1,1-.45-9.58,6.77,6.77,0,0,1,.45,9.58" transform="translate(886.34 919.55)"/><path class="cls-15" d="M761,662.76a8.68,8.68,0,1,1-12.27.56A8.69,8.69,0,0,1,761,662.76Zm-9.13,10a4.87,4.87,0,1,0-.32-6.87A4.87,4.87,0,0,0,751.82,672.77Z" transform="translate(886.34 919.55)"/><path class="cls-17" d="M720.92,669.4l8.46,7.71-11.26,12.36-5.07-4.62a4.61,4.61,0,0,1-.3-6.49Z" transform="translate(886.34 919.55)"/><path class="cls-15" d="M720.8,666.7,732.08,677l-13.83,15.18-6.48-5.9a6.52,6.52,0,0,1-.43-9.19Zm5.89,10.53-5.64-5.14-6.89,7.56a2.69,2.69,0,0,0,.18,3.79l3.65,3.33Z" transform="translate(886.34 919.55)"/><path class="cls-17" d="M735.31,651.14,722.66,665a4.76,4.76,0,0,0,.32,6.72l3,2.72a4.76,4.76,0,0,0,6.72-.31l12.65-13.88" transform="translate(886.34 919.55)"/><path class="cls-15" d="M736.59,649.73a1.91,1.91,0,0,1,.13,2.7L724.07,666.3a2.87,2.87,0,0,0,.19,4l3,2.72a2.85,2.85,0,0,0,4-.19L743.92,659a1.91,1.91,0,1,1,2.82,2.57l-12.65,13.87a6.66,6.66,0,0,1-9.41.44l-3-2.72a6.67,6.67,0,0,1-.44-9.41l12.65-13.88A1.9,1.9,0,0,1,736.59,649.73Z" transform="translate(886.34 919.55)"/><path class="cls-16" d="M745.33,660.27a6.78,6.78,0,1,1-.45-9.57,6.78,6.78,0,0,1,.45,9.57" transform="translate(886.34 919.55)"/><path class="cls-15" d="M746.17,649.29a8.69,8.69,0,1,1-12.27.57A8.7,8.7,0,0,1,746.17,649.29Zm-9.13,10a4.87,4.87,0,1,0-.32-6.88A4.89,4.89,0,0,0,737,659.31Z" transform="translate(886.34 919.55)"/><path class="cls-15" d="M603.47,879H583V856.74h20.5Zm-16.68-3.82h12.86V860.55H586.79Z" transform="translate(886.34 919.55)"/><rect class="cls-15" x="1471.22" y="1778.19" width="8.34" height="18.44"/><path class="cls-15" d="M595.13,879H583V856.74h12.16Zm-8.34-3.82h4.53V860.55h-4.53Z" transform="translate(886.34 919.55)"/><path class="cls-15" d="M603.47,897.83H583V882.18h20.5ZM586.79,894h12.86v-8H586.79Z" transform="translate(886.34 919.55)"/><rect class="cls-15" x="1471.22" y="1803.63" width="8.34" height="11.83"/><path class="cls-15" d="M613.89,856.31a7.63,7.63,0,1,1,7.63-7.63A7.64,7.64,0,0,1,613.89,856.31Zm0-11.44a3.82,3.82,0,1,0,3.81,3.81A3.82,3.82,0,0,0,613.89,844.87Z" transform="translate(886.34 919.55)"/><rect class="cls-15" x="1487.9" y="1820.59" width="24.65" height="3.82"/><rect class="cls-15" x="1487.9" y="1827.56" width="24.65" height="3.82"/><rect class="cls-15" x="1498.32" y="1773.95" width="3.82" height="48.54"/><rect class="cls-15" x="650.67" y="754.03" width="5.72" height="27.92" transform="translate(532.03 1653.34) rotate(-47.66)"/><path class="cls-15" d="M648.61,778.66a3.42,3.42,0,1,1-.23-4.82,3.41,3.41,0,0,1,.23,4.82" transform="translate(886.34 919.55)"/><line class="cls-17" x1="1533.77" y1="1694.43" x2="1538.61" y2="1689.12"/><path class="cls-15" d="M653.55,768.17a1.9,1.9,0,0,1,.13,2.69l-4.84,5.31A1.91,1.91,0,0,1,646,773.6l4.84-5.31A1.9,1.9,0,0,1,653.55,768.17Z" transform="translate(886.34 919.55)"/><line class="cls-17" x1="1542.91" y1="1684.13" x2="1561.52" y2="1663.7"/><path class="cls-15" d="M676.47,742.75a1.91,1.91,0,0,1,.13,2.69L658,765.87a1.91,1.91,0,1,1-2.82-2.57l18.62-20.43A1.9,1.9,0,0,1,676.47,742.75Z" transform="translate(886.34 919.55)"/><path class="cls-15" d="M626.25,805.87H613.38V788.48h12.87Zm-9-3.82h5.24V792.3H617.2Z" transform="translate(886.34 919.55)"/><rect class="cls-15" x="1501.63" y="1709.94" width="4.53" height="13.57"/><path class="cls-15" d="M596.61,852.07h-6.78a1.91,1.91,0,1,1,0-3.81h6.78a1.91,1.91,0,1,1,0,3.81Z" transform="translate(886.34 919.55)"/><path class="cls-15" d="M596.61,845.42h-6.78a1.91,1.91,0,1,1,0-3.81h6.78a1.91,1.91,0,1,1,0,3.81Z" transform="translate(886.34 919.55)"/><path class="cls-15" d="M596.61,838.77h-6.78a1.91,1.91,0,1,1,0-3.81h6.78a1.91,1.91,0,1,1,0,3.81Z" transform="translate(886.34 919.55)"/><path class="cls-15" d="M601.56,832.12H584.88a1.91,1.91,0,1,1,0-3.81h16.68a1.91,1.91,0,1,1,0,3.81Z" transform="translate(886.34 919.55)"/><path class="cls-15" d="M621.53,975.23H576.06a6,6,0,0,1-5.95-6v-5.9a6,6,0,0,1,5.95-6h45.47a6,6,0,0,1,6,6v5.9A6,6,0,0,1,621.53,975.23Zm-45.47-14a2.14,2.14,0,0,0-2.13,2.14v5.9a2.14,2.14,0,0,0,2.13,2.14h45.47a2.14,2.14,0,0,0,2.14-2.14v-5.9a2.14,2.14,0,0,0-2.14-2.14Z" transform="translate(886.34 919.55)"/><polyline class="cls-17" points="1478.92 1854.03 1478.92 1836.43 1490.48 1847.99 1490.48 1854.03"/><path class="cls-15" d="M606.05,934.48h-3.82v-5.25l-7.74-7.74v13h-3.81V916.89a1.92,1.92,0,0,1,1.18-1.77,1.9,1.9,0,0,1,2.07.42l11.56,11.55a1.9,1.9,0,0,1,.56,1.35Z" transform="translate(886.34 919.55)"/><path class="cls-15" d="M614.1,951.28H584.25a1.91,1.91,0,1,1,0-3.81H614.1a1.91,1.91,0,1,1,0,3.81Z" transform="translate(886.34 919.55)"/><path class="cls-15" d="M607.17,944.66H591.06a4.55,4.55,0,0,1-4.55-4.55V937a4.55,4.55,0,0,1,4.55-4.54h16.11a4.55,4.55,0,0,1,4.55,4.54v3.15A4.55,4.55,0,0,1,607.17,944.66Zm-16.11-8.43a.74.74,0,0,0-.74.73v3.15a.73.73,0,0,0,.74.73h16.11a.72.72,0,0,0,.73-.73V937a.73.73,0,0,0-.73-.73Z" transform="translate(886.34 919.55)"/><path class="cls-15" d="M607.11,961.24H590.68v-20.4h16.43Zm-12.61-3.81h8.79V944.66H594.5Z" transform="translate(886.34 919.55)"/><path class="cls-15" d="M605.2,954.46H592.59a1.91,1.91,0,0,1,0-3.82H605.2a1.91,1.91,0,0,1,0,3.82Z" transform="translate(886.34 919.55)"/><rect class="cls-15" x="1491.54" y="1892.87" width="13.35" height="5.29"/><path class="cls-15" d="M618.56,980.52H605.2a1.91,1.91,0,0,1-1.91-1.91v-5.28a1.91,1.91,0,0,1,1.91-1.91h13.36a1.91,1.91,0,0,1,1.91,1.91v5.28A1.91,1.91,0,0,1,618.56,980.52Zm-11.45-3.82h9.54v-1.47h-9.54Z" transform="translate(886.34 919.55)"/><rect class="cls-15" x="1462.67" y="1892.87" width="13.36" height="5.29"/><path class="cls-15" d="M589.68,980.52H576.33a1.9,1.9,0,0,1-1.91-1.91v-5.28a1.9,1.9,0,0,1,1.91-1.91h13.35a1.9,1.9,0,0,1,1.91,1.91v5.28A1.9,1.9,0,0,1,589.68,980.52Zm-11.44-3.82h9.53v-1.47h-9.53Z" transform="translate(886.34 919.55)"/><path class="cls-17" d="M597.06,910.21a1.81,1.81,0,1,1,0-3.62" transform="translate(886.34 919.55)"/><path class="cls-15" d="M582.47,976.82a1.9,1.9,0,0,1-1.91-1.9v-10.5h28a6.38,6.38,0,0,1,6.37,6.37v2.54a1.91,1.91,0,0,1-3.82,0v-2.54a2.55,2.55,0,0,0-2.55-2.55H584.37v6.68A1.9,1.9,0,0,1,582.47,976.82Z" transform="translate(886.34 919.55)"/><path class="cls-15" d="M583.88,923.89A1.91,1.91,0,0,1,582,922V834.9a1.91,1.91,0,0,1,3.82,0V922A1.92,1.92,0,0,1,583.88,923.89Z" transform="translate(886.34 919.55)"/><path class="cls-15" d="M575.32,914.18a1.9,1.9,0,0,1-1.9-1.9V843a1.91,1.91,0,1,1,3.81,0v69.32A1.9,1.9,0,0,1,575.32,914.18Z" transform="translate(886.34 919.55)"/><path class="cls-15" d="M575.32,914.18a1.9,1.9,0,0,1-1.9-1.9V843a1.91,1.91,0,1,1,3.81,0v69.32A1.9,1.9,0,0,1,575.32,914.18Z" transform="translate(886.34 919.55)"/><line class="cls-17" x1="1624.7" y1="1597.02" x2="1634.36" y2="1605.82"/><path class="cls-15" d="M739.65,676.07l9.66,8.8a1.91,1.91,0,0,1-2.58,2.82l-9.65-8.8a1.91,1.91,0,1,1,2.57-2.82Z" transform="translate(886.34 919.55)"/><line class="cls-17" x1="1619.19" y1="1603.08" x2="1628.84" y2="1611.88"/><path class="cls-15" d="M734.13,682.12l9.66,8.8a1.91,1.91,0,0,1-2.57,2.82l-9.66-8.8a1.91,1.91,0,0,1,2.57-2.82Z" transform="translate(886.34 919.55)"/><path class="cls-15" d="M516.92,822.19a4.43,4.43,0,1,0-4.43,4.43,4.43,4.43,0,0,0,4.43-4.43" transform="translate(886.34 919.55)"/><path class="cls-15" d="M594.76,822.19a4.44,4.44,0,1,0-4.44,4.43,4.43,4.43,0,0,0,4.44-4.43" transform="translate(886.34 919.55)"/><rect class="cls-15" x="1375.39" y="1711.93" width="19.01" height="10.84"/><rect class="cls-15" x="1481.74" y="1711.93" width="19.01" height="10.84"/><path class="cls-15" d="M575.08,839.81a1.91,1.91,0,0,1-1.91-1.9c0-6.49-9.47-12-20.67-12s-20.68,5.47-20.68,12a1.91,1.91,0,0,1-3.81,0c0-8.85,10.75-15.78,24.49-15.78S577,829.06,577,837.91A1.91,1.91,0,0,1,575.08,839.81Z" transform="translate(886.34 919.55)"/><path class="cls-17" d="M558.76,831a7.32,7.32,0,1,0-7.32,7.32,7.32,7.32,0,0,0,7.32-7.32" transform="translate(886.34 919.55)"/><path class="cls-17" d="M589.83,819.17a2.75,2.75,0,1,0-2.75,2.75,2.75,2.75,0,0,0,2.75-2.75" transform="translate(886.34 919.55)"/><path class="cls-17" d="M518,819.17a2.75,2.75,0,1,0-2.75,2.75,2.75,2.75,0,0,0,2.75-2.75" transform="translate(886.34 919.55)"/><path class="cls-15" d="M675.59,983.5H428.74a1.91,1.91,0,0,1,0-3.81H675.59a1.91,1.91,0,1,1,0,3.81Z" transform="translate(886.34 919.55)"/><path class="cls-14" d="M697.8,687.69a2.1,2.1,0,1,0,3-.14,2.1,2.1,0,0,0-3,.14" transform="translate(886.34 919.55)"/><path class="cls-14" d="M702,683.07a2.09,2.09,0,1,0,3-.14,2.08,2.08,0,0,0-3,.14" transform="translate(886.34 919.55)"/><path class="cls-15" d="M583,769.68H516.65V751.8H583Zm-62.54-3.82H579.2V755.61H520.47Z" transform="translate(886.34 919.55)"/><path class="cls-17" d="M537.32,711.59a3,3,0,1,0-3,3,3,3,0,0,0,3-3" transform="translate(886.34 919.55)"/><path class="cls-17" d="M569.2,711.59a3,3,0,1,0-3,3,3,3,0,0,0,3-3" transform="translate(886.34 919.55)"/><polygon class="cls-14" points="1402.87 1616.98 1464.19 1616.98 1469.38 1618.96 1465.47 1632.96 1406.73 1632.96 1402.87 1616.98"/><path class="cls-17" d="M570.83,730.7H528.69a8.3,8.3,0,0,1-8.3-8.3v-9h58.75v9a8.3,8.3,0,0,1-8.31,8.3" transform="translate(886.34 919.55)"/><path class="cls-15" d="M570.83,732.61H528.69a10.22,10.22,0,0,1-10.21-10.21V711.5h62.57v10.9A10.23,10.23,0,0,1,570.83,732.61ZM522.3,715.32v7.08a6.4,6.4,0,0,0,6.39,6.4h42.14a6.41,6.41,0,0,0,6.4-6.4v-7.08Z" transform="translate(886.34 919.55)"/><path class="cls-18" d="M539,697.43a26.18,26.18,0,0,1-9.68-40.63c4.8-5.82,35-6.12,39.81-.7A26.19,26.19,0,0,1,560,697.43" transform="translate(886.34 919.55)"/><path class="cls-15" d="M537.34,699.34a1.94,1.94,0,0,1-.84-.19A29.31,29.31,0,0,1,524.62,657a1.9,1.9,0,0,1,3.21,2.05,25.5,25.5,0,0,0,10.34,36.64,1.91,1.91,0,0,1-.83,3.62Z" transform="translate(886.34 919.55)"/><path class="cls-15" d="M561.55,699.2a1.93,1.93,0,0,1-1.71-1.05,1.91,1.91,0,0,1,.85-2.56,25.49,25.49,0,0,0,9.16-37.85,1.91,1.91,0,0,1,3.08-2.25A29.3,29.3,0,0,1,562.4,699,1.83,1.83,0,0,1,561.55,699.2Z" transform="translate(886.34 919.55)"/><path class="cls-15" d="M580.62,715.32H518.91l-10-39.54v-.24a40.9,40.9,0,0,1,81.8,0v.24l-.06.23Zm-58.75-3.82h55.78l9.2-36.19a37.09,37.09,0,0,0-74.17,0Z" transform="translate(886.34 919.55)"/><path class="cls-15" d="M510.77,676.89a1.92,1.92,0,0,1-1.91-1.91V637.87a1.91,1.91,0,1,1,3.82,0V675A1.91,1.91,0,0,1,510.77,676.89Z" transform="translate(886.34 919.55)"/><path class="cls-15" d="M588.75,676.89a1.91,1.91,0,0,1-1.9-1.91V627.39a1.91,1.91,0,0,1,3.81,0V675A1.91,1.91,0,0,1,588.75,676.89Z" transform="translate(886.34 919.55)"/><path class="cls-15" d="M513.81,693.56h-4a7.84,7.84,0,0,1-7.82-7.83v-15a7.83,7.83,0,0,1,7.82-7.83h1.71a1.91,1.91,0,0,1,0,3.82h-1.71a4,4,0,0,0-4,4v15a4,4,0,0,0,4,4h4a1.91,1.91,0,1,1,0,3.82Z" transform="translate(886.34 919.55)"/><path class="cls-15" d="M589.88,693.56h-4a1.91,1.91,0,0,1,0-3.82h4a4,4,0,0,0,4-4v-15a4,4,0,0,0-4-4h-1.7a1.91,1.91,0,1,1,0-3.82h1.7a7.84,7.84,0,0,1,7.83,7.83v15A7.84,7.84,0,0,1,589.88,693.56Z" transform="translate(886.34 919.55)"/><path class="cls-15" d="M511.19,670.93a1.9,1.9,0,0,1-1.36-3.24,56.39,56.39,0,0,1,79.38-1.7,1.91,1.91,0,0,1-2.62,2.78,52.55,52.55,0,0,0-74,1.59A1.92,1.92,0,0,1,511.19,670.93Z" transform="translate(886.34 919.55)"/><path class="cls-15" d="M583.05,699.34H516.53a1.91,1.91,0,1,1,0-3.82h66.52a1.91,1.91,0,0,1,0,3.82Z" transform="translate(886.34 919.55)"/><path class="cls-19" d="M563.45,664.77a6.83,6.83,0,1,1-6.83-6.83,6.83,6.83,0,0,1,6.83,6.83" transform="translate(886.34 919.55)"/><path class="cls-19" d="M568.33,675a2.77,2.77,0,1,1-2.76-2.76,2.76,2.76,0,0,1,2.76,2.76" transform="translate(886.34 919.55)"/><path class="cls-15" d="M573.35,709.87c-2.71,0-4.06-2-5-3.4s-1.2-1.69-1.77-1.69-.92.4-1.77,1.69-2.25,3.4-5,3.4-4.06-2-5-3.4-1.2-1.69-1.77-1.69-.92.4-1.78,1.69-2.24,3.4-5,3.4-4.06-2-5-3.4-1.21-1.69-1.77-1.69-.93.41-1.78,1.69-2.25,3.4-5,3.4-4.06-2-5-3.4-1.21-1.69-1.77-1.69a1.91,1.91,0,1,1,0-3.81c2.71,0,4.06,2,5,3.4s1.2,1.69,1.77,1.69.93-.4,1.78-1.69,2.25-3.4,5-3.4,4.06,2,4.95,3.4,1.21,1.69,1.78,1.69.92-.4,1.77-1.69,2.25-3.4,5-3.4,4.06,2,5,3.4,1.21,1.69,1.77,1.69.92-.4,1.77-1.69,2.25-3.4,5-3.4,4.06,2,5,3.4,1.21,1.69,1.78,1.69a1.91,1.91,0,1,1,0,3.81Z" transform="translate(886.34 919.55)"/><line class="cls-17" x1="1408.26" y1="1666.85" x2="1462.03" y2="1666.85"/><path class="cls-14" d="M575.69,749.21H521.92a1.91,1.91,0,0,1,0-3.81h53.77a1.91,1.91,0,1,1,0,3.81Z" transform="translate(886.34 919.55)"/><line class="cls-17" x1="1413.27" y1="1658.32" x2="1459.07" y2="1658.32"/><path class="cls-14" d="M572.73,740.68H526.94a1.91,1.91,0,0,1,0-3.82h45.79a1.91,1.91,0,0,1,0,3.82Z" transform="translate(886.34 919.55)"/><rect class="cls-15" x="1416.24" y="1687.32" width="42" height="9.69"/><path class="cls-14" d="M475.8,749.15a1.91,1.91,0,0,1-1.35-.56L461.82,736H457a1.91,1.91,0,0,1-1.91-1.91v-3.11h-4.11A1.9,1.9,0,0,1,449,729v-5.5l-5.79-5.79a1.91,1.91,0,0,1,2.7-2.7l6.35,6.35a1.93,1.93,0,0,1,.55,1.35v4.39H457a1.9,1.9,0,0,1,1.9,1.9v3.11h3.75a1.88,1.88,0,0,1,1.34.56l13.2,13.19a1.92,1.92,0,0,1,0,2.7A1.94,1.94,0,0,1,475.8,749.15Z" transform="translate(886.34 919.55)"/><path class="cls-15" d="M447.69,721.4a1.91,1.91,0,0,1-1.35-.56l-3.1-3.1a1.91,1.91,0,0,1,2.7-2.7l3.1,3.1a1.91,1.91,0,0,1-1.35,3.26Z" transform="translate(886.34 919.55)"/><path class="cls-15" d="M475.8,749.15a1.91,1.91,0,0,1-1.35-.56l-8.85-8.85a1.91,1.91,0,0,1,2.7-2.69l8.85,8.84a1.92,1.92,0,0,1,0,2.7A1.94,1.94,0,0,1,475.8,749.15Z" transform="translate(886.34 919.55)"/><path class="cls-14" d="M500.2,751.57a1.87,1.87,0,0,1-1.35-.56,1.92,1.92,0,0,1,0-2.7l4.95-4.94a1.91,1.91,0,0,1,2.69,2.7L501.55,751A1.87,1.87,0,0,1,500.2,751.57Z" transform="translate(886.34 919.55)"/><path class="cls-15" d="M505.69,791.74l-31.24-31a10.53,10.53,0,0,1,0-14.87L484.3,736a10.5,10.5,0,0,1,14.86,0l20.05,20-2.7,2.7-20-20a6.7,6.7,0,0,0-9.47,0l-9.85,9.85a6.69,6.69,0,0,0,0,9.47l31.23,31Z" transform="translate(886.34 919.55)"/><path class="cls-15" d="M499.38,758.52a7,7,0,0,1-5-2.06l-1-1a7,7,0,0,1,0-9.94L501,737.9l11,10.94-7.62,7.62A7,7,0,0,1,499.38,758.52ZM501,743.29l-4.92,4.93a3.21,3.21,0,0,0,0,4.54l1,1a3.22,3.22,0,0,0,4.55,0l4.92-4.92Z" transform="translate(886.34 919.55)"/><path class="cls-14" d="M495.42,762.69a2.86,2.86,0,1,0,0,4,2.85,2.85,0,0,0,0-4" transform="translate(886.34 919.55)"/><path class="cls-14" d="M489.43,756.69a2.86,2.86,0,1,0,0,4,2.86,2.86,0,0,0,0-4" transform="translate(886.34 919.55)"/><path class="cls-14" d="M483.59,750.85a2.86,2.86,0,1,0,0,4,2.86,2.86,0,0,0,0-4" transform="translate(886.34 919.55)"/><path class="cls-15" d="M481.35,743.59A1.91,1.91,0,0,1,480,743l-14.91-14.91a1.91,1.91,0,0,1,2.7-2.7l14.91,14.91a1.91,1.91,0,0,1-1.35,3.26Z" transform="translate(886.34 919.55)"/><path class="cls-15" d="M597.15,785.56l-2.7-2.7,21.15-21.19a9.33,9.33,0,1,0-13.19-13.19l-19.66,19.66-2.7-2.7,19.66-19.66a13.15,13.15,0,0,1,18.59,18.59Z" transform="translate(886.34 919.55)"/><path class="cls-15" d="M617.29,748.81a1.91,1.91,0,0,1-1.35-3.26l14.84-14.84a1.91,1.91,0,1,1,2.69,2.7l-14.83,14.84A1.94,1.94,0,0,1,617.29,748.81Z" transform="translate(886.34 919.55)"/><path class="cls-15" d="M631.11,749.15a1.9,1.9,0,0,1-1.35-.56L617,735.78a1.91,1.91,0,0,1,2.7-2.7l12.81,12.82a1.89,1.89,0,0,1,0,2.69A1.87,1.87,0,0,1,631.11,749.15Z" transform="translate(886.34 919.55)"/><path class="cls-14" d="M624.35,742.38a1.9,1.9,0,0,1-1.35-.55l-6-6.05a1.91,1.91,0,0,1,2.7-2.7l6.05,6a1.9,1.9,0,0,1-1.35,3.25Z" transform="translate(886.34 919.55)"/><path class="cls-15" d="M636.27,744a1.91,1.91,0,0,1-1.35-.56L622.1,730.62a1.91,1.91,0,0,1,2.7-2.69l12.82,12.81a1.92,1.92,0,0,1,0,2.7A1.94,1.94,0,0,1,636.27,744Z" transform="translate(886.34 919.55)"/><path class="cls-14" d="M628.8,736.53a1.91,1.91,0,0,1-1.35-.56l-6.16-6.16a1.91,1.91,0,0,1,2.7-2.7l6.16,6.16a1.91,1.91,0,0,1-1.35,3.26Z" transform="translate(886.34 919.55)"/><path class="cls-15" d="M640.75,734.59a12,12,0,0,1-8.45-20.4,1.9,1.9,0,0,1,2.7,0l14.2,14.2a1.91,1.91,0,0,1,0,2.7A11.91,11.91,0,0,1,640.75,734.59Zm-7-16.2a8.14,8.14,0,0,0,7,12.38,8,8,0,0,0,4.24-1.19Z" transform="translate(886.34 919.55)"/><path class="cls-15" d="M640.5,724.3a1.91,1.91,0,0,1-1.35-3.26l12.05-12a1.91,1.91,0,0,1,2.7,2.69l-12,12.06A1.91,1.91,0,0,1,640.5,724.3Z" transform="translate(886.34 919.55)"/><path class="cls-14" d="M655.57,710.34a3,3,0,1,0-3,3,3,3,0,0,0,3-3" transform="translate(886.34 919.55)"/><path class="cls-14" d="M602.34,760.21A1.91,1.91,0,0,1,601,757l7.59-7.59a1.91,1.91,0,0,1,2.7,2.7l-7.59,7.59A1.91,1.91,0,0,1,602.34,760.21Z" transform="translate(886.34 919.55)"/><path class="cls-15" d="M605.37,775.75h-3.81V767a1.9,1.9,0,0,1,.56-1.35l8.41-8.41a1.9,1.9,0,0,1,2.7,0l3.59,3.58-2.7,2.7-2.24-2.24-6.51,6.51Z" transform="translate(886.34 919.55)"/><path class="cls-16" d="M757.9,593.09c0,6.24-2.66,11.3-5.95,11.3s-5.94-5.06-5.94-11.3,2.66-11.31,5.94-11.31S757.9,586.85,757.9,593.09Z" transform="translate(886.34 919.55)"/><path class="cls-16" d="M778.51,555.55c0,6.24-2.67,11.3-6,11.3s-5.94-5.06-5.94-11.3,2.66-11.3,5.94-11.3S778.51,549.31,778.51,555.55Z" transform="translate(886.34 919.55)"/><path class="cls-16" d="M679.81,549.61c6.24,0,11.31,2.66,11.31,5.94s-5.07,5.94-11.31,5.94-11.3-2.66-11.3-5.94S673.57,549.61,679.81,549.61Z" transform="translate(886.34 919.55)"/><path class="cls-16" d="M779.42,647.33c0,6.24-2.66,11.31-5.94,11.31s-5.94-5.07-5.94-11.31,2.66-11.3,5.94-11.3S779.42,641.09,779.42,647.33Z" transform="translate(886.34 919.55)"/><path class="cls-16" d="M456.69,549.14c0,6.24-2.66,11.3-5.94,11.3s-5.94-5.06-5.94-11.3,2.66-11.3,5.94-11.3S456.69,542.9,456.69,549.14Z" transform="translate(886.34 919.55)"/><path class="cls-16" d="M403.12,552.8c0,6.25-2.66,11.31-5.94,11.31s-5.94-5.06-5.94-11.31,2.66-11.3,5.94-11.3S403.12,546.56,403.12,552.8Z" transform="translate(886.34 919.55)"/><path class="cls-16" d="M380.91,596.25c0,6.24-2.66,11.3-5.94,11.3s-5.94-5.06-5.94-11.3S371.69,585,375,585,380.91,590,380.91,596.25Z" transform="translate(886.34 919.55)"/></svg>