<svg id="Layer_1" data-name="Layer 1" xmlns="http://www.w3.org/2000/svg" xmlns:xlink="http://www.w3.org/1999/xlink" viewBox="0 0 4327.73 1863.14"><defs><style>.cls-1,.cls-14{fill:none;}.cls-2{fill:#0e0133;}.cls-3{fill:#3b1882;}.cls-4{clip-path:url(#clip-path);}.cls-5{fill:#9664ff;}.cls-11,.cls-6,.cls-7{fill:#4b00eb;}.cls-7{opacity:0.75;}.cls-10,.cls-11,.cls-7,.cls-8{isolation:isolate;}.cls-10,.cls-8{fill:#aa6c83;}.cls-8{opacity:0.9;}.cls-9{fill:#ffcd55;}.cls-10,.cls-11{opacity:0.5;}.cls-12{fill:#34a186;}.cls-13{fill:#5ea996;}.cls-14,.cls-15,.cls-16,.cls-17,.cls-18,.cls-19,.cls-20,.cls-21,.cls-22{stroke:#231f20;stroke-width:0.1px;}.cls-14,.cls-15,.cls-16,.cls-17,.cls-18,.cls-21,.cls-22{stroke-miterlimit:10;}.cls-15,.cls-19,.cls-20{fill:#15003e;}.cls-16{fill:#25e899;}.cls-17{fill:#ffce08;}.cls-18{fill:#eff4ee;}.cls-19{stroke-miterlimit:10;}.cls-20{stroke-miterlimit:10;}.cls-21{fill:#0fce7c;}.cls-22{fill:#fff;}</style><clipPath id="clip-path" transform="translate(839 640.25)"><rect class="cls-1" x="-0.15" y="3.08" width="3000.15" height="1108.92"/></clipPath></defs><rect class="cls-2" x="838.85" y="643.33" width="3000.15" height="1108.92"/><path class="cls-3" d="M1874.85,1112H-.15V3.08h552.8c-2.54,66.54,45.58,143.72,169.78,197.75C931.79,291.91,925,400.7,827.11,479.12S695.4,714.38,918.25,800.42s361.31-12.66,648.3,40.47C1791.93,882.61,1877.79,983.59,1874.85,1112Z" transform="translate(839 640.25)"/><path class="cls-3" d="M2328.37,3.08c65,105.3,41.17,172.17-43.32,254.7S2269.9,484,2480,468.37s327.17-65.45,340.17,78.26S2980.5,670.43,3000,663.31V3.08Z" transform="translate(839 640.25)"/><g class="cls-4"><path class="cls-5" d="M337.53,1196.43h0a3.67,3.67,0,0,1,0-6.25l72-53.17a7.58,7.58,0,0,1,8.46,0h0a3.66,3.66,0,0,1,0,6.25h0l-72,53.17A7.56,7.56,0,0,1,337.53,1196.43Z" transform="translate(839 640.25)"/><path class="cls-5" d="M266.79,1217.4h0a3.66,3.66,0,0,1,0-6.24h0l184-135.73v-.06l1.89-1.35,2.39,1.85a7.08,7.08,0,0,0,4.28,1.4h3.41v1.82L275.26,1217.4a7.54,7.54,0,0,1-8.46,0Z" transform="translate(839 640.25)"/><path class="cls-5" d="M218.77,1221.6h0a3.67,3.67,0,0,1,0-6.25h0l245-180.84a7.54,7.54,0,0,1,8.46,0h0a3.65,3.65,0,0,1,0,6.23l0,0-245,180.84a7.56,7.56,0,0,1-8.46,0Z" transform="translate(839 640.25)"/><path class="cls-5" d="M178.42,1220.12h0a3.66,3.66,0,0,1,0-6.25h0L470.13,998.55a7.58,7.58,0,0,1,8.46,0h0a3.66,3.66,0,0,1,0,6.25h0L186.88,1220.12A7.58,7.58,0,0,1,178.42,1220.12Z" transform="translate(839 640.25)"/><path class="cls-5" d="M142.59,1215.3h0a3.65,3.65,0,0,1,0-6.24h0L470.85,966.76a7.58,7.58,0,0,1,8.46,0h0a3.65,3.65,0,0,1,0,6.24h0L151.05,1215.3A7.58,7.58,0,0,1,142.59,1215.3Z" transform="translate(839 640.25)"/><path class="cls-5" d="M110,1208.14h0a3.66,3.66,0,0,1,0-6.24h0l357.75-264a7.58,7.58,0,0,1,8.46,0h0a3.66,3.66,0,0,1,0,6.25h0l-357.75,264A7.58,7.58,0,0,1,110,1208.14Z" transform="translate(839 640.25)"/><path class="cls-5" d="M79.87,1199.1h0a3.65,3.65,0,0,1,0-6.24h0L461.48,911.21a7.58,7.58,0,0,1,8.46,0h0a3.65,3.65,0,0,1,0,6.24h0L88.33,1199.1a7.56,7.56,0,0,1-8.46,0Z" transform="translate(839 640.25)"/><path class="cls-5" d="M51.9,1188.48h0a3.67,3.67,0,0,1,0-6.26h0L453,886.21a7.58,7.58,0,0,1,8.46,0h0a3.67,3.67,0,0,1,0,6.25h0l-401,296a7.57,7.57,0,0,1-8.49,0Z" transform="translate(839 640.25)"/><path class="cls-5" d="M26,1176.37h0a3.66,3.66,0,0,1,0-6.25h0L442.54,862.66a7.54,7.54,0,0,1,8.46,0h0a3.66,3.66,0,0,1,0,6.24h0L34.44,1176.37a7.58,7.58,0,0,1-8.46,0Z" transform="translate(839 640.25)"/><path class="cls-5" d="M1.85,1163h0a3.66,3.66,0,0,1,0-6.24h0L430.41,840.39a7.54,7.54,0,0,1,8.46,0h0a3.65,3.65,0,0,1,0,6.24h0L10.31,1163a7.55,7.55,0,0,1-8.45,0Z" transform="translate(839 640.25)"/><path class="cls-5" d="M-20.45,1148.17h0a3.65,3.65,0,0,1,0-6.24h0L416.79,819.18a7.56,7.56,0,0,1,8.46,0h0a3.66,3.66,0,0,1,0,6.24L-12,1148.17a7.54,7.54,0,0,1-8.46,0Z" transform="translate(839 640.25)"/><path class="cls-5" d="M-41.38,1132.37h0a3.66,3.66,0,0,1,0-6.24h0L402,798.89a7.56,7.56,0,0,1,8.47,0h0a3.66,3.66,0,0,1,0,6.25h0L-32.92,1132.37a7.54,7.54,0,0,1-8.46,0Z" transform="translate(839 640.25)"/><path class="cls-5" d="M-62.62,1116.84h0a3.66,3.66,0,0,1,0-6.24h0L386,779.47a7.54,7.54,0,0,1,8.46,0h0a3.66,3.66,0,0,1,0,6.24h0L-54.16,1116.84A7.58,7.58,0,0,1-62.62,1116.84Z" transform="translate(839 640.25)"/><path class="cls-5" d="M-84.73,1101.83h0a3.66,3.66,0,0,1,0-6.24h0l453.5-334.73a7.58,7.58,0,0,1,8.46,0h0a3.65,3.65,0,0,1,0,6.24h0L-76.26,1101.83a7.56,7.56,0,0,1-8.46,0Z" transform="translate(839 640.25)"/><path class="cls-5" d="M-107.71,1087.56h0a3.65,3.65,0,0,1,0-6.24h0L350.6,743a7.58,7.58,0,0,1,8.46,0h0a3.67,3.67,0,0,1,0,6.25h0L-99.25,1087.56a7.54,7.54,0,0,1-8.46,0Z" transform="translate(839 640.25)"/><path class="cls-5" d="M-132,1074.25h0a3.66,3.66,0,0,1,0-6.24h0L331.41,726a7.58,7.58,0,0,1,8.46,0h0a3.66,3.66,0,0,1,0,6.24h0l-463.44,342a7.56,7.56,0,0,1-8.46,0Z" transform="translate(839 640.25)"/><path class="cls-5" d="M-158,1062.17h0a3.66,3.66,0,0,1,0-6.24h0l469.2-346.28a7.58,7.58,0,0,1,8.46,0h0a3.66,3.66,0,0,1,0,6.24h0l-469.15,346.28a7.58,7.58,0,0,1-8.46,0Z" transform="translate(839 640.25)"/><path class="cls-5" d="M-186.06,1051.66h0a3.67,3.67,0,0,1,0-6.26h0L289.85,694.13a7.6,7.6,0,0,1,8.47,0h0a3.67,3.67,0,0,1,0,6.25L-177.6,1051.66A7.58,7.58,0,0,1-186.06,1051.66Z" transform="translate(839 640.25)"/><path class="cls-5" d="M-216.78,1043.08h0a3.66,3.66,0,0,1,0-6.24h0L267.28,679.57a7.54,7.54,0,0,1,8.46,0h0a3.66,3.66,0,0,1,0,6.24h0l-484.06,357.26a7.54,7.54,0,0,1-8.46,0Z" transform="translate(839 640.25)"/><path class="cls-5" d="M-250.66,1036.85h0a3.66,3.66,0,0,1,0-6.25h0L243.3,666a7.56,7.56,0,0,1,8.46,0h0a3.66,3.66,0,0,1,0,6.24h0l-494,364.6A7.58,7.58,0,0,1-250.66,1036.85Z" transform="translate(839 640.25)"/><path class="cls-5" d="M-288.21,1033.31h0a3.66,3.66,0,0,1,0-6.24h0L218.21,653.28a7.54,7.54,0,0,1,8.46,0h0a3.66,3.66,0,0,1,0,6.24h0l-506.42,373.78a7.54,7.54,0,0,1-8.46,0Z" transform="translate(839 640.25)"/><path class="cls-5" d="M-329.9,1032.85h0a3.65,3.65,0,0,1,0-6.24h0l522-385.28a7.54,7.54,0,0,1,8.46,0h0a3.66,3.66,0,0,1,0,6.25h0l-522,385.28A7.58,7.58,0,0,1-329.9,1032.85Z" transform="translate(839 640.25)"/><path class="cls-5" d="M-376,1035.61h0a3.65,3.65,0,0,1,0-6.24h0L165,630a7.54,7.54,0,0,1,8.46,0h0a3.66,3.66,0,0,1,0,6.24h0l-541,399.33a7.56,7.56,0,0,1-8.46,0Z" transform="translate(839 640.25)"/><path class="cls-5" d="M-426.64,1041.71h0a3.66,3.66,0,0,1,0-6.25h0L137,619.46a7.56,7.56,0,0,1,8.47,0h0a3.65,3.65,0,0,1,0,6.24h0l-563.67,416a7.54,7.54,0,0,1-8.46,0Z" transform="translate(839 640.25)"/><path class="cls-5" d="M-480.88,1050.5h0a3.66,3.66,0,0,1,0-6.24h0l589-434.73a7.58,7.58,0,0,1,8.46,0h0a3.66,3.66,0,0,1,0,6.25h0l-589,434.73a7.54,7.54,0,0,1-8.46,0Z" transform="translate(839 640.25)"/><path class="cls-5" d="M-530.88,1056.16h0a3.66,3.66,0,0,1,0-6.24h0L78.23,600.33a7.58,7.58,0,0,1,8.46,0h0a3.66,3.66,0,0,1,0,6.24h0l-609.11,449.58a7.54,7.54,0,0,1-8.46,0Z" transform="translate(839 640.25)"/><path class="cls-5" d="M-575.18,1057.62h0a3.67,3.67,0,0,1,0-6.25h0L47.37,591.87a7.54,7.54,0,0,1,8.46,0h0a3.67,3.67,0,0,1,0,6.25h0l-622.55,459.5A7.56,7.56,0,0,1-575.18,1057.62Z" transform="translate(839 640.25)"/><path class="cls-5" d="M-614.94,1055.72h0a3.66,3.66,0,0,1,0-6.24h0L15.48,584.16a7.54,7.54,0,0,1,8.46,0h0a3.65,3.65,0,0,1,0,6.24h0l-630.42,465.31A7.56,7.56,0,0,1-614.94,1055.72Z" transform="translate(839 640.25)"/><path class="cls-5" d="M-650.83,1051h0a3.66,3.66,0,0,1,0-6.24h0L-17.6,577.33a7.56,7.56,0,0,1,8.47,0h0a3.66,3.66,0,0,1,0,6.24h0L-642.37,1051A7.56,7.56,0,0,1-650.83,1051Z" transform="translate(839 640.25)"/><path class="cls-5" d="M-683.35,1043.72h0a3.66,3.66,0,0,1,0-6.24h0L-51.87,571.39a7.53,7.53,0,0,1,8.45,0h0a3.66,3.66,0,0,1,0,6.24h0l-631.47,466.09a7.54,7.54,0,0,1-8.46,0Z" transform="translate(839 640.25)"/><path class="cls-5" d="M-712.81,1034.24h0a3.66,3.66,0,0,1,0-6.24L-87.47,566.41a7.58,7.58,0,0,1,8.46,0h0a3.66,3.66,0,0,1,0,6.24h0l-625.36,461.59A7.57,7.57,0,0,1-712.81,1034.24Z" transform="translate(839 640.25)"/><path class="cls-5" d="M-739.41,1022.61h0a3.65,3.65,0,0,1,0-6.23h0l614.82-453.8a7.54,7.54,0,0,1,8.46,0h0a3.65,3.65,0,0,1,0,6.24h0l-614.82,453.8A7.56,7.56,0,0,1-739.41,1022.61Z" transform="translate(839 640.25)"/><path class="cls-5" d="M-763.34,1009h0a3.67,3.67,0,0,1,0-6.25h0L-163.48,560a7.58,7.58,0,0,1,8.46,0h0a3.65,3.65,0,0,1,0,6.23h0L-754.88,1009a7.58,7.58,0,0,1-8.46,0Z" transform="translate(839 640.25)"/><path class="cls-5" d="M-784.44,993.32h0a3.66,3.66,0,0,1,0-6.25h0l580.15-428.23a7.56,7.56,0,0,1,8.46,0h0a3.65,3.65,0,0,1,0,6.24L-776,993.32A7.58,7.58,0,0,1-784.44,993.32Z" transform="translate(839 640.25)"/><path class="cls-5" d="M-802.72,975.57h0a3.66,3.66,0,0,1,0-6.24h0l555.48-410a7.6,7.6,0,0,1,8.47,0h0a3.66,3.66,0,0,1,0,6.24h0l-555.49,410A7.54,7.54,0,0,1-802.72,975.57Z" transform="translate(839 640.25)"/><path class="cls-5" d="M-817.86,955.51h0a3.66,3.66,0,0,1,0-6.24h0L-293,561.84a7.58,7.58,0,0,1,8.46,0h0a3.66,3.66,0,0,1,0,6.25h0L-809.4,955.51A7.58,7.58,0,0,1-817.86,955.51Z" transform="translate(839 640.25)"/><path class="cls-5" d="M-829.35,932.73h0a3.66,3.66,0,0,1,0-6.24L-342,566.79a7.54,7.54,0,0,1,8.46,0h0a3.65,3.65,0,0,1,0,6.23l0,0L-820.89,932.73A7.58,7.58,0,0,1-829.35,932.73Z" transform="translate(839 640.25)"/><path class="cls-5" d="M-836.15,906.5h0a3.66,3.66,0,0,1,0-6.24l440.8-325.33a7.54,7.54,0,0,1,8.46,0h0a3.66,3.66,0,0,1,0,6.24h0L-827.69,906.5A7.58,7.58,0,0,1-836.15,906.5Z" transform="translate(839 640.25)"/><path class="cls-5" d="M-837.25,876.08h0a3.67,3.67,0,0,1,0-6.25l382.86-282.6a7.58,7.58,0,0,1,8.46,0h0a3.65,3.65,0,0,1,0,6.24h0L-828.8,876.07A7.58,7.58,0,0,1-837.25,876.08Z" transform="translate(839 640.25)"/><path class="cls-5" d="M-830,839.51h0a3.66,3.66,0,0,1,0-6.25h0L-521.71,605.7a7.58,7.58,0,0,1,8.46,0h0a3.66,3.66,0,0,1,0,6.25h0L-821.57,839.51A7.58,7.58,0,0,1-830,839.51Z" transform="translate(839 640.25)"/><path class="cls-5" d="M-806,790.56h0a3.65,3.65,0,0,1,0-6.23l0,0,202.74-149.64a7.58,7.58,0,0,1,8.46,0h0a3.67,3.67,0,0,1,0,6.25L-797.59,790.56a7.54,7.54,0,0,1-8.46,0Z" transform="translate(839 640.25)"/><path class="cls-5" d="M-771.76,734h0a3.67,3.67,0,0,1,0-6.25h0l102.49-75.62a7.58,7.58,0,0,1,8.46,0h0a3.65,3.65,0,0,1,0,6.24h0L-763.29,734A7.6,7.6,0,0,1-771.76,734Z" transform="translate(839 640.25)"/><ellipse class="cls-5" cx="1700.14" cy="1388.58" rx="150.01" ry="110.89"/><ellipse class="cls-6" cx="240.01" cy="809.67" rx="112.5" ry="83.17"/><path class="cls-7" d="M-370,175.42c-81.49,121.86,53,238.2-54.44,458.58-87.38,179.21,78.55,304.6,182.15,331.72S-54,977.45,69.83,926.39s274.65-40,332.31-30.7,304.09,26.17,416.48-113c147-182.07-26.83-466.76-374-446.27-188.83,11.14-272.25-130-329.9-187.59C45.42,79.56-49.31,32.5-162.45,51.79-247.63,66.32-325,108.16-370,175.42Z" transform="translate(839 640.25)"/><path class="cls-8" d="M470.44,729.76c112.36-30.37,199.4-18.1,281.08,13.63s119.83,86,141.62,122.83c34.8,58.91,38.9,173.45-71.44,206-124.23,36.58-182.07-49.41-213.3-70.85-46.38-31.79-102.84-43-188.22-29.43S300.1,920.68,307.86,881.35C318.87,825.61,358.07,760.13,470.44,729.76Z" transform="translate(839 640.25)"/><path class="cls-9" d="M-665.74,727.31c103.77,79.06,236.19,93.79,333.93,81.4,131-16.6,260.68-90.74,301.08-203.08C4.4,508.06-60.07,427-228.13,460.11c-108.52,21.35-181.71-30.71-218-80C-523.76,274.81-694.49,328-742.06,468.65S-708,695.13-665.74,727.31Z" transform="translate(839 640.25)"/><path class="cls-9" d="M151.05,106.22c55.51,0,100.51,33.25,100.52,74.29s-45,74.3-100.5,74.31S50.55,221.56,50.55,180.52h0C50.61,139.5,95.57,106.26,151.05,106.22Zm0-8.88c-62.14,0-112.51,37.24-112.51,83.18s50.37,83.17,112.51,83.17,112.51-37.24,112.51-83.17h0c0-45.93-50.37-83.17-112.5-83.17Z" transform="translate(839 640.25)"/><path class="cls-6" d="M1063.71,976.27c34.79,0,63,20.85,63,46.58s-28.21,46.57-63,46.57-63-20.85-63-46.57h0C1000.75,997.14,1028.93,976.3,1063.71,976.27Zm0-8.87c-41.42,0-75,24.82-75,55.45s33.59,55.44,75,55.44,75-24.82,75-55.44h0C1138.71,992.22,1105.13,967.4,1063.71,967.4Z" transform="translate(839 640.25)"/><path class="cls-9" d="M-524,206c14.09,0,25.52,8.43,25.56,18.85s-11.46,18.85-25.56,18.85-25.47-8.45-25.49-18.85S-538.06,206-524,206Zm0-8.87c-20.71,0-37.49,12.41-37.49,27.72s16.77,27.72,37.48,27.72h0c20.72,0,37.51-12.41,37.51-27.72h0c0-15.31-16.79-27.72-37.5-27.72Z" transform="translate(839 640.25)"/><path class="cls-10" d="M610,184.89c-8.17,65.76,20.55,109.84,67.3,147.33s107.11,47.45,147.4,52c64.36,7.28,177.27-12.46,187.89-77.53,12-73.26-83.28-87.63-110.28-100.2-40-18.64-61.83-46.62-64.94-94.76S764.14,57.49,727.12,69.16C674.64,85.69,618.12,119.14,610,184.89Z" transform="translate(839 640.25)"/><path class="cls-5" d="M726,153.76,607.25,66.05a3.63,3.63,0,0,1,0-6.19h0a7.49,7.49,0,0,1,8.38,0h0l118.7,87.71a3.64,3.64,0,0,1,0,6.2h0a7.47,7.47,0,0,1-8.37,0Z" transform="translate(839 640.25)"/><path class="cls-5" d="M710.06,110.7,665.5,77.76a3.63,3.63,0,0,1,0-6.19h0a7.49,7.49,0,0,1,8.38,0h0l44.56,33a3.64,3.64,0,0,1,0,6.2h0a7.5,7.5,0,0,1-8.39,0Z" transform="translate(839 640.25)"/><path class="cls-5" d="M726,185.08l-161.1-119a3.63,3.63,0,0,1,0-6.19h0a7.49,7.49,0,0,1,8.38,0h0l161.09,119a3.64,3.64,0,0,1,0,6.2h0A7.52,7.52,0,0,1,726,185.08Z" transform="translate(839 640.25)"/><path class="cls-5" d="M717.12,209.85,531.38,72.54a3.63,3.63,0,0,1,0-6.19h0a7.52,7.52,0,0,1,8.38,0L725.51,203.65a3.64,3.64,0,0,1,0,6.2h0a7.49,7.49,0,0,1-8.38,0Z" transform="translate(839 640.25)"/><path class="cls-5" d="M702.62,230.46,503.52,83.26a3.63,3.63,0,0,1,0-6.19h0a7.49,7.49,0,0,1,8.38,0h0L711,224.25a3.63,3.63,0,0,1,0,6.19h0A7.52,7.52,0,0,1,702.62,230.46Z" transform="translate(839 640.25)"/><path class="cls-5" d="M683.57,247.69,480.18,97.34a3.64,3.64,0,0,1,0-6.19h0a7.47,7.47,0,0,1,8.38,0h0L692,241.5a3.63,3.63,0,0,1,0,6.19h0a7.45,7.45,0,0,1-8.37,0Z" transform="translate(839 640.25)"/><path class="cls-5" d="M660.24,261.78,461.13,114.6a3.65,3.65,0,0,1,0-6.21h0a7.54,7.54,0,0,1,8.39,0L668.63,255.58a3.63,3.63,0,0,1,0,6.19h0a7.49,7.49,0,0,1-8.38,0Z" transform="translate(839 640.25)"/><path class="cls-5" d="M632.38,272.5,446.64,135.19a3.64,3.64,0,0,1,0-6.2h0a7.49,7.49,0,0,1,8.38,0h0L640.77,266.3a3.64,3.64,0,0,1,0,6.2h0a7.5,7.5,0,0,1-8.39,0Z" transform="translate(839 640.25)"/><path class="cls-5" d="M598.86,279,437.8,160a3.64,3.64,0,0,1,0-6.21h0a7.54,7.54,0,0,1,8.39,0L607.25,272.83a3.63,3.63,0,0,1,0,6.2h0A7.5,7.5,0,0,1,598.86,279Z" transform="translate(839 640.25)"/><path class="cls-5" d="M556.5,279,437.8,191.28a3.63,3.63,0,0,1,0-6.19h0a7.49,7.49,0,0,1,8.38,0h0l118.67,87.75a3.64,3.64,0,0,1,0,6.2h0A7.53,7.53,0,0,1,556.5,279Z" transform="translate(839 640.25)"/><path class="cls-5" d="M498.26,267.28l-44.57-32.94a3.64,3.64,0,0,1,0-6.2h0a7.49,7.49,0,0,1,8.38,0h0l44.57,32.94a3.65,3.65,0,0,1,0,6.2h0a7.49,7.49,0,0,1-8.38,0Z" transform="translate(839 640.25)"/><path class="cls-5" d="M2812.66,508.73h0a3.66,3.66,0,0,1,0-6.25h0l72-53.17a7.58,7.58,0,0,1,8.46,0h0a3.66,3.66,0,0,1,0,6.25h0l-72,53.17A7.56,7.56,0,0,1,2812.66,508.73Z" transform="translate(839 640.25)"/><path class="cls-5" d="M2741.92,529.7h0a3.67,3.67,0,0,1,0-6.25h0l184-135.73v-.06l1.89-1.35,2.38,1.84a7,7,0,0,0,4.28,1.4h3.42v1.83L2750.38,529.7a7.58,7.58,0,0,1-8.46,0Z" transform="translate(839 640.25)"/><path class="cls-5" d="M2693.9,533.89h0a3.66,3.66,0,0,1,0-6.24h0l245-180.85a7.58,7.58,0,0,1,8.46,0h0a3.65,3.65,0,0,1,0,6.23l0,0-245,180.84a7.56,7.56,0,0,1-8.46,0Z" transform="translate(839 640.25)"/><path class="cls-5" d="M2653.54,532.42h0a3.67,3.67,0,0,1,0-6.25h0l291.72-215.32a7.58,7.58,0,0,1,8.46,0h0a3.66,3.66,0,0,1,0,6.25h0L2662,532.42A7.58,7.58,0,0,1,2653.54,532.42Z" transform="translate(839 640.25)"/><path class="cls-5" d="M2617.71,527.6h0a3.67,3.67,0,0,1,0-6.25h0L2946,279.05a7.58,7.58,0,0,1,8.46,0h0a3.67,3.67,0,0,1,0,6.25h0L2626.16,527.6A7.56,7.56,0,0,1,2617.71,527.6Z" transform="translate(839 640.25)"/><path class="cls-5" d="M2585.08,520.44h0a3.66,3.66,0,0,1,0-6.24h0l357.7-264a7.54,7.54,0,0,1,8.46,0h0a3.65,3.65,0,0,1,0,6.23l0,0-357.7,264a7.54,7.54,0,0,1-8.46,0Z" transform="translate(839 640.25)"/><path class="cls-5" d="M2555,511.4h0a3.66,3.66,0,0,1,0-6.24h0l381.6-281.68a7.54,7.54,0,0,1,8.46,0h0a3.66,3.66,0,0,1,0,6.24h0L2563.45,511.4a7.53,7.53,0,0,1-8.45,0Z" transform="translate(839 640.25)"/><path class="cls-5" d="M2527.06,500.77h0a3.66,3.66,0,0,1,0-6.24h0l401-296a7.58,7.58,0,0,1,8.46,0h0a3.65,3.65,0,0,1,0,6.23l0,0-401,296a7.54,7.54,0,0,1-8.46,0Z" transform="translate(839 640.25)"/><path class="cls-5" d="M2501.1,488.68h0a3.66,3.66,0,0,1,0-6.24h0L2917.66,175a7.54,7.54,0,0,1,8.46,0h0a3.66,3.66,0,0,1,0,6.25h0L2509.56,488.69A7.56,7.56,0,0,1,2501.1,488.68Z" transform="translate(839 640.25)"/><path class="cls-5" d="M2477,475.25h0a3.66,3.66,0,0,1,0-6.24h0l428.56-316.32a7.58,7.58,0,0,1,8.46,0h0a3.66,3.66,0,0,1,0,6.25h0L2485.44,475.25a7.54,7.54,0,0,1-8.46,0Z" transform="translate(839 640.25)"/><path class="cls-5" d="M2454.67,460.47h0a3.67,3.67,0,0,1,0-6.25l437.25-322.75a7.58,7.58,0,0,1,8.46,0h0a3.67,3.67,0,0,1,0,6.25h0L2463.13,460.47a7.58,7.58,0,0,1-8.46,0Z" transform="translate(839 640.25)"/><path class="cls-5" d="M2433.75,444.67h0a3.65,3.65,0,0,1,0-6.24h0l443.34-327.23a7.6,7.6,0,0,1,8.47,0h0a3.65,3.65,0,0,1,0,6.24h0L2442.21,444.67a7.54,7.54,0,0,1-8.46,0Z" transform="translate(839 640.25)"/><path class="cls-5" d="M2412.46,429.16h0a3.66,3.66,0,0,1,0-6.24h0L2861.07,91.79a7.53,7.53,0,0,1,8.45,0h0a3.65,3.65,0,0,1,0,6.23l0,0L2420.92,429.16A7.58,7.58,0,0,1,2412.46,429.16Z" transform="translate(839 640.25)"/><path class="cls-5" d="M2390.4,414.13h0a3.66,3.66,0,0,1,0-6.24h0L2843.89,73.16a7.6,7.6,0,0,1,8.47,0h0a3.68,3.68,0,0,1,0,6.25l-453.5,334.72a7.54,7.54,0,0,1-8.46,0Z" transform="translate(839 640.25)"/><path class="cls-5" d="M2367.41,399.86h0a3.67,3.67,0,0,1,0-6.25h0L2825.73,55.33a7.54,7.54,0,0,1,8.46,0h0a3.66,3.66,0,0,1,0,6.24h0L2375.87,399.86a7.54,7.54,0,0,1-8.46,0Z" transform="translate(839 640.25)"/><path class="cls-5" d="M2343.1,386.56h0a3.66,3.66,0,0,1,0-6.25h0L2806.53,38.25a7.56,7.56,0,0,1,8.46,0h0a3.66,3.66,0,0,1,0,6.25h0L2351.56,386.56A7.58,7.58,0,0,1,2343.1,386.56Z" transform="translate(839 640.25)"/><path class="cls-5" d="M2317.15,374.47h0a3.66,3.66,0,0,1,0-6.25h0L2786.3,22a7.56,7.56,0,0,1,8.46,0h0a3.67,3.67,0,0,1,0,6.25h0L2325.61,374.47a7.54,7.54,0,0,1-8.46,0Z" transform="translate(839 640.25)"/><path class="cls-5" d="M2289.07,364h0a3.65,3.65,0,0,1,0-6.24h0L2765,6.43a7.6,7.6,0,0,1,8.47,0h0a3.67,3.67,0,0,1,0,6.25h0L2297.53,364A7.58,7.58,0,0,1,2289.07,364Z" transform="translate(839 640.25)"/><path class="cls-5" d="M2258.35,355.38h0a3.67,3.67,0,0,1,0-6.25L2742.41-8.11a7.58,7.58,0,0,1,8.46,0h0a3.66,3.66,0,0,1,0,6.25L2266.81,355.38a7.58,7.58,0,0,1-8.46,0Z" transform="translate(839 640.25)"/><path class="cls-5" d="M2224.46,349.15h0a3.67,3.67,0,0,1,0-6.25l494-364.6a7.58,7.58,0,0,1,8.46,0h0a3.65,3.65,0,0,1,0,6.24h0l-494,364.6A7.6,7.6,0,0,1,2224.46,349.15Z" transform="translate(839 640.25)"/><path class="cls-5" d="M2186.92,345.62h0a3.67,3.67,0,0,1,0-6.26h0L2693.36-34.43a7.58,7.58,0,0,1,8.46,0h0a3.67,3.67,0,0,1,0,6.25h0l-506.44,373.8A7.58,7.58,0,0,1,2186.92,345.62Z" transform="translate(839 640.25)"/><path class="cls-5" d="M2145.22,345.15h0a3.66,3.66,0,0,1,0-6.25h0l522-385.28a7.58,7.58,0,0,1,8.46,0h0a3.65,3.65,0,0,1,0,6.24h0l-522,385.28a7.58,7.58,0,0,1-8.46,0Z" transform="translate(839 640.25)"/><path class="cls-5" d="M2099.11,347.91h0a3.66,3.66,0,0,1,0-6.24h0l541-399.33a7.58,7.58,0,0,1,8.46,0h0a3.65,3.65,0,0,1,0,6.24h0l-541,399.34a7.54,7.54,0,0,1-8.46,0Z" transform="translate(839 640.25)"/><path class="cls-5" d="M2048.49,354h0a3.66,3.66,0,0,1,0-6.24l563.66-416a7.58,7.58,0,0,1,8.46,0h0a3.68,3.68,0,0,1,0,6.25L2057,354A7.56,7.56,0,0,1,2048.49,354Z" transform="translate(839 640.25)"/><path class="cls-5" d="M1994.25,362.81h0a3.66,3.66,0,0,1,0-6.25h0l589-434.74a7.6,7.6,0,0,1,8.47,0h0a3.66,3.66,0,0,1,0,6.24h0l-589,434.74A7.58,7.58,0,0,1,1994.25,362.81Z" transform="translate(839 640.25)"/><path class="cls-5" d="M1944.25,368.46h0a3.65,3.65,0,0,1,0-6.24h0L2553.36-87.37a7.54,7.54,0,0,1,8.46,0h0a3.66,3.66,0,0,1,0,6.24h0L1952.71,368.46a7.54,7.54,0,0,1-8.46,0Z" transform="translate(839 640.25)"/><path class="cls-5" d="M1900,369.92h0a3.65,3.65,0,0,1,0-6.24h0l622.54-459.5a7.54,7.54,0,0,1,8.46,0h0a3.65,3.65,0,0,1,0,6.24h0l-622.54,459.5A7.58,7.58,0,0,1,1900,369.92Z" transform="translate(839 640.25)"/><path class="cls-5" d="M1860.19,368h0a3.66,3.66,0,0,1,0-6.25h0l630.42-465.31a7.54,7.54,0,0,1,8.46,0h0a3.66,3.66,0,0,1,0,6.24h0L1868.65,368a7.56,7.56,0,0,1-8.46,0Z" transform="translate(839 640.25)"/><path class="cls-5" d="M1824.29,363.27h0a3.67,3.67,0,0,1,0-6.25l633.23-467.36a7.58,7.58,0,0,1,8.46,0h0a3.66,3.66,0,0,1,0,6.25h0L1832.75,363.27a7.56,7.56,0,0,1-8.46,0Z" transform="translate(839 640.25)"/><path class="cls-5" d="M1791.78,356h0a3.66,3.66,0,0,1,0-6.24h0l631.47-466.09a7.58,7.58,0,0,1,8.46,0h0a3.66,3.66,0,0,1,0,6.25h0L1800.24,356a7.54,7.54,0,0,1-8.46,0Z" transform="translate(839 640.25)"/><path class="cls-5" d="M1762.3,346.54h0a3.66,3.66,0,0,1,0-6.24h0l625.37-461.58a7.54,7.54,0,0,1,8.46,0h0a3.66,3.66,0,0,1,0,6.24h0L1770.76,346.54a7.54,7.54,0,0,1-8.46,0Z" transform="translate(839 640.25)"/><path class="cls-5" d="M1735.71,334.92h0a3.67,3.67,0,0,1,0-6.25h0l614.83-453.8a7.54,7.54,0,0,1,8.46,0h0a3.65,3.65,0,0,1,0,6.24h0l-614.82,453.8A7.6,7.6,0,0,1,1735.71,334.92Z" transform="translate(839 640.25)"/><path class="cls-5" d="M1711.79,321.28h0a3.66,3.66,0,0,1,0-6.24h0l599.86-442.78a7.58,7.58,0,0,1,8.46,0h0a3.66,3.66,0,0,1,0,6.24h0L1720.25,321.28a7.54,7.54,0,0,1-8.46,0Z" transform="translate(839 640.25)"/><path class="cls-5" d="M1690.68,305.62h0a3.67,3.67,0,0,1,0-6.25h0l580.16-428.24a7.58,7.58,0,0,1,8.46,0h0a3.67,3.67,0,0,1,0,6.25L1699.14,305.62A7.58,7.58,0,0,1,1690.68,305.62Z" transform="translate(839 640.25)"/><path class="cls-5" d="M1672.39,287.87h0a3.66,3.66,0,0,1,0-6.24l555.48-410a7.56,7.56,0,0,1,8.46,0h0a3.66,3.66,0,0,1,0,6.25h0l-555.49,410A7.56,7.56,0,0,1,1672.39,287.87Z" transform="translate(839 640.25)"/><path class="cls-5" d="M1657.25,267.81h0a3.65,3.65,0,0,1,0-6.24h0l524.89-387.42a7.54,7.54,0,0,1,8.46,0h0a3.65,3.65,0,0,1,0,6.24h0L1665.71,267.81a7.54,7.54,0,0,1-8.46,0Z" transform="translate(839 640.25)"/><path class="cls-5" d="M1645.79,245h0a3.65,3.65,0,0,1,0-6.24h0l487.29-359.69a7.58,7.58,0,0,1,8.46,0h0a3.65,3.65,0,0,1,0,6.23h0L1654.23,245A7.55,7.55,0,0,1,1645.79,245Z" transform="translate(839 640.25)"/><path class="cls-5" d="M1639,218.8h0a3.67,3.67,0,0,1,0-6.25l440.81-325.33a7.58,7.58,0,0,1,8.46,0h0a3.68,3.68,0,0,1,0,6.26h0l-440.8,325.33A7.6,7.6,0,0,1,1639,218.8Z" transform="translate(839 640.25)"/><path class="cls-5" d="M1637.87,188.37h0a3.66,3.66,0,0,1,0-6.24l382.88-282.59a7.54,7.54,0,0,1,8.46,0h0a3.66,3.66,0,0,1,0,6.24h0L1646.33,188.37a7.53,7.53,0,0,1-8.45,0Z" transform="translate(839 640.25)"/><path class="cls-5" d="M1645.09,151.8h0a3.66,3.66,0,0,1,0-6.24h0L1953.42-82a7.54,7.54,0,0,1,8.46,0h0a3.67,3.67,0,0,1,0,6.25L1653.56,151.8a7.54,7.54,0,0,1-8.46,0Z" transform="translate(839 640.25)"/><path class="cls-5" d="M1669.07,102.86h0a3.67,3.67,0,0,1,0-6.25L1871.81-53a7.56,7.56,0,0,1,8.47,0l0,0h0a3.67,3.67,0,0,1,0,6.25l-202.8,149.64a7.58,7.58,0,0,1-8.46,0Z" transform="translate(839 640.25)"/><path class="cls-5" d="M1703.4,46.3h0a3.66,3.66,0,0,1,0-6.24h0l102.44-75.62a7.58,7.58,0,0,1,8.46,0h0a3.67,3.67,0,0,1,0,6.25h0L1711.83,46.3A7.6,7.6,0,0,1,1703.4,46.3Z" transform="translate(839 640.25)"/><ellipse class="cls-5" cx="4175.26" cy="700.87" rx="150.01" ry="110.89"/><ellipse class="cls-11" cx="3659.64" cy="1292.24" rx="112.5" ry="83.17"/><path class="cls-7" d="M2105.15-512.28c-81.5,121.86,53,238.2-54.45,458.58-87.37,179.22,78.59,304.6,182.16,331.74S2421.07,289.76,2545,238.7s274.65-40,332.32-30.7,304.08,26.18,416.48-113c147.05-182.08-26.83-466.76-373.92-446.28-188.87,11.15-272.3-130-329.94-187.58-69.35-69.26-164.07-116.33-277.21-97C2227.49-621.39,2150.11-579.54,2105.15-512.28Z" transform="translate(839 640.25)"/><path class="cls-12" d="M2945.56,42.06C3057.93,11.69,3145,24,3226.65,55.69s119.83,85.92,141.61,122.83c34.8,58.91,38.91,173.45-71.43,206-124.23,36.59-182-49.4-213.3-70.84-46.37-31.79-102.84-43-188.22-29.43S2775.23,233,2783,193.64C2794,137.91,2833.2,72.43,2945.56,42.06Z" transform="translate(839 640.25)"/><path class="cls-13" d="M1809.4,39.6c103.79,79.1,236.18,93.8,333.94,81.41,130.95-16.6,260.62-90.74,301.07-203.08,35.13-97.57-29.34-178.6-197.39-145.52-108.55,21.33-181.73-30.72-218-80-77.6-105.32-248.35-52.18-295.91,88.52S1767.15,7.43,1809.4,39.6Z" transform="translate(839 640.25)"/><path class="cls-9" d="M2596.17-581.49c55.48,0,100.44,33.28,100.51,74.3s-45,74.25-100.51,74.3-100.44-33.29-100.5-74.3S2540.69-581.44,2596.17-581.49Zm0-8.87c-62.13,0-112.5,37.23-112.5,83.17h0c0,45.93,50.36,83.16,112.49,83.17h0c62.13,0,112.51-37.23,112.51-83.16h0c0-45.94-50.37-83.17-112.5-83.17Z" transform="translate(839 640.25)"/><path class="cls-3" d="M3000,812.64c34.8,0,63,20.85,63,46.58s-28.2,46.57-63,46.57-63-20.85-63-46.57S2965.22,812.67,3000,812.64Zm0-8.87c-41.42,0-75,24.82-75,55.45s33.58,55.44,75,55.44,75-24.82,75-55.44h0C3075,828.59,3041.42,803.77,3000,803.77Z" transform="translate(839 640.25)"/><path class="cls-6" d="M2895.64,688.58c14.08,0,25.51,8.43,25.51,18.84s-11.41,18.86-25.49,18.87-25.49-8.42-25.52-18.82S2881.55,688.6,2895.64,688.58Zm0-8.88c-20.72,0-37.51,12.42-37.51,27.73s16.79,27.73,37.51,27.73,37.5-12.42,37.5-27.73h0C2933.14,692.12,2916.35,679.7,2895.64,679.7Z" transform="translate(839 640.25)"/><path class="cls-9" d="M3085.08-502.82c-8.16,65.77,20.56,109.85,67.3,147.33s107.12,47.45,147.41,52c64.35,7.29,177.26-12.44,187.9-77.52,12-73.26-83.28-87.64-110.3-100.2-40-18.64-61.83-46.63-64.93-94.77s-73.2-54.24-110.21-42.57C3149.81-602,3093.24-568.57,3085.08-502.82Z" transform="translate(839 640.25)"/><path class="cls-5" d="M3201.09-533.93l-118.75-87.76a3.63,3.63,0,0,1,0-6.19h0a7.49,7.49,0,0,1,8.38,0h0l118.71,87.76a3.63,3.63,0,0,1,0,6.19h0A7.53,7.53,0,0,1,3201.09-533.93Z" transform="translate(839 640.25)"/><path class="cls-5" d="M3185.2-577l-44.57-32.94a3.64,3.64,0,0,1,0-6.2h0a7.49,7.49,0,0,1,8.38,0h0l44.57,32.93a3.64,3.64,0,0,1,0,6.2h0A7.49,7.49,0,0,1,3185.2-577Z" transform="translate(839 640.25)"/><path class="cls-5" d="M3201.09-502.63,3040-621.69a3.63,3.63,0,0,1,0-6.19h0a7.49,7.49,0,0,1,8.38,0h0l161.06,119.07a3.63,3.63,0,0,1,0,6.19h0a7.47,7.47,0,0,1-8.38,0Z" transform="translate(839 640.25)"/><path class="cls-5" d="M3192.25-477.85,3006.5-615.16a3.63,3.63,0,0,1,0-6.19h0a7.47,7.47,0,0,1,8.38,0h0L3200.64-484a3.63,3.63,0,0,1,0,6.19h0a7.49,7.49,0,0,1-8.38,0Z" transform="translate(839 640.25)"/><path class="cls-5" d="M3177.75-457.28l-199.1-147.16a3.64,3.64,0,0,1,0-6.2h0a7.49,7.49,0,0,1,8.38,0l199.1,147.19a3.63,3.63,0,0,1,0,6.19h0a7.5,7.5,0,0,1-8.38,0Z" transform="translate(839 640.25)"/><path class="cls-5" d="M3158.7-440,2955.31-590.36a3.64,3.64,0,0,1,0-6.2h0a7.54,7.54,0,0,1,8.39,0l203.39,150.35a3.64,3.64,0,0,1,0,6.2h0a7.48,7.48,0,0,1-8.39,0Z" transform="translate(839 640.25)"/><path class="cls-5" d="M3135.34-425.93,2936.26-573.11a3.64,3.64,0,0,1,0-6.2h0a7.5,7.5,0,0,1,8.39,0h0l199.1,147.22a3.63,3.63,0,0,1,0,6.19h0a7.49,7.49,0,0,1-8.38,0Z" transform="translate(839 640.25)"/><path class="cls-5" d="M3107.5-415.21,2921.77-552.52a3.63,3.63,0,0,1,0-6.19h0a7.49,7.49,0,0,1,8.38,0h0l185.74,137.31a3.64,3.64,0,0,1,0,6.2h0a7.49,7.49,0,0,1-8.38,0Z" transform="translate(839 640.25)"/><path class="cls-5" d="M3074-408.67,2912.93-527.74a3.63,3.63,0,0,1,0-6.19h0a7.47,7.47,0,0,1,8.38,0h0l161,119.06a3.63,3.63,0,0,1,0,6.19h0A7.51,7.51,0,0,1,3074-408.67Z" transform="translate(839 640.25)"/><path class="cls-5" d="M3031.63-408.67l-118.7-87.79a3.63,3.63,0,0,1,0-6.19h0a7.47,7.47,0,0,1,8.38,0h0L3040-414.9a3.64,3.64,0,0,1,0,6.2h0a7.5,7.5,0,0,1-8.39,0Z" transform="translate(839 640.25)"/><path class="cls-5" d="M2973.39-420.42l-44.57-32.95a3.63,3.63,0,0,1,0-6.19h0a7.47,7.47,0,0,1,8.38,0h0l44.57,32.94a3.64,3.64,0,0,1,0,6.2h0A7.49,7.49,0,0,1,2973.39-420.42Z" transform="translate(839 640.25)"/></g><line class="cls-14" x1="1319.15" y1="1202.61" x2="1402.35" y2="1202.61"/><rect class="cls-15" x="1319.15" y="1201.28" width="83.2" height="2.67"/><polygon class="cls-15" points="1319.15 1202.61 1320.05 1211.62 1328.29 1219.86 1335.51 1220.36 1361.94 1222.27 1389.05 1220.83 1398.14 1216.18 1402.34 1207.31 1400.54 1202.61 1319.15 1202.61"/><path class="cls-15" d="M544.11,582.61H499.38c-11.62,0-21-7-21-15.55V547c0-.74.81-1.34,1.81-1.34h83.2c1,0,1.8.6,1.8,1.34v20C565.14,575.64,555.73,582.6,544.11,582.61ZM482,548.33v18.73c0,7.11,7.8,12.88,17.43,12.88h44.73c9.63,0,17.42-5.77,17.43-12.88V548.35Z" transform="translate(839 640.25)"/><path class="cls-16" d="M535.52,563.15c0-5.8-6.35-10.5-14.2-10.5s-14.19,4.7-14.19,10.5,6.35,10.49,14.19,10.49,14.2-4.7,14.2-10.49h0" transform="translate(839 640.25)"/><path class="cls-15" d="M521.32,575c-8.85,0-16-5.31-16-11.85s7.18-11.86,16-11.86,16,5.31,16,11.86S530.17,575,521.32,575Zm0-21c-6.86,0-12.43,4.1-12.43,9.18s5.55,9.18,12.42,9.19,12.43-4.11,12.43-9.18h0C533.73,558.08,528.18,554,521.32,554Z" transform="translate(839 640.25)"/><path class="cls-17" d="M501.36,562c0-2.51-2.75-4.54-6.15-4.54s-6.14,2-6.14,4.54,2.75,4.54,6.14,4.54h0c3.4,0,6.15-2,6.15-4.54" transform="translate(839 640.25)"/><path class="cls-15" d="M495.21,567.87c-4.39,0-7.95-2.63-7.95-5.88s3.56-5.88,7.95-5.88,8,2.64,8,5.88h0C503.16,565.24,499.6,567.87,495.21,567.87Zm0-9.1c-2.39,0-4.33,1.44-4.33,3.21s1.94,3.2,4.33,3.2,4.34-1.43,4.34-3.2-1.95-3.19-4.34-3.19Z" transform="translate(839 640.25)"/><path class="cls-17" d="M553.39,562c0-2.51-2.75-4.54-6.14-4.54s-6.15,2-6.15,4.54,2.75,4.54,6.15,4.54h0c3.38,0,6.13-2,6.14-4.53h0" transform="translate(839 640.25)"/><path class="cls-15" d="M547.25,567.87c-4.39,0-8-2.63-8-5.88s3.56-5.88,8-5.88,8,2.64,8,5.88h0C555.19,565.24,551.63,567.87,547.25,567.87Zm0-9.1c-2.4,0-4.34,1.44-4.34,3.21s1.94,3.2,4.34,3.2,4.33-1.43,4.33-3.2-2-3.18-4.33-3.19Z" transform="translate(839 640.25)"/><path class="cls-15" d="M451.21,568.63a5.57,5.57,0,0,1-3.29-1l-17.29-12.78-15.79-20.29.22-12.68,40.87,30.22v13.08C455.91,567.08,453.81,568.62,451.21,568.63Zm-17.69-15.44,17,12.53a1.18,1.18,0,0,0,.73.24c.6,0,1.09-.35,1.1-.79h0v-12l-33.75-24.95-.09,5.59Z" transform="translate(839 640.25)"/><polygon class="cls-15" points="1280.31 1201.09 1280.31 1182.52 1258.52 1167.3 1257.78 1177.43 1280.31 1201.09"/><path class="cls-18" d="M407.53,533.29l25.46-5,2.61,7.27c1.54,4.27-1.9,8.66-7.68,9.8h0l-4.54.89c-5.77,1.13-11.7-1.4-13.24-5.67v0Z" transform="translate(839 640.25)"/><path class="cls-15" d="M405.32,532.35l28.93-5.68,3.07,8.57c1.78,5-2.24,10.08-9,11.41l-4.51.89c-6.74,1.31-13.65-1.66-15.44-6.64Zm26.39-2.41-22,4.3,2.14,6c1.29,3.54,6.21,5.66,11,4.72l4.54-.88c4.81-1,7.67-4.6,6.4-8.15Z" transform="translate(839 640.25)"/><rect class="cls-15" x="1311.23" y="1270.15" width="12.64" height="20.83"/><path class="cls-18" d="M465,648.14H452.35V593c0-3.17,3.47-5.75,7.77-5.75h7.78c4.3,0,7.78,2.57,7.78,5.75h0v47.31c0,4.34-4.74,7.87-10.62,7.87h0" transform="translate(839 640.25)"/><path class="cls-15" d="M465,649.47H450.55V593c0-3.91,4.3-7.08,9.59-7.08h7.76c5.29,0,9.58,3.17,9.59,7.08v47.31C477.48,645.34,471.91,649.46,465,649.47Zm-10.91-2.68H465c4.88,0,8.84-2.92,8.84-6.52V593c0-2.44-2.68-4.41-6-4.42h-7.76c-3.3,0-6,2-6,4.42h0Z" transform="translate(839 640.25)"/><path class="cls-18" d="M373.37,445.07l29.84-5.85c6.91-1.36,14,1.68,15.84,6.79h0l25.17,70.18c1.83,5.11-2.29,10.35-9.2,11.71l-29.85,5.85c-6.92,1.35-14-1.7-15.84-6.81l-25.17-70.18c-1.82-5.11,2.3-10.35,9.21-11.7" transform="translate(839 640.25)"/><path class="cls-15" d="M372.91,443.77l29.84-5.85c7.88-1.53,15.95,1.94,18.05,7.76L446,515.86c2.09,5.82-2.6,11.79-10.48,13.35l-29.85,5.84c-7.87,1.54-15.94-1.93-18-7.75l-25.17-70.16C360.32,451.31,365,445.33,372.91,443.77Zm61.65,82.85c5.94-1.17,9.48-5.68,7.91-10.08L417.3,446.36c-1.58-4.39-7.68-7-13.62-5.85l-29.86,5.85c-5.94,1.17-9.48,5.67-7.91,10.07l25.17,70.18c1.58,4.4,7.68,7,13.63,5.86Z" transform="translate(839 640.25)"/><path class="cls-15" d="M372.91,443.77l29.84-5.85c7.88-1.53,15.95,1.94,18.05,7.76l7,19.59c2.08,5.82-2.61,11.79-10.49,13.34l-29.84,5.85c-7.87,1.54-15.94-1.91-18.05-7.73l-7-19.59C360.32,451.31,365,445.33,372.91,443.77ZM416.44,476c5.95-1.17,9.48-5.68,7.91-10.07l-7-19.59c-1.58-4.4-7.68-7-13.63-5.86l-29.85,5.85c-5.94,1.17-9.48,5.68-7.91,10.07L373,476c1.59,4.4,7.68,7,13.63,5.86Z" transform="translate(839 640.25)"/><path class="cls-15" d="M436.65,495.08a2,2,0,0,1,2.21.93,1,1,0,0,1-.19,1l-7.51,9.57a11.18,11.18,0,0,1-6.68,3.77l-21.63,4.2a14.36,14.36,0,0,1-8.35-.77l-12.94-5.59c-.9-.33-1.26-1.14-.81-1.8a2.13,2.13,0,0,1,2.42-.59l.19.08,13,5.55a9.54,9.54,0,0,0,5.58.55l21.63-4.23a7.47,7.47,0,0,0,4.49-2.54l7.51-9.55A1.87,1.87,0,0,1,436.65,495.08Z" transform="translate(839 640.25)"/><path class="cls-15" d="M432.19,482.66a1.92,1.92,0,0,1,2.21.95,1,1,0,0,1-.18,1l-7.54,9.55A11,11,0,0,1,420,498l-21.62,4.24a14.32,14.32,0,0,1-8.32-.82l-13-5.55c-.86-.37-1.16-1.19-.66-1.83a2.18,2.18,0,0,1,2.47-.49h0l13,5.56a9.7,9.7,0,0,0,5.58.55l21.66-4.24a7.43,7.43,0,0,0,4.49-2.53l7.51-9.56A1.91,1.91,0,0,1,432.19,482.66Z" transform="translate(839 640.25)"/><path class="cls-18" d="M411.59,488.63l4.55,12.69c.64,1.78-.8,3.6-3.2,4.07l-3.7.7c-2.4.47-4.86-.58-5.5-2.36l-4.5-12.7" transform="translate(839 640.25)"/><path class="cls-15" d="M398.73,489.75a1.93,1.93,0,0,1,2.2.94h0l4.55,12.7a2.92,2.92,0,0,0,3.31,1.4l3.69-.7c1.43-.29,2.28-1.38,1.89-2.44L409.82,489c-.26-.72.31-1.45,1.27-1.64a1.93,1.93,0,0,1,2.22.94L417.86,501c.89,2.49-1.11,5-4.47,5.7l-3.7.7c-3.36.66-6.82-.82-7.72-3.31l-4.55-12.7C397.2,490.64,397.78,489.93,398.73,489.75Z" transform="translate(839 640.25)"/><path class="cls-17" d="M399.24,491c.9,2.54,4.42,4,7.84,3.37s5.47-3.27,4.56-5.8-4.42-4-7.85-3.37h0c-3.42.67-5.46,3.27-4.56,5.79h0" transform="translate(839 640.25)"/><path class="cls-15" d="M403.28,484c4.38-.86,8.88,1.07,10,4.32s-1.46,6.56-5.84,7.42-8.88-1.07-10-4.31S398.89,484.81,403.28,484Zm3.29,9.16c2.46-.5,3.9-2.37,3.23-4.19s-3.22-2.88-5.67-2.38-3.88,2.35-3.24,4.15,3.17,2.91,5.63,2.43Z" transform="translate(839 640.25)"/><path class="cls-18" d="M414,432l4.56,12.7c.63,1.77-.8,3.59-3.2,4.07l-3.7.7c-2.4.46-4.86-.59-5.51-2.37l-4.55-12.7" transform="translate(839 640.25)"/><path class="cls-15" d="M401.13,433.11a1.94,1.94,0,0,1,2.2.95l4.56,12.69a2.89,2.89,0,0,0,3.29,1.4l3.69-.7c1.43-.28,2.28-1.37,1.89-2.43l-4.55-12.7c-.26-.71.31-1.45,1.27-1.64a2,2,0,0,1,2.22.94l4.56,12.7c.89,2.49-1.12,5-4.49,5.7l-3.69.7c-3.37.66-6.82-.82-7.71-3.31l-4.5-12.65C399.6,434,400.17,433.31,401.13,433.11Z" transform="translate(839 640.25)"/><path class="cls-16" d="M401.61,434.4c.9,2.53,4.41,4.05,7.84,3.38s5.47-3.26,4.57-5.8-4.41-4-7.84-3.38h0c-3.42.67-5.46,3.26-4.56,5.79" transform="translate(839 640.25)"/><path class="cls-15" d="M405.71,427.32c4.39-.86,8.88,1.08,10,4.32s-1.46,6.56-5.84,7.42-8.87-1.07-10-4.3,1.45-6.58,5.84-7.44Zm3.28,9.16c2.46-.48,3.93-2.35,3.28-4.17s-3.17-2.9-5.63-2.42-3.93,2.34-3.28,4.16h0c.65,1.82,3.17,2.9,5.63,2.42Z" transform="translate(839 640.25)"/><path class="cls-15" d="M383.33,464.18c1.75,4.91,8.56,7.84,15.2,6.54s10.6-6.33,8.84-11.24-8.56-7.83-15.2-6.54h0c-6.64,1.29-10.6,6.33-8.84,11.23h0" transform="translate(839 640.25)"/><path class="cls-17" d="M391.67,451.65c7.58-1.47,15.34,1.89,17.32,7.5s-2.55,11.34-10.14,12.81-15.28-1.86-17.3-7.44S384.07,453.15,391.67,451.65ZM398,469.43c5.68-1.11,9.07-5.41,7.57-9.61s-7.32-6.71-13-5.6-9.07,5.41-7.57,9.61,7.33,6.71,13,5.61h0Z" transform="translate(839 640.25)"/><path class="cls-18" d="M371.53,440.3l4.55,12.7c.63,1.77-.8,3.6-3.2,4.07l-3.69.7c-2.41.47-4.87-.59-5.51-2.37l-4.55-12.69" transform="translate(839 640.25)"/><path class="cls-15" d="M358.66,441.44a1.94,1.94,0,0,1,2.21.95l4.55,12.69a2.92,2.92,0,0,0,3.3,1.4l3.69-.7c1.43-.29,2.28-1.38,1.9-2.44l-4.55-12.69c-.27-.71.3-1.45,1.26-1.64a2,2,0,0,1,2.22.94l4.56,12.7c.88,2.48-1.12,5-4.49,5.7l-3.69.7c-3.36.65-6.81-.83-7.71-3.32L357.36,443C357.12,442.33,357.71,441.62,358.66,441.44Z" transform="translate(839 640.25)"/><path class="cls-16" d="M359.13,442.73c.91,2.53,4.42,4,7.84,3.37s5.47-3.27,4.56-5.8-4.42-4-7.85-3.37h0c-3.42.67-5.46,3.27-4.55,5.8" transform="translate(839 640.25)"/><path class="cls-15" d="M363.22,435.64c4.38-.86,8.88,1.07,10,4.31s-1.44,6.57-5.83,7.43-8.88-1.07-10-4.31S358.83,436.51,363.22,435.64Zm3.29,9.16c2.45-.5,3.88-2.37,3.2-4.18s-3.21-2.87-5.66-2.37-3.86,2.34-3.22,4.14,3.19,2.9,5.65,2.42Z" transform="translate(839 640.25)"/><path class="cls-18" d="M386.19,417.79l4.53,12.69c.64,1.77-.78,3.6-3.18,4.07h0l-3.7.7c-2.41.47-4.87-.59-5.51-2.36l-4.55-12.69" transform="translate(839 640.25)"/><path class="cls-15" d="M373.32,418.93a1.94,1.94,0,0,1,2.21.93h0l4.55,12.7a2.89,2.89,0,0,0,3.29,1.4l3.7-.7c1.43-.29,2.28-1.38,1.9-2.44l-4.56-12.7c-.26-.71.31-1.45,1.28-1.64a2,2,0,0,1,2.22.94l4.55,12.69c.89,2.49-1.11,5-4.48,5.71l-3.7.7c-3.37.65-6.82-.83-7.71-3.32L372,420.52C371.81,419.82,372.38,419.12,373.32,418.93Z" transform="translate(839 640.25)"/><path class="cls-17" d="M373.79,420.22c.9,2.53,4.42,4,7.84,3.37s5.47-3.27,4.56-5.8-4.42-4-7.84-3.37-5.47,3.25-4.57,5.78v0" transform="translate(839 640.25)"/><path class="cls-15" d="M377.89,413.13c4.38-.86,8.88,1.08,10,4.32s-1.46,6.56-5.84,7.42-8.88-1.07-10-4.31S373.5,414,377.89,413.13Zm3.28,9.17c2.45-.5,3.9-2.38,3.22-4.19s-3.21-2.88-5.66-2.39-3.88,2.35-3.24,4.15,3.17,2.91,5.63,2.44Z" transform="translate(839 640.25)"/><path class="cls-15" d="M385.24,433.62a1.94,1.94,0,0,1,2.2.95l7.06,19.78c.27.71-.3,1.44-1.27,1.64A2,2,0,0,1,391,455l-7.08-19.75c-.28-.7.27-1.45,1.23-1.65Z" transform="translate(839 640.25)"/><path class="cls-15" d="M413.05,447.81a1.94,1.94,0,0,1,2.22.95l1.49,4.19c1.12,3.14-1.41,6.35-5.65,7.18h0l-15.32,3a1.94,1.94,0,0,1-2.22-.94c-.26-.71.31-1.45,1.28-1.64h0l15.32-3c2.31-.46,3.68-2.2,3.07-3.91l-1.5-4.2c-.25-.71.34-1.44,1.31-1.62Z" transform="translate(839 640.25)"/><path class="cls-15" d="M370.69,456.12a1.94,1.94,0,0,1,2.21.93h0l1.49,4.2c.62,1.71,3,2.72,5.3,2.27l15.32-3a2,2,0,0,1,2.22.94c.26.71-.31,1.45-1.28,1.64l-15.32,3c-4.25.82-8.59-1.05-9.71-4.19l-1.5-4.2C369.19,457,369.75,456.31,370.69,456.12Z" transform="translate(839 640.25)"/><path class="cls-15" d="M493.27,618.06H473.88V602.49h19.39Zm-15.78-2.67h12.18V605.15H477.49Z" transform="translate(839 640.25)"/><rect class="cls-15" x="1322.57" y="1244.07" width="7.89" height="12.9"/><path class="cls-15" d="M493.27,618.06h-11.5V602.49h11.5Zm-7.91-2.67h4.29V605.15h-4.29Z" transform="translate(839 640.25)"/><path class="cls-15" d="M493.27,631.23H473.88v-11h19.39Zm-15.78-2.68h12.18V623H477.49Z" transform="translate(839 640.25)"/><rect class="cls-15" x="1322.57" y="1261.86" width="7.89" height="8.28"/><path class="cls-15" d="M464,602.18c-4,0-7.22-2.39-7.22-5.33s3.23-5.34,7.22-5.34,7.22,2.39,7.22,5.34S468,602.18,464,602.18Zm0-8c-2,0-3.62,1.19-3.63,2.67s1.61,2.67,3.61,2.68,3.62-1.19,3.62-2.67h0C467.62,595.38,466,594.18,464,594.18Z" transform="translate(839 640.25)"/><rect class="cls-15" x="1291.35" y="1273.73" width="23.33" height="2.67"/><rect class="cls-15" x="1291.35" y="1278.61" width="23.33" height="2.67"/><rect class="cls-15" x="1301.21" y="1241.1" width="3.62" height="33.96"/><polygon class="cls-19" points="1246.48 1173.83 1272.03 1168.83 1273.41 1172.69 1247.87 1177.7 1246.48 1173.83"/><path class="cls-15" d="M420.46,541.2c.46,1.28,2.23,2,4,1.71s2.77-1.64,2.32-2.92-2.22-2-4-1.71h0c-1.71.34-2.74,1.64-2.3,2.92" transform="translate(839 640.25)"/><line class="cls-14" x1="1262.11" y1="1179.48" x2="1260.36" y2="1174.63"/><path class="cls-15" d="M420.9,533.09a1.93,1.93,0,0,1,2.21.94h0l1.75,4.86c.26.71-.31,1.45-1.28,1.64a2,2,0,0,1-2.22-.94l-1.74-4.86c-.27-.7.29-1.44,1.25-1.64Z" transform="translate(839 640.25)"/><line class="cls-14" x1="1258.94" y1="1170.14" x2="1252.23" y2="1151.45"/><path class="cls-15" d="M412.77,509.91a2,2,0,0,1,2.21.94l6.7,18.7c.26.71-.31,1.45-1.28,1.64a2,2,0,0,1-2.22-.94h0l-6.7-18.7c-.26-.71.31-1.44,1.27-1.64Z" transform="translate(839 640.25)"/><path class="cls-15" d="M464.54,566.9H452.31V554.73h12.23ZM456,564.22h5V557.4h-5Z" transform="translate(839 640.25)"/><rect class="cls-15" x="1297.41" y="1196.32" width="4.29" height="9.49"/><path class="cls-15" d="M486.79,599.22h-6.43c-1-.06-1.74-.7-1.67-1.43a1.64,1.64,0,0,1,1.67-1.24h6.43c1,.06,1.74.7,1.67,1.43A1.64,1.64,0,0,1,486.79,599.22Z" transform="translate(839 640.25)"/><path class="cls-15" d="M486.79,594.57h-6.43c-1-.06-1.74-.7-1.67-1.43a1.63,1.63,0,0,1,1.67-1.24h6.43c1,.05,1.74.69,1.67,1.43A1.64,1.64,0,0,1,486.79,594.57Z" transform="translate(839 640.25)"/><path class="cls-15" d="M486.79,589.91h-6.43c-1,0-1.74-.69-1.67-1.43a1.64,1.64,0,0,1,1.67-1.23h6.43c1,0,1.74.69,1.67,1.43A1.62,1.62,0,0,1,486.79,589.91Z" transform="translate(839 640.25)"/><path class="cls-15" d="M491.47,585.26H475.68c-1,0-1.75-.69-1.67-1.43a1.63,1.63,0,0,1,1.67-1.24h15.79a1.72,1.72,0,0,1,1.93,1.24c.07.74-.68,1.38-1.67,1.43Z" transform="translate(839 640.25)"/><path class="cls-15" d="M499.81,685.38h-43c-3.12,0-5.63-1.89-5.63-4.19v-4.13c0-2.31,2.51-4.18,5.63-4.2h43c3.14,0,5.68,1.88,5.68,4.2v4.13C505.49,683.51,503,685.38,499.81,685.38Zm-43-9.79c-1.12,0-2,.67-2,1.5v4.13c0,.82.9,1.49,2,1.49h43c1.12,0,2-.67,2-1.49h0v-4.13c0-.83-.91-1.5-2-1.5h-43Z" transform="translate(839 640.25)"/><polyline class="cls-18" points="1323.18 1297.13 1323.18 1284.81 1312.24 1292.9 1312.24 1297.13"/><path class="cls-15" d="M486,656.87h-3.62v-9.09L475,653.19v3.68h-3.6v-4.2a1.19,1.19,0,0,1,.53-.94l10.93-8.09a2.28,2.28,0,0,1,2.56,0,1.24,1.24,0,0,1,.53.94Z" transform="translate(839 640.25)"/><path class="cls-15" d="M492.07,668.63H463.81a1.71,1.71,0,0,1-1.93-1.24c-.08-.73.67-1.37,1.67-1.43h28.52A1.71,1.71,0,0,1,494,667.2c.08.74-.67,1.38-1.67,1.43Z" transform="translate(839 640.25)"/><path class="cls-15" d="M485.63,664H470.37c-2.38,0-4.3-1.43-4.3-3.19v-2.17c0-1.75,1.93-3.17,4.3-3.18h15.26c2.37,0,4.3,1.42,4.3,3.18v2.2C489.91,662.59,488,664,485.63,664Zm-15.26-5.9c-.38,0-.69.23-.69.51v2.2c0,.29.31.51.69.51h15.26c.38,0,.69-.22.69-.51v-2.17c0-.28-.31-.51-.69-.51Z" transform="translate(839 640.25)"/><path class="cls-15" d="M486,675.6H470.44V661.32H486Zm-12-2.67h8.33V664H474Z" transform="translate(839 640.25)"/><path class="cls-15" d="M484.18,670.85H472.23c-1,0-1.8-.59-1.8-1.33s.81-1.34,1.8-1.34h11.95c1,0,1.81.6,1.81,1.34S485.18,670.85,484.18,670.85Z" transform="translate(839 640.25)"/><rect class="cls-15" x="1298.6" y="1324.3" width="12.63" height="3.7"/><path class="cls-15" d="M472.23,689.09H459.6c-1,0-1.81-.6-1.81-1.34v-3.69c0-.74.81-1.34,1.81-1.34h12.63c1,0,1.81.59,1.81,1.32v3.71c0,.73-.79,1.33-1.79,1.34Zm-10.82-2.68h9v-1h-9Z" transform="translate(839 640.25)"/><rect class="cls-15" x="1325.92" y="1324.3" width="12.63" height="3.7"/><path class="cls-15" d="M499.56,689.09H486.92c-1,0-1.8-.6-1.8-1.33h0v-3.69c0-.74.8-1.34,1.79-1.34h12.65c1,0,1.8.6,1.8,1.34v3.69C501.36,688.49,500.56,689.09,499.56,689.09Zm-10.84-2.68h9v-1h-9Z" transform="translate(839 640.25)"/><path class="cls-18" d="M480,639.89c.94,0,1.71-.56,1.71-1.26s-.76-1.27-1.71-1.27h0" transform="translate(839 640.25)"/><path class="cls-15" d="M493.76,686.5c-1,0-1.81-.6-1.81-1.33v-4.68H469.09c-1.33,0-2.42.8-2.42,1.79v1.78a1.71,1.71,0,0,1-1.93,1.23,1.64,1.64,0,0,1-1.68-1.23v-1.78c0-2.46,2.7-4.46,6-4.46h26.5v7.35c0,.74-.82,1.33-1.82,1.33Z" transform="translate(839 640.25)"/><path class="cls-15" d="M493.27,649.47c-1,0-1.8-.6-1.8-1.34V587.21c0-.74.8-1.34,1.8-1.34s1.81.6,1.81,1.34v60.93C495.07,648.88,494.26,649.47,493.27,649.47Z" transform="translate(839 640.25)"/><path class="cls-15" d="M501.37,642.67c-1,0-1.8-.59-1.8-1.32h0V592.87c-.08-.73.67-1.37,1.67-1.43a1.71,1.71,0,0,1,1.93,1.24.61.61,0,0,1,0,.19v48.5C503.15,642.09,502.35,642.67,501.37,642.67Z" transform="translate(839 640.25)"/><path class="cls-15" d="M593.65,568.63h0c-2.61,0-4.73-1.57-4.73-3.5V552.05l40.86-30.22.21,12.68L614.22,554.8l-17.28,12.81A5.55,5.55,0,0,1,593.65,568.63Zm-1.11-15.45v12c0,.44.49.8,1.08.8h0a1.21,1.21,0,0,0,.74-.24l17-12.53,15-19.35-.1-5.6Z" transform="translate(839 640.25)"/><polygon class="cls-15" points="1442.55 1201.09 1442.55 1182.52 1464.34 1167.3 1465.08 1177.43 1442.55 1201.09"/><path class="cls-18" d="M630.16,545.3,610.7,532.19l-6.86,5.56c-4,3.26-3.71,8.32.71,11.3h0l3.48,2.33c4.4,3,11.24,2.75,15.27-.51h0Z" transform="translate(839 640.25)"/><path class="cls-15" d="M610.52,530.26l22.15,14.92-8.07,6.54c-4.7,3.81-12.68,4.09-17.84.62L603.29,550c-5.14-3.48-5.52-9.37-.83-13.19Zm17,15.09L610.76,534l-5.68,4.57c-3.35,2.72-3.08,6.93.59,9.42l3.47,2.33a11.38,11.38,0,0,0,12.74-.44Z" transform="translate(839 640.25)"/><rect class="cls-15" x="1398.99" y="1270.15" width="12.64" height="20.83"/><path class="cls-18" d="M579.81,648.14H592.5V593c0-3.17-3.47-5.75-7.77-5.75H577c-4.29,0-7.77,2.57-7.77,5.75h0v47.31c0,4.34,4.74,7.87,10.61,7.87h0" transform="translate(839 640.25)"/><path class="cls-15" d="M594.31,649.47h-14.5c-6.87,0-12.43-4.13-12.44-9.2V593c0-3.91,4.29-7.08,9.59-7.08h7.77c5.3,0,9.59,3.17,9.59,7.08ZM577,588.54c-3.3,0-6,2-6,4.42v47.31c0,3.6,4,6.52,8.83,6.52h10.9V593c0-2.44-2.68-4.41-6-4.42Z" transform="translate(839 640.25)"/><path class="cls-18" d="M715.52,478.66l-22.83-15.39c-5.28-3.57-13.47-3.28-18.29.62h0l-66.16,53.66c-4.82,3.91-4.43,10,.86,13.53h0l22.82,15.39c5.29,3.56,13.48,3.28,18.29-.63h0l66.14-53.67c4.82-3.91,4.44-10-.84-13.52" transform="translate(839 640.25)"/><path class="cls-15" d="M693.91,462.3l22.82,15.39c6,4.06,6.42,10.95.95,15.39l-66.13,53.67c-5.5,4.43-14.8,4.74-20.82.7l-22.82-15.39c-6-4.06-6.41-10.94-.94-15.39L673.12,463C678.62,458.58,687.9,458.27,693.91,462.3Zm-60.78,83.19c4.56,3.06,11.6,2.82,15.75-.54L715,491.29c4.14-3.37,3.81-8.58-.73-11.65l-22.82-15.39c-4.55-3.06-11.6-2.82-15.75.54l-66.15,53.67c-4.13,3.37-3.81,8.57.73,11.64Z" transform="translate(839 640.25)"/><path class="cls-15" d="M693.91,462.3l22.82,15.39c6,4.06,6.42,10.95.95,15.39l-18.43,15c-5.5,4.42-14.8,4.74-20.82.7l-22.83-15.4c-6-4.06-6.41-10.94-.94-15.39l18.48-15C678.63,458.59,687.9,458.28,693.91,462.3Zm-13.1,44.52c4.55,3.06,11.59,2.82,15.74-.54l18.48-15c4.14-3.37,3.81-8.58-.73-11.65l-22.82-15.39c-4.55-3.06-11.6-2.82-15.75.54l-18.48,15c-4.14,3.37-3.81,8.58.73,11.65Z" transform="translate(839 640.25)"/><path class="cls-15" d="M628.15,501.43a1.24,1.24,0,0,1,.58.93l.7,11a5,5,0,0,0,2.4,3.78l16.53,11.14a9,9,0,0,0,5.3,1.4l15-.51c1,0,1.85.54,1.89,1.28s-.73,1.36-1.72,1.4l-15,.49a13.52,13.52,0,0,1-7.89-2.1L629.4,519.14a7.48,7.48,0,0,1-3.58-5.6l-.69-11c0-.73.73-1.36,1.72-1.39a2.26,2.26,0,0,1,1.3.34Z" transform="translate(839 640.25)"/><path class="cls-15" d="M639.85,491.94a1.2,1.2,0,0,1,.59.92l.7,11a5,5,0,0,0,2.4,3.78l16.53,11.14a9.12,9.12,0,0,0,5.3,1.4l15-.51c1,0,1.85.54,1.89,1.28s-.73,1.36-1.73,1.39l-15,.5a13.45,13.45,0,0,1-7.89-2.1L641.1,509.64a7.41,7.41,0,0,1-3.56-5.59l-.7-11.05c-.06-.73.71-1.36,1.7-1.4a2.21,2.21,0,0,1,1.31.36Z" transform="translate(839 640.25)"/><path class="cls-18" d="M654.43,504.24l-12,9.71a2.77,2.77,0,0,0,.29,4.7l2.84,1.9a5.67,5.67,0,0,0,6.36-.22l12-9.71" transform="translate(839 640.25)"/><path class="cls-15" d="M655.64,503.25a1.11,1.11,0,0,1,.13,1.89h0l-12,9.7a1.66,1.66,0,0,0,.18,2.8l2.84,1.9a3.42,3.42,0,0,0,3.79-.13l12-9.71a2.28,2.28,0,0,1,2.56,0,1.1,1.1,0,0,1,.11,1.79l-12,9.73a8,8,0,0,1-8.91.28l-2.84-1.9c-2.57-1.74-2.76-4.69-.42-6.59l12-9.7a2.28,2.28,0,0,1,2.55-.07Z" transform="translate(839 640.25)"/><path class="cls-17" d="M663.91,510.62a8.07,8.07,0,0,1-9.06.32c-2.62-1.76-2.82-4.76-.44-6.7a8.1,8.1,0,0,1,9.07-.32h0c2.61,1.76,2.8,4.76.42,6.69" transform="translate(839 640.25)"/><path class="cls-15" d="M664.7,502.94c3.35,2.26,3.59,6.1.54,8.58a10.36,10.36,0,0,1-11.61.4c-3.35-2.26-3.59-6.1-.54-8.58h0A10.36,10.36,0,0,1,664.7,502.94Zm-8.63,7a5.79,5.79,0,0,0,6.49-.23,2.82,2.82,0,0,0-.3-4.8,5.83,5.83,0,0,0-6.5.22,2.83,2.83,0,0,0,.29,4.81h0Z" transform="translate(839 640.25)"/><path class="cls-15" d="M694.75,492.22c-4.63,3.75-12.49,4-17.57.61s-5.45-9.24-.83-13,12.49-4,17.57-.61h0c5.08,3.42,5.45,9.23.83,13" transform="translate(839 640.25)"/><path class="cls-17" d="M695.14,478.24c5.79,3.92,6.18,10.56.88,14.83s-14.28,4.57-20.06.65-6.17-10.5-.94-14.78S689.32,474.34,695.14,478.24Zm-16.71,13.59c4.34,2.92,11.06,2.69,15-.52s3.64-8.18-.7-11.1-11.06-2.69-15,.52S674.09,488.91,678.43,491.83Z" transform="translate(839 640.25)"/><path class="cls-18" d="M709.75,468.07l-21.56,17.49a2.76,2.76,0,0,0,.29,4.7l2.84,1.91a5.67,5.67,0,0,0,6.35-.22h0l21.56-17.49" transform="translate(839 640.25)"/><path class="cls-15" d="M711,467.08a1.11,1.11,0,0,1,.12,1.89h0l-21.56,17.49a1.66,1.66,0,0,0,.18,2.8l2.84,1.9a3.42,3.42,0,0,0,3.79-.13l21.56-17.49a2.28,2.28,0,0,1,2.55,0,1.09,1.09,0,0,1,.12,1.79L699,492.83a8,8,0,0,1-8.92.3l-2.84-1.9c-2.57-1.74-2.76-4.68-.41-6.59l21.55-17.49a2.3,2.3,0,0,1,2.56-.09Z" transform="translate(839 640.25)"/><path class="cls-17" d="M719.23,474.45a8.09,8.09,0,0,1-9.06.32c-2.62-1.77-2.81-4.77-.43-6.71a8.1,8.1,0,0,1,9.06-.31c2.63,1.76,2.82,4.75.45,6.69h0" transform="translate(839 640.25)"/><path class="cls-15" d="M720.07,466.77c3.35,2.26,3.59,6.1.53,8.58a10.37,10.37,0,0,1-11.61.39c-3.35-2.26-3.58-6.1-.53-8.58A10.38,10.38,0,0,1,720.07,466.77Zm-8.64,7a5.81,5.81,0,0,0,6.51-.22,2.82,2.82,0,0,0-.29-4.81,5.81,5.81,0,0,0-6.51.21h0a2.83,2.83,0,0,0,.25,4.81Z" transform="translate(839 640.25)"/><path class="cls-18" d="M682.14,471.42l8,5.39-10.66,8.65-4.8-3.23a2.68,2.68,0,0,1-.28-4.54Z" transform="translate(839 640.25)"/><path class="cls-15" d="M682,469.53l10.67,7.2-13.09,10.62-6.13-4.12c-2.51-1.7-2.69-4.57-.41-6.43Zm5.57,7.36-5.34-3.59-6.52,5.29a1.56,1.56,0,0,0,.17,2.65l3.46,2.33Z" transform="translate(839 640.25)"/><path class="cls-18" d="M695.76,458.64l-12,9.7a2.76,2.76,0,0,0,.3,4.7l2.84,1.9a5.69,5.69,0,0,0,6.36-.21l12-9.72" transform="translate(839 640.25)"/><path class="cls-15" d="M697,457.65a1.11,1.11,0,0,1,.13,1.89h0l-12,9.71a1.67,1.67,0,0,0,.18,2.8l2.84,1.9a3.42,3.42,0,0,0,3.79-.13l12-9.68a2.26,2.26,0,0,1,2.54-.18,1.12,1.12,0,0,1,.25,1.88l-.12.1-12,9.7a7.93,7.93,0,0,1-8.9.31h0l-2.84-1.9c-2.57-1.74-2.76-4.68-.42-6.59l12-9.71a2.26,2.26,0,0,1,2.53-.11Z" transform="translate(839 640.25)"/><path class="cls-17" d="M705.24,465a8.09,8.09,0,0,1-9.06.32c-2.62-1.76-2.82-4.76-.44-6.7a8.1,8.1,0,0,1,9.07-.32h0c2.61,1.77,2.8,4.76.42,6.7" transform="translate(839 640.25)"/><path class="cls-15" d="M706,457.35c3.36,2.26,3.6,6.1.54,8.59a10.38,10.38,0,0,1-11.62.4c-3.35-2.26-3.6-6.11-.54-8.59h0A10.38,10.38,0,0,1,706,457.35Zm-8.64,7a5.81,5.81,0,0,0,6.51-.22,2.83,2.83,0,0,0-.31-4.81,5.81,5.81,0,0,0-6.51.22,2.85,2.85,0,0,0,.27,4.83Z" transform="translate(839 640.25)"/><path class="cls-15" d="M571,618.06H551.61V602.49H571Zm-15.78-2.67h12.17V605.15H555.2Z" transform="translate(839 640.25)"/><rect class="cls-15" x="1392.39" y="1244.07" width="7.89" height="12.9"/><path class="cls-15" d="M563.09,618.06H551.61V602.49h11.51Zm-7.89-2.67h4.28V605.15H555.2Z" transform="translate(839 640.25)"/><path class="cls-15" d="M571,631.23H551.61v-11H571Zm-15.78-2.68h12.17V623H555.2Z" transform="translate(839 640.25)"/><rect class="cls-15" x="1392.39" y="1261.86" width="7.89" height="8.28"/><path class="cls-15" d="M580.85,602.18c-4,0-7.23-2.39-7.23-5.33s3.24-5.34,7.23-5.34,7.22,2.39,7.22,5.34S584.83,602.18,580.85,602.18Zm0-8c-2,0-3.62,1.19-3.63,2.67s1.61,2.67,3.61,2.68,3.62-1.19,3.62-2.67h0C584.45,595.38,582.83,594.18,580.85,594.18Z" transform="translate(839 640.25)"/><rect class="cls-15" x="1408.18" y="1273.73" width="23.33" height="2.67"/><rect class="cls-15" x="1408.18" y="1278.61" width="23.33" height="2.67"/><rect class="cls-15" x="1418.04" y="1241.1" width="3.62" height="33.96"/><polygon class="cls-20" points="1445.77 1175.55 1449.42 1172.59 1468.95 1185.74 1465.3 1188.7 1445.77 1175.55"/><path class="cls-15" d="M613.7,547.86a4.09,4.09,0,0,1-4.57.17,2,2,0,0,1-.23-3.38,4.09,4.09,0,0,1,4.58-.17h0a2,2,0,0,1,.22,3.37h0" transform="translate(839 640.25)"/><line class="cls-14" x1="1451.59" y1="1185.46" x2="1456.17" y2="1181.75"/><path class="cls-15" d="M618.38,540.52a1.11,1.11,0,0,1,.13,1.88h0l-4.58,3.72a2.29,2.29,0,0,1-2.56.09,1.11,1.11,0,0,1-.13-1.89h0l4.59-3.72a2.26,2.26,0,0,1,2.53-.1Z" transform="translate(839 640.25)"/><line class="cls-14" x1="1460.24" y1="1178.26" x2="1477.85" y2="1163.97"/><path class="cls-15" d="M640.07,522.73a1.12,1.12,0,0,1,.13,1.89l-17.61,14.29a2.26,2.26,0,0,1-2.54.18,1.12,1.12,0,0,1-.25-1.88l.12-.1,17.63-14.29A2.27,2.27,0,0,1,640.07,522.73Z" transform="translate(839 640.25)"/><path class="cls-15" d="M592.54,566.9H580.36V554.73h12.18ZM584,564.22h5V557.4h-5Z" transform="translate(839 640.25)"/><rect class="cls-15" x="1421.17" y="1196.32" width="4.29" height="9.49"/><path class="cls-15" d="M564.49,599.22h-6.42a1.71,1.71,0,0,1-1.93-1.24c-.07-.73.68-1.37,1.67-1.43h6.68a1.71,1.71,0,0,1,1.93,1.24c.08.73-.67,1.37-1.67,1.43Z" transform="translate(839 640.25)"/><path class="cls-15" d="M564.49,594.57h-6.42a1.71,1.71,0,0,1-1.93-1.24c-.07-.74.68-1.38,1.67-1.43h6.68a1.71,1.71,0,0,1,1.93,1.24c.08.73-.67,1.37-1.67,1.43Z" transform="translate(839 640.25)"/><path class="cls-15" d="M564.49,589.91h-6.42a1.71,1.71,0,0,1-1.93-1.23c-.07-.74.68-1.38,1.67-1.43h6.68a1.7,1.7,0,0,1,1.93,1.23c.08.74-.67,1.38-1.67,1.43Z" transform="translate(839 640.25)"/><path class="cls-15" d="M569.18,585.26H553.39a1.71,1.71,0,0,1-1.93-1.24c-.08-.73.67-1.37,1.67-1.43h16a1.72,1.72,0,0,1,1.93,1.24c.07.74-.68,1.38-1.67,1.43Z" transform="translate(839 640.25)"/><path class="cls-15" d="M588.08,685.38H545c-3.12,0-5.63-1.89-5.63-4.19v-4.13c0-2.31,2.51-4.18,5.63-4.2h43c3.13,0,5.67,1.88,5.67,4.2v4.13C593.75,683.51,591.21,685.38,588.08,685.38Zm-43-9.79c-1.11,0-2,.67-2,1.5v4.13c0,.82.9,1.49,2,1.49h43c1.11,0,2-.67,2-1.49h0v-4.13c0-.83-.91-1.5-2-1.5H545Z" transform="translate(839 640.25)"/><polyline class="cls-18" points="1399.68 1297.13 1399.68 1284.81 1410.62 1292.9 1410.62 1297.13"/><path class="cls-15" d="M573.43,656.87h-3.62V653.2l-7.33-5.41v9.09h-3.6V644.57a1.41,1.41,0,0,1,1.12-1.24,2.28,2.28,0,0,1,2,.29l10.95,8.08a1.19,1.19,0,0,1,.53.95Z" transform="translate(839 640.25)"/><path class="cls-15" d="M581,668.63H552.79a1.71,1.71,0,0,1-1.93-1.24c-.07-.73.68-1.37,1.67-1.43H581A1.72,1.72,0,0,1,583,667.2c.07.74-.68,1.38-1.67,1.43Z" transform="translate(839 640.25)"/><path class="cls-15" d="M574.49,664H559.24c-2.38,0-4.31-1.43-4.31-3.19v-2.17c0-1.76,1.93-3.18,4.31-3.18h15.25c2.37,0,4.3,1.42,4.3,3.18v2.2C578.77,662.59,576.85,664,574.49,664Zm-15.25-5.9c-.38,0-.7.23-.7.51v2.2c0,.29.31.51.69.51h15.26a.62.62,0,0,0,.69-.49v-2.19c0-.28-.31-.51-.69-.51Z" transform="translate(839 640.25)"/><path class="cls-15" d="M574.43,675.6H558.88V661.32h15.55Zm-11.94-2.67h8.32V664h-8.32Z" transform="translate(839 640.25)"/><path class="cls-15" d="M572.62,670.85H560.69c-1,0-1.81-.59-1.81-1.33s.81-1.34,1.81-1.34h11.93c1,0,1.81.6,1.81,1.34S573.62,670.85,572.62,670.85Z" transform="translate(839 640.25)"/><rect class="cls-15" x="1411.62" y="1324.3" width="12.63" height="3.7"/><path class="cls-15" d="M585.26,689.09H572.62c-1,0-1.81-.6-1.81-1.34v-3.69c0-.74.81-1.34,1.81-1.34h12.64c1,0,1.81.6,1.81,1.34v3.69C587.07,688.49,586.26,689.09,585.26,689.09Zm-10.83-2.68h9v-1h-9Z" transform="translate(839 640.25)"/><rect class="cls-15" x="1384.3" y="1324.3" width="12.64" height="3.7"/><path class="cls-15" d="M557.93,689.09H545.3c-1,0-1.8-.59-1.81-1.33h0v-3.69c0-.74.8-1.34,1.79-1.34h12.65c1,0,1.8.59,1.81,1.32v3.71c0,.73-.8,1.33-1.79,1.34Zm-10.82-2.68h9v-1h-9Z" transform="translate(839 640.25)"/><path class="cls-18" d="M564.92,639.89c-.95,0-1.72-.56-1.72-1.26s.77-1.27,1.71-1.27h0" transform="translate(839 640.25)"/><path class="cls-15" d="M551.11,686.5c-1,0-1.8-.59-1.81-1.32h0v-7.35h26.5c3.33,0,6,2,6,4.46v1.78c0,.73-.81,1.33-1.81,1.33s-1.81-.6-1.81-1.33h0v-1.78c0-1-1.08-1.79-2.41-1.79H552.91v4.68c0,.73-.81,1.33-1.8,1.33Z" transform="translate(839 640.25)"/><path class="cls-15" d="M552.44,649.47c-1,0-1.77-.6-1.78-1.33V587.21c0-.74.81-1.34,1.81-1.34s1.81.6,1.81,1.34v60.93C554.26,648.88,553.44,649.47,552.44,649.47Z" transform="translate(839 640.25)"/><path class="cls-15" d="M544.34,642.67c-1,0-1.8-.59-1.8-1.33h0V592.87c-.07-.73.68-1.37,1.68-1.43a1.71,1.71,0,0,1,1.93,1.24.61.61,0,0,1,0,.19v48.5C546.13,642.1,545.32,642.68,544.34,642.67Z" transform="translate(839 640.25)"/><path class="cls-15" d="M544.34,642.67c-1,0-1.8-.59-1.8-1.33h0V592.87c-.07-.73.68-1.37,1.68-1.43a1.71,1.71,0,0,1,1.93,1.24.61.61,0,0,1,0,.19v48.5C546.13,642.1,545.32,642.68,544.34,642.67Z" transform="translate(839 640.25)"/><line class="cls-14" x1="1537.65" y1="1117.31" x2="1546.79" y2="1123.47"/><path class="cls-15" d="M699.87,476.08l9.14,6.16a1.11,1.11,0,0,1,.11,1.89,2.28,2.28,0,0,1-2.55.08h0l-9.14-6.15a1.13,1.13,0,0,1-.24-1.89,2.3,2.3,0,0,1,2.55-.18l.13.09Z" transform="translate(839 640.25)"/><line class="cls-14" x1="1532.43" y1="1121.55" x2="1541.56" y2="1127.71"/><path class="cls-15" d="M694.64,480.32l9.15,6.15a1.11,1.11,0,0,1,0,1.89,2.31,2.31,0,0,1-2.43.09l-9.14-6.16a1.11,1.11,0,0,1,0-1.89A2.27,2.27,0,0,1,694.64,480.32Z" transform="translate(839 640.25)"/><path class="cls-15" d="M489.07,578.31c0-1.71-1.88-3.1-4.19-3.1s-4.19,1.39-4.19,3.1,1.87,3.1,4.19,3.1h0c2.31,0,4.19-1.39,4.19-3.1" transform="translate(839 640.25)"/><path class="cls-15" d="M562.74,578.31c0-1.71-1.87-3.11-4.19-3.11s-4.21,1.38-4.21,3.1,1.87,3.11,4.19,3.11h0c2.31,0,4.19-1.38,4.2-3.09h0" transform="translate(839 640.25)"/><rect class="cls-15" x="1301.69" y="1197.71" width="17.99" height="7.58"/><rect class="cls-15" x="1402.35" y="1197.71" width="17.99" height="7.58"/><path class="cls-15" d="M544.11,590.64c-1,0-1.8-.59-1.8-1.33,0-4.54-9-8.39-19.57-8.39s-19.57,3.82-19.57,8.39a1.71,1.71,0,0,1-1.93,1.24,1.63,1.63,0,0,1-1.67-1.24c0-6.19,10.17-11,23.17-11s23.19,4.85,23.19,11c0,.74-.82,1.33-1.82,1.33Z" transform="translate(839 640.25)"/><path class="cls-18" d="M528.67,584.48c0-2.83-3.1-5.12-6.93-5.12s-6.93,2.29-6.93,5.12,3.1,5.12,6.93,5.12,6.93-2.29,6.93-5.12h0" transform="translate(839 640.25)"/><path class="cls-18" d="M558.07,576.2c0-1.06-1.16-1.92-2.6-1.92s-2.6.86-2.6,1.92,1.16,1.92,2.6,1.92h0c1.44,0,2.6-.86,2.6-1.92" transform="translate(839 640.25)"/><path class="cls-18" d="M490.09,576.2c0-1.06-1.16-1.92-2.6-1.92s-2.6.86-2.6,1.92,1.16,1.92,2.6,1.92h0c1.44,0,2.6-.86,2.6-1.92" transform="translate(839 640.25)"/><path class="cls-15" d="M639.24,691.17H405.62c-1,0-1.75-.69-1.68-1.43a1.63,1.63,0,0,1,1.68-1.23H639.24a1.71,1.71,0,0,1,1.93,1.23c.08.74-.67,1.38-1.67,1.43Z" transform="translate(839 640.25)"/><path class="cls-16" d="M660.26,484.21a1.23,1.23,0,0,0,.16,2.08,2.52,2.52,0,0,0,2.81-.12,1.22,1.22,0,0,0-.13-2.06,2.5,2.5,0,0,0-2.81.08l0,0" transform="translate(839 640.25)"/><path class="cls-16" d="M664.23,481a1.21,1.21,0,0,0,.18,2.06,2.47,2.47,0,0,0,2.79-.13,1.2,1.2,0,0,0-.13-2,2.49,2.49,0,0,0-2.78.05l-.06.05" transform="translate(839 640.25)"/><path class="cls-15" d="M551.61,541.58H488.82V529.07h62.79Zm-59.19-2.68H548v-7.17H492.43Z" transform="translate(839 640.25)"/><path class="cls-18" d="M508.38,500.93c0-1.16-1.27-2.1-2.84-2.1s-2.84.94-2.84,2.1,1.27,2.1,2.84,2.1,2.84-.94,2.84-2.1" transform="translate(839 640.25)"/><path class="cls-18" d="M538.55,500.93c0-1.16-1.27-2.1-2.84-2.1s-2.84.94-2.84,2.1,1.27,2.1,2.84,2.1,2.84-.94,2.84-2.1" transform="translate(839 640.25)"/><polygon class="cls-16" points="1327.7 1131.28 1385.74 1131.28 1390.65 1132.66 1386.95 1142.46 1331.36 1142.46 1327.7 1131.28"/><path class="cls-18" d="M540.09,514.3H500.21c-4.34,0-7.86-2.6-7.86-5.8v-6.3H548v6.3c0,3.2-3.52,5.8-7.86,5.8h0" transform="translate(839 640.25)"/><path class="cls-15" d="M540.09,515.64H500.21c-5.33,0-9.66-3.2-9.66-7.14v-7.63h59.21v7.63C549.75,512.44,545.43,515.64,540.09,515.64Zm-45.93-12.1v5c0,2.47,2.71,4.47,6,4.47h39.88c3.35,0,6-2,6.06-4.47v-5Z" transform="translate(839 640.25)"/><path class="cls-21" d="M510,491c-12.53-4.07-18.24-14.87-12.74-24.14a18.41,18.41,0,0,1,3.58-4.29c4.54-4.07,33.12-4.28,37.67-.49,9.07,7.59,8.09,19.17-2.17,25.86a27.35,27.35,0,0,1-6.47,3.06" transform="translate(839 640.25)"/><path class="cls-15" d="M508.4,492.36a2.36,2.36,0,0,1-.8-.13c-13.78-5-19.52-17.22-12.82-27.41a20.36,20.36,0,0,1,1.58-2.08,2.2,2.2,0,0,1,2.49-.4,1.15,1.15,0,0,1,.55,1.84c-7.17,8.3-3.87,19.33,7.37,24.63.78.37,1.58.7,2.41,1s1.26,1.13.82,1.79a1.94,1.94,0,0,1-1.6.74Z" transform="translate(839 640.25)"/><path class="cls-15" d="M531.31,492.27a2,2,0,0,1-1.62-.74c-.44-.66-.08-1.46.81-1.79,11.91-4.41,16.73-15.12,10.77-23.93a17.3,17.3,0,0,0-2.11-2.55,1.15,1.15,0,0,1,.54-1.85,2.28,2.28,0,0,1,2.38.27c9,9.14,6.36,22-6,28.65a31.15,31.15,0,0,1-4,1.8A2.36,2.36,0,0,1,531.31,492.27Z" transform="translate(839 640.25)"/><path class="cls-15" d="M549.36,503.54H491l-9.46-27.66v-.17c0-15.8,17.35-28.6,38.73-28.59s38.67,12.8,38.69,28.59v.17l-.06.16Zm-55.6-2.67h52.79l8.7-25.32C554.94,461.22,539,449.8,519.58,450c-18.94.23-34.21,11.52-34.52,25.52Z" transform="translate(839 640.25)"/><path class="cls-15" d="M483.25,476.66c-1,0-1.8-.6-1.81-1.34v-26c0-.74.81-1.34,1.81-1.34s1.81.6,1.81,1.34v26C485.05,476.07,484.24,476.66,483.25,476.66Z" transform="translate(839 640.25)"/><path class="cls-15" d="M557.05,476.66c-1,0-1.8-.6-1.8-1.34V442a1.73,1.73,0,0,1,1.94-1.23,1.64,1.64,0,0,1,1.67,1.23v33.31C558.85,476.07,558,476.66,557.05,476.66Z" transform="translate(839 640.25)"/><path class="cls-15" d="M486.13,488.32h-3.79c-4.09,0-7.39-2.46-7.4-5.48V472.35c0-3,3.31-5.48,7.4-5.48H484c1,0,1.81.6,1.81,1.33s-.81,1.34-1.81,1.34h-1.62c-2.09,0-3.78,1.25-3.78,2.8v10.49c0,1.55,1.69,2.8,3.78,2.8h3.79c1,0,1.8.6,1.8,1.34s-.8,1.34-1.8,1.34Z" transform="translate(839 640.25)"/><path class="cls-15" d="M558.12,488.32h-3.78c-1,0-1.81-.6-1.81-1.34s.81-1.33,1.81-1.33h3.78c2.09,0,3.79-1.26,3.79-2.8v-10.5c0-1.54-1.7-2.79-3.79-2.79h-1.61c-1,0-1.81-.6-1.81-1.34s.81-1.34,1.81-1.34h1.61c4.09,0,7.41,2.46,7.41,5.48v10.5C565.52,485.87,562.2,488.32,558.12,488.32Z" transform="translate(839 640.25)"/><path class="cls-15" d="M483.65,472.49c-1,0-1.81-.59-1.81-1.32a1.15,1.15,0,0,1,.52-.95c20.36-15.57,53.89-16.1,75.13-1.19a1.11,1.11,0,0,1,.07,1.89A2.28,2.28,0,0,1,555,471c-19.8-13.91-51.07-13.42-70,1.11A2.24,2.24,0,0,1,483.65,472.49Z" transform="translate(839 640.25)"/><path class="cls-15" d="M551.66,492.36h-63c-1,0-1.81-.59-1.81-1.33s.81-1.34,1.81-1.34h63c1,0,1.81.6,1.81,1.34s-.81,1.33-1.81,1.33Z" transform="translate(839 640.25)"/><path class="cls-22" d="M533.11,468.18c0,2.64-2.9,4.78-6.47,4.78s-6.46-2.14-6.46-4.78,2.89-4.78,6.46-4.78,6.47,2.14,6.47,4.78h0" transform="translate(839 640.25)"/><path class="cls-22" d="M537.73,475.33c0,1.07-1.17,1.95-2.62,1.95s-2.62-.86-2.63-1.93,1.17-1.94,2.62-2h0c1.45,0,2.62.87,2.62,1.93h0" transform="translate(839 640.25)"/><path class="cls-15" d="M542.48,499.73a5.94,5.94,0,0,1-4.74-2.38c-.88-1-1.13-1.18-1.67-1.18s-.87.28-1.68,1.18a5.89,5.89,0,0,1-9.46,0c-.89-1-1.14-1.18-1.67-1.18s-.88.28-1.69,1.18a6,6,0,0,1-4.73,2.38,5.86,5.86,0,0,1-4.73-2.38c-.89-1-1.15-1.18-1.68-1.18s-.88.29-1.68,1.18a6,6,0,0,1-4.74,2.38,5.87,5.87,0,0,1-4.73-2.38c-.89-1-1.14-1.18-1.67-1.18a1.72,1.72,0,0,1-1.94-1.24c-.07-.73.68-1.37,1.68-1.43h.26a5.94,5.94,0,0,1,4.73,2.38c.89,1,1.13,1.18,1.67,1.18s.88-.28,1.69-1.18a6,6,0,0,1,4.73-2.38,5.72,5.72,0,0,1,4.69,2.38c.84,1,1.14,1.18,1.68,1.18s.87-.28,1.68-1.18a6,6,0,0,1,4.73-2.38,5.87,5.87,0,0,1,4.73,2.38c.89,1,1.15,1.18,1.68,1.18s.87-.28,1.67-1.18A6,6,0,0,1,536,493.5a5.86,5.86,0,0,1,4.73,2.38c.89,1,1.15,1.18,1.69,1.18a1.71,1.71,0,0,1,1.93,1.24c.08.74-.67,1.38-1.67,1.43h-.22Z" transform="translate(839 640.25)"/><line class="cls-14" x1="1332.8" y1="1166.17" x2="1383.69" y2="1166.17"/><path class="cls-16" d="M544.69,527.25H493.8c-1,0-1.74-.69-1.67-1.43a1.64,1.64,0,0,1,1.67-1.23h50.89a1.73,1.73,0,0,1,1.94,1.23c.07.74-.68,1.38-1.68,1.43Z" transform="translate(839 640.25)"/><line class="cls-14" x1="1337.55" y1="1160.2" x2="1380.89" y2="1160.2"/><path class="cls-16" d="M541.89,521.29H498.55c-1,0-1.8-.6-1.8-1.34s.81-1.34,1.8-1.34h43.34c1,0,1.81.6,1.81,1.34S542.89,521.29,541.89,521.29Z" transform="translate(839 640.25)"/><rect class="cls-15" x="1340.36" y="1180.49" width="39.75" height="6.78"/><path class="cls-16" d="M450.15,527.21a2.13,2.13,0,0,1-1.27-.39l-12-8.81h-4.56c-1,0-1.81-.6-1.81-1.33V514.5h-3.89c-1,0-1.83-.54-1.87-1.27v-4l-5.48-4a1.11,1.11,0,0,1,.07-1.89,2.29,2.29,0,0,1,2.49,0l6,4.44a1.2,1.2,0,0,1,.52.94v3.08h4c1,0,1.8.59,1.8,1.32h0v2.18h3.55a2.15,2.15,0,0,1,1.27.39l12.49,9.23a1.11,1.11,0,0,1,0,1.89A2.23,2.23,0,0,1,450.15,527.21Z" transform="translate(839 640.25)"/><path class="cls-15" d="M423.55,507.8a2.18,2.18,0,0,1-1.28-.39l-2.93-2.17a1.11,1.11,0,0,1,.07-1.89,2.28,2.28,0,0,1,2.48,0l2.94,2.17a1.11,1.11,0,0,1,0,1.89A2.18,2.18,0,0,1,423.55,507.8Z" transform="translate(839 640.25)"/><path class="cls-15" d="M450.15,527.21a2.13,2.13,0,0,1-1.27-.39l-8.38-6.19a1.11,1.11,0,0,1,.18-1.89,2.31,2.31,0,0,1,2.38,0l8.37,6.18a1.11,1.11,0,0,1,0,1.89A2.18,2.18,0,0,1,450.15,527.21Z" transform="translate(839 640.25)"/><path class="cls-16" d="M473.25,528.91a2.12,2.12,0,0,1-1.28-.4,1.11,1.11,0,0,1,0-1.89l4.68-3.45a2.26,2.26,0,0,1,2.55.13,1.09,1.09,0,0,1,0,1.76l-4.68,3.45A2.13,2.13,0,0,1,473.25,528.91Z" transform="translate(839 640.25)"/><path class="cls-15" d="M478.44,557l-29.56-21.69c-3.88-2.87-3.88-7.53,0-10.4L458.2,518a12.56,12.56,0,0,1,14.05,0h0l19,14-2.56,1.89-18.93-14a8,8,0,0,0-9,0l-9.32,6.89a3.88,3.88,0,0,0,0,6.62h0L481,555.11Z" transform="translate(839 640.25)"/><path class="cls-15" d="M472.47,533.77a7.94,7.94,0,0,1-4.73-1.44l-.95-.7a4.07,4.07,0,0,1,0-6.93l0,0,7.21-5.33L484.41,527l-7.21,5.33A7.92,7.92,0,0,1,472.47,533.77ZM474,523.11l-4.65,3.45a1.86,1.86,0,0,0,0,3.18h0l.94.7a3.85,3.85,0,0,0,4.31,0l4.66-3.44Z" transform="translate(839 640.25)"/><path class="cls-16" d="M468.72,536.69a3.43,3.43,0,0,0-3.83,0,1.67,1.67,0,0,0,0,2.83,3.41,3.41,0,0,0,3.83,0l0,0a1.64,1.64,0,0,0,0-2.79" transform="translate(839 640.25)"/><path class="cls-16" d="M463.05,532.49a3.39,3.39,0,0,0-3.82,0,1.66,1.66,0,0,0-.05,2.83,3.43,3.43,0,0,0,3.83,0l0,0a1.65,1.65,0,0,0,0-2.8" transform="translate(839 640.25)"/><path class="cls-16" d="M457.53,528.4a3.43,3.43,0,0,0-3.83,0,1.66,1.66,0,0,0,0,2.83,3.41,3.41,0,0,0,3.82,0l0,0a1.65,1.65,0,0,0,0-2.8" transform="translate(839 640.25)"/><path class="cls-15" d="M455.41,523.32a2.08,2.08,0,0,1-1.28-.41L440,512.48a1.11,1.11,0,0,1,.07-1.89,2.28,2.28,0,0,1,2.48,0L456.68,521a1.1,1.1,0,0,1,0,1.89,2.15,2.15,0,0,1-1.27.39Z" transform="translate(839 640.25)"/><path class="cls-15" d="M565,552.69l-2.55-1.89,20-14.83c3.54-2.48,3.69-6.61.33-9.23a11.15,11.15,0,0,0-12.48-.24l-.33.24L551.37,540.5l-2.55-1.89,18.6-13.76c5-3.49,12.87-3.33,17.6.36,4.54,3.55,4.54,9.1,0,12.65Z" transform="translate(839 640.25)"/><path class="cls-15" d="M584.06,527c-1,0-1.8-.59-1.8-1.33a1.19,1.19,0,0,1,.53-.95l14-10.38a2.28,2.28,0,0,1,2.55-.12,1.11,1.11,0,0,1,.17,1.88l-.17.13-14,10.38A2.18,2.18,0,0,1,584.06,527Z" transform="translate(839 640.25)"/><path class="cls-15" d="M597.14,527.21a2.18,2.18,0,0,1-1.28-.39l-12.07-9a1.11,1.11,0,0,1,.07-1.89,2.28,2.28,0,0,1,2.48,0l12.13,9a1.1,1.1,0,0,1,0,1.87h0A2.18,2.18,0,0,1,597.14,527.21Z" transform="translate(839 640.25)"/><path class="cls-16" d="M590.74,522.48a2.17,2.17,0,0,1-1.27-.39l-5.68-4.23a1.11,1.11,0,0,1,.07-1.89,2.28,2.28,0,0,1,2.48,0l5.73,4.2a1.1,1.1,0,0,1,0,1.88,2.19,2.19,0,0,1-1.29.39Z" transform="translate(839 640.25)"/><path class="cls-15" d="M602,523.61a2.18,2.18,0,0,1-1.28-.39l-12.13-9a1.12,1.12,0,0,1,.17-1.89,2.31,2.31,0,0,1,2.38,0l12.13,9a1.11,1.11,0,0,1,0,1.89A2.17,2.17,0,0,1,602,523.61Z" transform="translate(839 640.25)"/><path class="cls-16" d="M595,518.38a2.18,2.18,0,0,1-1.28-.39l-5.83-4.31a1.11,1.11,0,0,1,.07-1.89,2.32,2.32,0,0,1,2.48,0l5.83,4.31a1.1,1.1,0,0,1,0,1.89,2.17,2.17,0,0,1-1.27.39Z" transform="translate(839 640.25)"/><path class="cls-15" d="M606.27,517C600,517,595,513.18,595,508.55a7.48,7.48,0,0,1,3.25-5.8,2.28,2.28,0,0,1,2.54,0h0l13.44,9.94a1.1,1.1,0,0,1,0,1.89A13.55,13.55,0,0,1,606.27,517Zm-6.63-11.34c-2.22,2.69-1.07,6.19,2.56,7.83a9.84,9.84,0,0,0,4.07.83,9.6,9.6,0,0,0,4-.83Z" transform="translate(839 640.25)"/><path class="cls-15" d="M606,509.83c-1,0-1.81-.6-1.81-1.34a1.19,1.19,0,0,1,.53-.94l11.41-8.4a2.28,2.28,0,0,1,2.55.12,1.09,1.09,0,0,1,0,1.76l-11.36,8.44A2.22,2.22,0,0,1,606,509.83Z" transform="translate(839 640.25)"/><path class="cls-16" d="M620.29,500.06c0-1.16-1.27-2.1-2.84-2.1s-2.84.94-2.84,2.1,1.27,2.1,2.84,2.1,2.84-.94,2.84-2.1" transform="translate(839 640.25)"/><path class="cls-16" d="M569.91,535c-1,0-1.78-.64-1.75-1.38a1.22,1.22,0,0,1,.49-.87l7.18-5.31a2.28,2.28,0,0,1,2.55.06,1.09,1.09,0,0,1,0,1.83l-7.18,5.31A2.22,2.22,0,0,1,569.91,535Z" transform="translate(839 640.25)"/><path class="cls-15" d="M572.78,545.82h-3.6V539.7a1.16,1.16,0,0,1,.53-.94l8-5.89a2.28,2.28,0,0,1,2.54,0h0l3.4,2.51-2.56,1.89-2.12-1.57-6.16,4.55Z" transform="translate(839 640.25)"/><path class="cls-17" d="M717.14,418c0,4.36-2.52,7.9-5.63,7.9s-5.62-3.54-5.62-7.9,2.51-7.92,5.62-7.92S717.14,413.66,717.14,418Z" transform="translate(839 640.25)"/><path class="cls-17" d="M736.64,391.76c0,4.37-2.52,7.91-5.67,7.91s-5.63-3.54-5.63-7.91,2.52-7.9,5.63-7.9S736.64,387.4,736.64,391.76Z" transform="translate(839 640.25)"/><path class="cls-17" d="M643.23,387.61c5.91,0,10.71,1.86,10.71,4.15s-4.8,4.16-10.71,4.16-10.69-1.86-10.69-4.16S637.33,387.61,643.23,387.61Z" transform="translate(839 640.25)"/><path class="cls-17" d="M737.51,456c0,4.36-2.52,7.91-5.63,7.91s-5.62-3.55-5.62-7.91,2.52-7.91,5.62-7.91S737.51,451.61,737.51,456Z" transform="translate(839 640.25)"/><path class="cls-17" d="M432.07,387.28c0,4.36-2.52,7.9-5.62,7.9s-5.63-3.54-5.63-7.9,2.52-7.91,5.63-7.91S432.07,382.91,432.07,387.28Z" transform="translate(839 640.25)"/><path class="cls-17" d="M381.37,389.84c0,4.37-2.52,7.91-5.62,7.91s-5.63-3.54-5.63-7.91,2.52-7.91,5.63-7.91S381.37,385.47,381.37,389.84Z" transform="translate(839 640.25)"/><path class="cls-17" d="M360.35,420.24c0,4.36-2.52,7.9-5.62,7.9s-5.63-3.54-5.63-7.9,2.52-7.87,5.65-7.87S360.35,415.87,360.35,420.24Z" transform="translate(839 640.25)"/></svg>